<?xml version="1.0" encoding="utf-8"?>
<!-- Generator: Adobe Illustrator 16.0.0, SVG Export Plug-In . SVG Version: 6.00 Build 0)  -->
<!DOCTYPE svg PUBLIC "-//W3C//DTD SVG 1.1//EN" "http://www.w3.org/Graphics/SVG/1.1/DTD/svg11.dtd">
<svg version="1.1" id="Layer_1" xmlns="http://www.w3.org/2000/svg" xmlns:xlink="http://www.w3.org/1999/xlink" x="0px" y="0px"
	 width="612px" height="792px" viewBox="0 0 612 792" enable-background="new 0 0 612 792" xml:space="preserve">
<g>
	<path fill="none" d="M558.607,269.496c-38.63-0.037-77.265-0.175-115.893,0.126c-7.428,0.057-12.22-2.24-16.326-8.531
		c-12.74-19.515-26.264-38.512-38.97-58.047c-3.717-5.716-7.855-7.507-14.476-7.458l-120.068-0.024
		c-6.856-0.062-10.667,2.371-14.282,7.887c-12.582,19.201-25.907,37.916-38.423,57.158c-4.304,6.618-9.287,9.103-17.137,9.034
		c-37.933-0.343-75.869-0.167-113.804-0.151c-16.804,0.008-20.014,3.24-20.01,20.144c0.021,88.052,0.055,176.104,0.09,264.152
		c0.007,19.091,2.445,21.519,21.807,21.519c80.742,0.013,161.482,0.008,242.226,0.004c81.087,0,162.177,0.017,243.267-0.012
		c17.471-0.004,20.571-3.175,20.567-20.857c-0.026-88.75-0.06-177.496-0.143-266.242
		C577.021,273.314,573.225,269.512,558.607,269.496z M256.53,220.926c0.182-11.795,4.842-16.541,16.437-16.594
		c26.802-0.118,53.603-0.122,80.402,0.004c11.287,0.053,15.627,4.496,15.773,15.896c0.145,11.138,0.108,22.277-0.088,33.412
		c-0.191,11.102-4.741,15.565-16.088,15.704c-13.57,0.163-27.146,0.037-40.721,0.037c-13.228,0-26.456,0.146-39.679-0.045
		c-11.067-0.159-15.681-4.819-15.935-16.047C256.389,242.51,256.364,231.714,256.53,220.926z M312.012,543.856
		c-68.915-0.787-121.081-55.13-120.475-125.503c0.557-64.657,56.802-118.433,123.155-117.751
		c66.565,0.686,120.457,55.489,119.938,121.974C434.1,490.832,379.712,544.628,312.012,543.856z"/>
	<path fill="none" d="M350.168,222.518c-4.361-0.225-7.793-0.547-11.227-0.555c-20.806-0.049-41.612-0.025-63.755-0.025
		c0,10.494,0,19.442,0,29.067c25.221,0,50.038,0,74.981,0C350.168,241.184,350.168,232.073,350.168,222.518z"/>
	<path d="M594.734,281.928c-0.032-16.541-12.181-28.851-28.638-30.226c-4.031-0.338-8.083-0.424-11.925-0.616
		c-2.468-23.24-6.566-29.654-18.421-29.858c-12.108-0.208-16.835,6.973-19.158,30.298c-23.862,0-47.129,0.225-70.382-0.277
		c-2.938-0.065-6.615-3.37-8.554-6.149c-13.729-19.686-27.244-39.523-40.486-59.541c-3.872-5.855-8.438-8.197-15.509-8.16
		c-45.589,0.257-91.179,0.29-136.769-0.024c-7.563-0.053-12.198,2.644-16.238,8.768c-12.83,19.454-26.298,38.487-39.04,57.999
		c-3.706,5.675-7.833,7.634-14.5,7.577c-35.495-0.306-70.993-0.167-106.491-0.139c-26.135,0.021-37.543,11.399-37.558,37.492
		c-0.055,88.742-0.091,177.488-0.105,266.23c-0.004,26.594,11.422,37.892,38.262,37.896c113.106,0.008,226.213,0.004,339.319,0.004
		c51.158,0,102.316,0.094,153.477-0.053c19.361-0.058,32.742-12.195,32.775-30.372C594.967,469.158,594.924,375.541,594.734,281.928
		z M556.608,575.294c-81.09,0.028-162.18,0.012-243.267,0.012c-80.743,0.004-161.484,0.009-242.226-0.004
		c-19.362,0-21.8-2.428-21.807-21.519c-0.035-88.048-0.068-176.1-0.09-264.152c-0.004-16.904,3.206-20.135,20.01-20.144
		c37.935-0.016,75.871-0.191,113.804,0.151c7.85,0.069,12.833-2.416,17.137-9.034c12.517-19.242,25.841-37.957,38.423-57.158
		c3.615-5.516,7.426-7.948,14.282-7.887l120.068,0.024c6.62-0.049,10.759,1.742,14.476,7.458
		c12.706,19.535,26.229,38.532,38.97,58.047c4.106,6.292,8.898,8.588,16.326,8.531c38.628-0.302,77.263-0.163,115.893-0.126
		c14.617,0.016,18.413,3.819,18.426,18.699c0.083,88.746,0.116,177.492,0.143,266.242
		C577.18,572.119,574.079,575.29,556.608,575.294z"/>
	<path d="M314.691,300.602c-66.353-0.681-122.598,53.094-123.155,117.751c-0.606,70.373,51.56,124.716,120.475,125.503
		c67.7,0.771,122.088-53.024,122.618-121.28C435.148,356.091,381.257,301.288,314.691,300.602z M310.328,526.071
		c-56.246-1.032-102.334-49.059-100.914-105.155c1.461-57.75,48.214-103.333,104.922-102.304
		c57.794,1.048,103.656,48.296,102.671,105.776C416.024,481.606,368.264,527.133,310.328,526.071z"/>
	<path d="M272.567,269.341c13.224,0.191,26.451,0.045,39.679,0.045c13.574,0,27.15,0.126,40.721-0.037
		c11.347-0.139,15.896-4.602,16.088-15.704c0.196-11.135,0.232-22.273,0.088-33.412c-0.146-11.4-4.486-15.843-15.773-15.896
		c-26.8-0.126-53.6-0.123-80.402-0.004c-11.594,0.053-16.255,4.798-16.437,16.594c-0.166,10.788-0.142,21.583,0.102,32.367
		C256.886,264.522,261.5,269.182,272.567,269.341z M275.187,221.938c22.143,0,42.949-0.024,63.755,0.025
		c3.434,0.008,6.865,0.33,11.227,0.555c0,9.556,0,18.667,0,28.487c-24.943,0-49.76,0-74.981,0
		C275.187,241.38,275.187,232.432,275.187,221.938z"/>
	<path d="M313.309,346.397c-42.021,0.567-76.127,35.154-76.192,72.976c-0.01,6.304,1.352,11.461,8.695,11.592
		c6.563,0.118,8.417-4.329,9.08-10.326c3.723-33.682,21.875-52.262,55.094-56.391c6.457-0.8,12.98-2.028,11.204-9.866
		C320.306,350.485,314.653,347.67,313.309,346.397z"/>
</g>
</svg>
