<?xml version="1.0" encoding="utf-8"?>
<!-- Generator: Adobe Illustrator 16.0.0, SVG Export Plug-In . SVG Version: 6.00 Build 0)  -->
<!DOCTYPE svg PUBLIC "-//W3C//DTD SVG 1.1//EN" "http://www.w3.org/Graphics/SVG/1.1/DTD/svg11.dtd">
<svg version="1.1" id="Layer_1" xmlns="http://www.w3.org/2000/svg" xmlns:xlink="http://www.w3.org/1999/xlink" x="0px" y="0px"
	 width="612px" height="792px" viewBox="0 0 612 792" enable-background="new 0 0 612 792" xml:space="preserve">
<path fill="none" d="M92.892,299.047c141.639,0,283.287,0,424.926,0c0,64.737,0,129.475,0,194.212c-141.64,0-283.287,0-424.926,0
	C92.892,428.522,92.892,363.785,92.892,299.047z"/>
<g>
	<g id="XMLID_1_">
		<g>
		</g>
		<g>
		</g>
	</g>
	<path fill-rule="evenodd" clip-rule="evenodd" d="M299.015,389.605c-2.051,4.499-0.842,11.727,3.018,14.015
		c3.014,1.784,6.316,3.124,9.579,4.438c8.511,3.424,17.07,6.729,25.32,9.965c0.098-0.772,0.444-2.229,0.444-3.692
		c-0.001-4.322-0.758-8.381-5.313-10.34c-5.402-2.332-10.891-4.471-16.288-6.816C310.232,394.764,304.758,392.207,299.015,389.605z"
		/>
	<g id="XMLID_3_">
		<g>
			<path d="M510.122,266.796c0.379,2.965-1.298,5.667-3.98,7.997c-13.563,11.694-27.095,23.442-40.656,35.136
				c-28.603,24.68-57.222,49.341-85.832,74.011c-1.341,1.156-2.69,2.32-4.46,3.846c-6.024-6.986-11.615-13.471-17.207-19.955
				c-15.626-18.123-31.479-36.065-46.77-54.461c-5.867-7.043-13.605-10.356-21.469-13.833c-4.829-2.133-9.79-3.977-14.757-5.976
				c5.676-10.715,5.275-22.152,5.911-34.435c1.604,1.86,2.635,3.055,3.665,4.25c25.354,29.404,50.718,58.817,76.072,88.221
				c5.93,6.877,19.492,7.872,26.351,1.958c27.251-23.482,54.485-46.981,81.728-70.472c1.223-1.054,2.444-2.108,4.077-3.516
				c-3.573-1.562-6.569-3.192-9.765-4.095c-1.112-0.313-2.954,0.926-4.076,1.893c-21.936,18.819-43.841,37.676-65.673,56.597
				c-5.703,4.949-12.117,4.5-16.673,1.098c-1.181-0.89-2.232-2.94-2.151-4.395c0.767-12.905,1.754-25.794,2.751-38.691
				c0.708-9.34,1.458-18.686,2.285-28.018c0.628-7.109,1.122-14.245,2.173-21.306c1.523-10.202-4.653-22.05-14.502-25.007
				c-3.476-1.042-8.347-0.404-11.559,1.348c-3.89,2.129-7.264,5.85-9.829,9.588c-3.398,4.966-5.813,10.611-8.74,16.124
				c1.049-16.838,2.093-33.608,3.18-51.194c11.409,4.951,21.87,9.431,32.279,14.051c15.906,7.068,21.266,18.65,20.015,34.867
				c-0.879,11.539-2.258,23.033-3.264,34.554c-0.859,9.662,8.429,18.811,18.073,17.603c2.197-0.273,4.482-1.735,6.241-3.235
				c13.759-11.688,27.399-23.531,41.08-35.327c4.578-3.948,10.146-4.057,15.678-1.385c9.457,4.551,19.02,8.946,28.833,12.618
				C502.216,268.415,506.228,267.038,510.122,266.796z"/>
			<path d="M338.13,384.969c9.35,4.739,12.184,13.41,11.51,22.992c-1.674,23.546-3.956,47.029-5.918,70.554
				c-1.037,12.407-6.253,22.661-15.607,30.807c-1.543,1.346-3.456,2.28-5.896,3.859c2.366-5.555,4.676-9.884,6.042-14.496
				c1.739-5.857,3.09-11.889,3.922-17.932c0.975-7.059,1.153-14.209,1.755-21.312c0.397-4.684,1.246-9.344,1.284-14.02
				c0.041-3.327-2.083-6.123-5.47-6.51c-8.147-0.91-16.358-1.304-24.551-1.936c-5.034-0.397-10.091-0.712-15.109-1.331
				c-5.128-0.618-10.53-7.473-10.202-12.845c1.164-18.973,2.448-37.954,3.597-56.944c0.25-3.952,0.108-7.933,0.786-11.905
				c4.88,8.021,12.476,11.314,20.15,14.794C315.784,373.881,327.001,379.347,338.13,384.969z"/>
			<path d="M284.521,460.057c0.364,0.274,0.729,0.532,1.093,0.807c-1.712,2.827-2.847,6.287-5.206,8.384
				c-15.763,13.974-31.527,27.965-47.831,41.292c-7.915,6.459-10.071,14.6-10.639,23.898c-0.424,7.124-0.797,14.252-1.434,21.353
				c-0.67,7.447-1.738,14.84-2.45,22.275c-0.804,8.454-8.032,14.4-16.65,13.849c-11.559-0.735-23.134-1.011-34.669-1.83
				c-8.486-0.602-16.94-1.628-25.38-2.73c-4.161-0.547-6.425-3.873-6.555-7.546c-0.225-6.549,0.434-13.144,0.826-19.715
				c0.195-3.333,0.569-6.661,0.918-10c0.154-1.389,0.444-2.768,0.674-4.143c0.463-0.034,0.919-0.077,1.383-0.111
				c0.403,1.593,0.771,3.199,1.2,4.785c1.5,5.465,1.508,11.818,8.434,14.004c0.667,0.221,1.334,0.552,2.022,0.594
				c17.833,1.225,35.668,2.398,53.499,3.657c2.939,0.201,4.334-0.652,4.598-3.869c0.852-10.594,2.503-21.145,2.834-31.751
				c0.238-7.377-5.441-11.751-11.339-14.902c-4.789-2.565-9.829-5.423-14.878-3.295c0.25-7.529,0.498-14.932,0.757-23.059
				c6.318,2.773,12.148,4.887,17.543,7.787c7.99,4.306,10.591,3.892,19.189-4.651c-2.549-4.1-14.52-8.024-22.65-7.661
				c0.385-7.392,0.782-14.843,1.175-22.354c8.932,3.572,17.818,7.073,26.654,10.681c2.478,1.012,4.82,2.363,7.247,3.499
				c3.194,1.491,5.884,1.033,8.357-1.704c1.795-1.993,4.039-3.578,7.167-6.275c-12.896-3.208-22.84-12.252-35.712-11.043
				c0.516-7.314,1.037-14.713,1.578-22.494c4.809,1.943,10.016,3.926,15.13,6.131c6.952,2.99,13.784,6.211,20.727,9.192
				c4.917,2.105,10.088,3.641,14.849,6.008C272.789,462.015,278.448,463.193,284.521,460.057z"/>
			<path d="M193.211,441.87c6.256,1.539,9.26,5.723,9.638,12.966c0.057,1.191,0.037,2.386,0.051,3.121
				c-6.409,0.866-12.389,1.714-18.372,2.483c-3.431,0.446-6.287-1.703-6.093-5.13c0.33-5.389,1.187-10.739,1.81-16.047
				C184.866,440.178,189.085,440.848,193.211,441.87z"/>
			<path d="M163.47,434.138c7.832,0.784,9.743,6.229,10.802,12.582c0.235,1.324,0.341,2.664,0.453,3.569
				c-6.132,1.058-11.785,1.988-17.42,3.015c-5.201,0.939-7.212-0.969-7.119-6.265c0.083-5.271-0.279-10.54-0.454-16.146
				C155.788,432.366,159.58,433.739,163.47,434.138z"/>
			<path d="M173.553,462.097c1.859,0.607,4.267,1.998,4.857,3.604c1.458,3.959,1.994,8.251,2.689,11.437
				c-5.634,0.787-10.86,1.365-16.008,2.274c-7.717,1.358-9.819-0.581-8.694-8.405c0.573-3.945,1.131-7.908,1.731-11.86
				c0.063-0.388,0.43-0.736,0.566-0.966C163.983,459.536,168.85,460.57,173.553,462.097z"/>
		</g>
		<g>
			<path fill="none" stroke="#FFFFFF" stroke-miterlimit="10" d="M375.193,387.786c-6.024-6.986-11.615-13.471-17.207-19.955
				c-15.626-18.123-31.479-36.065-46.77-54.461c-5.867-7.043-13.605-10.356-21.469-13.833c-4.829-2.133-9.79-3.977-14.757-5.976
				c5.676-10.715,5.275-22.152,5.911-34.435c1.604,1.86,2.635,3.055,3.665,4.25c25.354,29.404,50.718,58.817,76.072,88.221
				c5.93,6.877,19.492,7.872,26.351,1.958c27.251-23.482,54.485-46.981,81.728-70.472c1.223-1.054,2.444-2.108,4.077-3.516
				c-3.573-1.562-6.569-3.192-9.765-4.095c-1.112-0.313-2.954,0.926-4.076,1.893c-21.936,18.819-43.841,37.676-65.673,56.597
				c-5.703,4.949-12.117,4.5-16.673,1.098c-1.181-0.89-2.232-2.94-2.151-4.395c0.767-12.905,1.754-25.794,2.751-38.691
				c0.708-9.34,1.458-18.686,2.285-28.018c0.628-7.109,1.122-14.245,2.173-21.306c1.523-10.202-4.653-22.05-14.502-25.007
				c-3.476-1.042-8.347-0.404-11.559,1.348c-3.89,2.129-7.264,5.85-9.829,9.588c-3.398,4.966-5.813,10.611-8.74,16.124
				c1.049-16.838,2.093-33.608,3.18-51.194c11.409,4.951,21.87,9.431,32.279,14.051c15.906,7.068,21.266,18.65,20.015,34.867
				c-0.879,11.539-2.258,23.033-3.264,34.554c-0.859,9.662,8.429,18.811,18.073,17.603c2.197-0.273,4.482-1.735,6.241-3.235
				c13.759-11.688,27.399-23.531,41.08-35.327c4.578-3.948,10.146-4.057,15.678-1.385c9.457,4.551,19.02,8.946,28.833,12.618
				c3.065,1.157,7.077-0.22,10.972-0.461c0.379,2.965-1.298,5.667-3.98,7.997c-13.563,11.694-27.095,23.442-40.656,35.136
				c-28.603,24.68-57.222,49.341-85.832,74.011C378.313,385.097,376.963,386.261,375.193,387.786z"/>
			<path fill="none" stroke="#FFFFFF" stroke-miterlimit="10" d="M184.972,515.062c0.25-7.529,0.498-14.932,0.757-23.059
				c6.318,2.773,12.148,4.887,17.543,7.787c7.99,4.306,10.591,3.892,19.189-4.651c-2.549-4.1-14.52-8.024-22.65-7.661
				c0.385-7.392,0.782-14.843,1.175-22.354c8.932,3.572,17.818,7.073,26.654,10.681c2.478,1.012,4.82,2.363,7.247,3.499
				c3.194,1.491,5.884,1.033,8.357-1.704c1.795-1.993,4.039-3.578,7.167-6.275c-12.896-3.208-22.84-12.252-35.712-11.043
				c0.516-7.314,1.037-14.713,1.578-22.494c4.809,1.943,10.016,3.926,15.13,6.131c6.952,2.99,13.784,6.211,20.727,9.192
				c4.917,2.105,10.088,3.641,14.849,6.008c5.806,2.896,11.465,4.075,17.538,0.938c0.364,0.274,0.729,0.532,1.093,0.807
				c-1.712,2.827-2.847,6.287-5.206,8.384c-15.763,13.974-31.527,27.965-47.831,41.292c-7.915,6.459-10.071,14.6-10.639,23.898
				c-0.424,7.124-0.797,14.252-1.434,21.353c-0.67,7.447-1.738,14.84-2.45,22.275c-0.804,8.454-8.032,14.4-16.65,13.849
				c-11.559-0.735-23.134-1.011-34.669-1.83c-8.486-0.602-16.94-1.628-25.38-2.73c-4.161-0.547-6.425-3.873-6.555-7.546
				c-0.225-6.549,0.434-13.144,0.826-19.715c0.195-3.333,0.569-6.661,0.918-10c0.154-1.389,0.444-2.768,0.674-4.143
				c0.463-0.034,0.919-0.077,1.383-0.111c0.403,1.593,0.771,3.199,1.2,4.785c1.5,5.465,1.508,11.818,8.434,14.004
				c0.667,0.221,1.334,0.552,2.022,0.594c17.833,1.225,35.668,2.398,53.499,3.657c2.939,0.201,4.334-0.652,4.598-3.869
				c0.852-10.594,2.503-21.145,2.834-31.751c0.238-7.377-5.441-11.751-11.339-14.902
				C195.062,515.791,190.022,512.934,184.972,515.062z"/>
			<path fill="none" stroke="#FFFFFF" stroke-miterlimit="10" d="M322.219,513.181c2.366-5.555,4.676-9.884,6.042-14.496
				c1.739-5.857,3.09-11.889,3.922-17.932c0.975-7.059,1.153-14.209,1.755-21.312c0.397-4.684,1.246-9.344,1.284-14.02
				c0.041-3.327-2.083-6.123-5.47-6.51c-8.147-0.91-16.358-1.304-24.551-1.936c-5.034-0.397-10.091-0.712-15.109-1.331
				c-5.128-0.618-10.53-7.473-10.202-12.845c1.164-18.973,2.448-37.954,3.597-56.944c0.25-3.952,0.108-7.933,0.786-11.905
				c4.88,8.021,12.476,11.314,20.15,14.794c11.361,5.135,22.578,10.601,33.707,16.223c9.35,4.739,12.184,13.41,11.51,22.992
				c-1.674,23.546-3.956,47.029-5.918,70.554c-1.037,12.407-6.253,22.661-15.607,30.807
				C326.571,510.667,324.658,511.602,322.219,513.181z"/>
			<path fill="none" stroke="#FFFFFF" stroke-miterlimit="10" d="M174.725,450.289c-6.132,1.058-11.785,1.988-17.42,3.015
				c-5.201,0.939-7.212-0.969-7.119-6.265c0.083-5.271-0.279-10.54-0.454-16.146c6.056,1.473,9.848,2.846,13.738,3.244
				c7.832,0.784,9.743,6.229,10.802,12.582C174.507,448.044,174.613,449.384,174.725,450.289z"/>
			<path fill="none" stroke="#FFFFFF" stroke-miterlimit="10" d="M158.695,458.18c5.288,1.356,10.155,2.391,14.858,3.917
				c1.859,0.607,4.267,1.998,4.857,3.604c1.458,3.959,1.994,8.251,2.689,11.437c-5.634,0.787-10.86,1.365-16.008,2.274
				c-7.717,1.358-9.819-0.581-8.694-8.405c0.573-3.945,1.131-7.908,1.731-11.86C158.191,458.758,158.559,458.409,158.695,458.18z"/>
			<path fill="none" stroke="#FFFFFF" stroke-miterlimit="10" d="M202.9,457.957c-6.409,0.866-12.389,1.714-18.372,2.483
				c-3.431,0.446-6.287-1.703-6.093-5.13c0.33-5.389,1.187-10.739,1.81-16.047c4.62,0.914,8.84,1.584,12.965,2.606
				c6.256,1.539,9.26,5.723,9.638,12.966C202.906,456.027,202.886,457.222,202.9,457.957z"/>
		</g>
	</g>
	<g id="XMLID_2_">
		<g>
			<path fill="#F9F9FA" d="M332.062,403.988c4.559,1.968,5.318,6.021,5.314,10.35c0.003,1.46-0.345,2.92-0.444,3.689
				c-8.248-3.239-16.807-6.545-25.323-9.967c-3.267-1.318-6.566-2.655-9.576-4.448c-3.862-2.284-5.069-9.512-3.012-14.005
				c5.742,2.602,11.214,5.15,16.749,7.566C321.181,399.521,326.666,401.659,332.062,403.988z"/>
		</g>
		<g>
		</g>
	</g>
</g>
</svg>
