<?xml version="1.0" encoding="utf-8"?>
<!-- Generator: Adobe Illustrator 16.0.0, SVG Export Plug-In . SVG Version: 6.00 Build 0)  -->
<!DOCTYPE svg PUBLIC "-//W3C//DTD SVG 1.1//EN" "http://www.w3.org/Graphics/SVG/1.1/DTD/svg11.dtd">
<svg version="1.1" id="Layer_1" xmlns="http://www.w3.org/2000/svg" xmlns:xlink="http://www.w3.org/1999/xlink" x="0px" y="0px"
	 width="612px" height="792px" viewBox="0 0 612 792" enable-background="new 0 0 612 792" xml:space="preserve">
<g>
	<g id="XMLID_1_">
		<g>
			<path fill="#FFFFFF" d="M238.801,364.714c2.389,3.383,2.074,6.923-0.765,10.582c-0.481,0.615-1.009,1.19-1.325,1.553
				c-3.564-2.31-6.883-4.455-10.187-6.623c-1.916-1.254-2.405-3.485-0.804-5.149c2.452-2.539,5.172-4.826,7.75-7.199
				C235.379,360.315,237.192,362.444,238.801,364.714z"/>
			<path fill="#FFFFFF" d="M220.508,366.457c0.662,1.088,1.12,2.846,0.709,3.935c-0.946,2.5-2.492,4.786-3.509,6.647
				c-3.217-2.058-6.166-4.029-9.193-5.875c-3.864-2.342-4.274-3.769-1.23-6.986c2.231-2.35,4.881-4.305,7.223-6.332
				C216.802,361.087,218.829,363.674,220.508,366.457z"/>
			<path fill="#FFFFFF" d="M227.652,348.685c2.082,2.649,2.965,5.204,0.639,8.232c-1.033,1.34-1.624,3.02-2.208,4.139
				c-3.564-2.145-6.765-4.108-9.998-6c-2.965-1.743-3.138-3.588-0.836-6.158c2.311-2.57,4.384-5.346,6.694-8.192
				C224.411,344.167,225.933,346.5,227.652,348.685z"/>
			<path fill="#FFFFFF" d="M470.844,413.356c-1.049,1.576-2.94,2.302-5.164,2.31c-6.6,0.04-13.199,0.071-19.799,0.071
				c-29.955,0.008-59.917,0.008-89.872,0.008c-1.167,0-2.333,0-3.871,0c0-2.491,0-4.55,0-6.607c0-19.113-0.157-38.234,0.095-57.347
				c0.087-6.197-2.224-11.362-4.881-16.589c-1.529-2.997-3.052-6-4.604-9.044c7.428-2.894,12.087-8.776,17.67-14.524
				c0,1.624,0,2.657,0,3.69c0,25.231,0,50.455,0,75.679c0,6.726,5.953,12.757,12.592,12.757c23.355,0,46.702,0,70.057,0
				c1.08,0,2.161,0,3.675,0c-1.08-2.286-1.877-4.438-3.106-6.308c-0.395-0.607-1.908-0.678-2.91-0.678
				c-18.821-0.032-37.642-0.056-56.463-0.008c-5.03,0.016-8.011-2.847-8.831-6.498c-0.229-1.017,0.189-2.594,0.906-3.343
				c4.921-5.157,9.982-10.172,15.029-15.202c5.369-5.354,10.778-10.676,16.163-16.006c4.14-4.1,8.516-7.987,12.348-12.355
				c3.919-4.471,3.738-9.911,1.286-14.926c-1.767-3.604-5.268-5.023-9.486-5.102c-6.347-0.126-11.504,3.201-17.362,5.141
				c7.759-7.948,15.415-15.793,23.568-24.135c3.895,8.168,7.806,15.549,10.976,23.229c3.674,8.91,0.922,16.685-5.725,23.229
				c-5.464,5.377-11.078,10.605-16.59,15.943c-4.604,4.479-3.981,12.836,1.364,16.479c1.19,0.812,2.965,1.064,4.471,1.08
				c11.622,0.079,23.252,0.047,34.883,0.047c5.038,0,7.096,1.908,9.06,6.56c2.634,6.252,5.646,12.379,8.965,18.301
				C466.286,410.998,468.841,411.921,470.844,413.356z"/>
			<path fill="#FFFFFF" d="M334.98,398.493c2.626,6.363,0.292,11.874-4.14,16.329c-10.834,10.897-21.983,21.479-32.927,32.265
				c-5.977,5.891-13.081,8.831-21.439,8.745c-1.222-0.017-2.436-0.379-4.021-0.646c3.312-1.641,6.395-2.831,9.107-4.59
				c3.359-2.176,6.505-4.715,9.588-7.293c2.618-2.192,5.046-4.621,7.499-7.01c3.17-3.091,6.489-6.071,9.296-9.462
				c1.206-1.459,1.285-3.722-0.536-5.527c-5.764-5.7-11.433-11.496-17.118-17.268c-3.075-3.114-3.272-8.721-0.229-11.882
				c7.585-7.861,15.273-15.628,22.905-23.434c2.831-2.886,5.646-5.787,8.697-8.523c-1.104,5.914,1.198,10.802,3.532,15.801
				C328.648,383.409,331.874,390.932,334.98,398.493z M320.764,413.806c3.296-2.713,4.802-5.796,2.469-9.959
				c-1.554-2.775-2.902-5.677-4.306-8.531c-1.782-3.65-3.532-7.309-5.409-11.196c-2.94,1.27-5.44,5.488-4.336,8.397
				c0.843,2.239,2.058,4.345,3.153,6.489c2.649,5.172,5.307,10.329,7.9,15.359c-0.023,0.039-0.023,0.047,0.008,0.016
				c0-0.008-0.008-0.008-0.008-0.016C320.307,414.271,320.512,414.011,320.764,413.806z"/>
			<path fill="#FFFFFF" d="M276.419,412.836c0.047,0.291,0.095,0.583,0.142,0.875c-2.121,0.654-4.234,1.845-6.363,1.877
				c-13.791,0.196-27.597,0.409-41.38,0.039c-6.726-0.182-11.196,3.067-15.446,7.428c-3.264,3.351-6.529,6.718-9.903,9.958
				c-3.391,3.257-7.01,6.276-10.369,9.564c-3.737,3.65-9.651,4.739-14.563-0.118c-7.309-7.215-14.784-14.256-22.133-21.438
				c-1.916-1.877-3.635-3.967-5.377-6.017c-1.861-2.192-1.782-4.833-0.197-6.82c2.681-3.367,5.843-6.348,8.847-9.446
				c1.53-1.577,3.138-3.083,4.731-4.589c0.67-0.631,1.419-1.19,2.129-1.782c0.244,0.173,0.481,0.347,0.725,0.521
				c-0.481,0.97-0.962,1.932-1.435,2.894c-1.632,3.351-4.313,6.513-1.83,10.574c0.245,0.394,0.426,0.852,0.749,1.167
				c8.319,8.231,16.668,16.432,24.971,24.68c1.388,1.38,2.452,1.506,3.942,0.039c4.896-4.817,10.053-9.375,14.824-14.303
				c3.186-3.288,2.547-7.617,1.238-11.402c-1.238-3.595-2.326-7.68-6.6-9.027c3.517-3.73,6.805-7.207,10.424-11.055
				c3.036,5.984,5.89,11.63,8.713,17.204c2.933,0,5.685,0,9.067,0c-2.46-5.274-3.942-10.644-8.949-13.499
				c3.414-3.556,6.813-7.081,10.392-10.802c3.43,6.994,6.805,13.822,10.132,20.666c1.23,2.531,2.696,4.439,6.008,3.793
				c1.514-0.3,3.13-0.056,5.417-0.056c-2.129-3.981-4.313-7.467-5.89-11.204c-1.64-3.895-3.525-7.443-7.025-9.572
				c3.461-3.461,6.852-6.852,10.502-10.51c1.569,3.051,3.319,6.339,4.952,9.683c2.129,4.368,4.108,8.807,6.245,13.175
				c1.545,3.139,3.478,6.111,4.81,9.336C269.591,408.696,271.941,411.771,276.419,412.836z"/>
		</g>
	</g>
	<g>
		<g>
			<path fill="#9CDD24" d="M49.759,420.548c-0.598-0.598-1.12-1.254-1.564-1.969c-0.446-0.715-0.821-1.441-1.125-2.18
				c-0.306-0.738-0.534-1.468-0.686-2.188c-0.153-0.721-0.229-1.386-0.229-1.995c0-0.879,0.116-1.655,0.352-2.329
				c0.233-0.674,0.51-1.239,0.826-1.696s0.633-0.803,0.949-1.037s0.55-0.352,0.703-0.352c0.058,0,0.107,0.023,0.148,0.07
				s0.063,0.1,0.063,0.158s-0.048,0.141-0.141,0.246c-0.105,0.117-0.215,0.27-0.326,0.457s-0.217,0.416-0.316,0.686
				s-0.148,0.58-0.148,0.932c0,0.375,0.061,0.771,0.184,1.187s0.349,0.841,0.678,1.274c0.339,0.457,0.598,0.938,0.773,1.441
				s0.31,1.025,0.404,1.564c0.093,0.539,0.176,1.084,0.246,1.635s0.169,1.104,0.299,1.661c0.128,0.557,0.313,1.102,0.553,1.635
				s0.583,1.052,1.029,1.556c0.292,0.328,0.635,0.636,1.027,0.923s0.836,0.536,1.328,0.747s1.037,0.378,1.635,0.501
				s1.248,0.185,1.951,0.185c1.604,0,3.169-0.138,4.693-0.413c1.522-0.275,3.059-0.709,4.605-1.301s3.129-1.345,4.746-2.259
				s3.324-2.01,5.123-3.287s3.715-2.742,5.748-4.395s4.233-3.51,6.602-5.572l-0.105-0.123c-0.527,0.27-1.12,0.524-1.775,0.765
				c-0.657,0.24-1.349,0.448-2.074,0.624c-0.728,0.176-1.477,0.313-2.25,0.413s-1.542,0.149-2.303,0.149
				c-1.067,0-2.078-0.105-3.033-0.316s-1.901-0.533-2.838-0.967c-0.938-0.434-1.896-0.987-2.875-1.661s-2.029-1.474-3.154-2.399
				c-0.165-0.141-0.294-0.258-0.387-0.352c-0.095-0.094-0.165-0.17-0.211-0.229c-0.048-0.059-0.08-0.111-0.098-0.158
				s-0.025-0.088-0.025-0.123c0-0.047,0.02-0.091,0.061-0.132s0.098-0.062,0.168-0.062c0.151,0,0.327,0.05,0.527,0.149
				c0.198,0.1,0.397,0.22,0.598,0.36c1.195,0.855,2.261,1.582,3.199,2.18c0.937,0.598,1.824,1.081,2.662,1.45s1.667,0.636,2.488,0.8
				c0.819,0.164,1.71,0.246,2.672,0.246c0.937,0,1.895-0.085,2.873-0.255s1.957-0.416,2.936-0.738s1.951-0.712,2.918-1.169
				s1.908-0.967,2.822-1.529c0.433-0.27,0.781-0.478,1.045-0.624s0.475-0.258,0.633-0.334s0.273-0.123,0.344-0.141
				s0.123-0.026,0.158-0.026c0.058,0,0.119,0.047,0.184,0.141s0.098,0.17,0.098,0.229c0,0.129-0.158,0.357-0.475,0.686
				s-0.763,0.759-1.336,1.292c-0.575,0.533-1.261,1.163-2.057,1.89c-0.809,0.738-1.694,1.576-2.654,2.514
				c-0.844,0.82-1.592,1.582-2.242,2.285s-1.228,1.389-1.73,2.057c-0.505,0.668-0.947,1.342-1.328,2.021s-0.724,1.397-1.027,2.153
				c-0.306,0.756-0.584,1.576-0.836,2.461s-0.5,1.872-0.746,2.962c-0.809,3.516-2.263,6.179-4.359,7.989
				c-2.099,1.811-4.829,2.716-8.191,2.716c-0.646,0-1.318-0.047-2.021-0.141s-1.396-0.193-2.074-0.299
				c-0.681-0.117-1.325-0.223-1.934-0.316c-0.61-0.094-1.149-0.141-1.617-0.141c-1.278,0-2.298,0.182-3.059,0.545
				c-0.763,0.363-1.331,0.879-1.705,1.547c-0.188,0.328-0.306,0.615-0.352,0.861c-0.048,0.246-0.112,0.369-0.193,0.369
				c-0.083,0-0.162-0.167-0.238-0.501s-0.113-0.759-0.113-1.274c0-0.82,0.169-1.585,0.51-2.294c0.339-0.709,0.811-1.324,1.414-1.846
				s1.321-0.929,2.154-1.222c0.831-0.293,1.745-0.439,2.742-0.439c0.668,0,1.341,0.053,2.021,0.158
				c0.679,0.105,1.371,0.223,2.074,0.352c0.703,0.117,1.414,0.226,2.135,0.325s1.451,0.149,2.189,0.149
				c1.266,0,2.41-0.144,3.436-0.431s1.934-0.738,2.725-1.354s1.471-1.403,2.039-2.364s1.034-2.121,1.398-3.48
				c0.515-1.934,1.115-3.604,1.801-5.01s1.444-2.666,2.277-3.779l-0.07-0.053c-2.403,2.074-4.697,3.876-6.883,5.405
				s-4.283,2.795-6.293,3.797s-3.952,1.749-5.826,2.241c-1.876,0.492-3.704,0.738-5.484,0.738c-0.879,0-1.668-0.047-2.365-0.141
				s-1.359-0.243-1.986-0.448s-1.242-0.466-1.846-0.782s-1.251-0.697-1.941-1.143c-0.798-0.516-1.521-0.896-2.172-1.143
				s-1.221-0.369-1.713-0.369c-0.341,0-0.663,0.038-0.967,0.114c-0.306,0.076-0.622,0.179-0.949,0.308
				c-0.434,0.176-0.95,0.305-1.547,0.387s-1.213,0.123-1.846,0.123c-0.574,0-1.113,0.076-1.617,0.229s-0.973,0.445-1.406,0.879
				c-0.152,0.152-0.278,0.308-0.378,0.466s-0.185,0.302-0.255,0.431c-0.07,0.117-0.132,0.217-0.185,0.299s-0.108,0.123-0.167,0.123
				c-0.094,0-0.164-0.053-0.211-0.158s-0.07-0.234-0.07-0.387c0-0.703,0.199-1.415,0.598-2.136s0.914-1.374,1.547-1.96
				s1.339-1.063,2.118-1.433s1.544-0.554,2.294-0.554c0.457,0,0.905,0.059,1.344,0.176s0.882,0.29,1.328,0.519
				c0.444,0.229,0.904,0.513,1.379,0.853s0.97,0.727,1.486,1.16L49.759,420.548z M59.304,399.138
				c-0.153,0.48-0.382,0.979-0.686,1.494c-0.306,0.516-0.672,0.99-1.1,1.424s-0.904,0.791-1.432,1.072s-1.09,0.422-1.688,0.422
				c-0.364,0-0.783-0.035-1.258-0.105s-1.034-0.17-1.678-0.299c-0.341-0.059-0.657-0.103-0.949-0.132
				c-0.294-0.029-0.575-0.044-0.844-0.044c-0.681,0-1.237,0.053-1.67,0.158c-0.435,0.105-0.756,0.158-0.967,0.158
				c-0.188,0-0.281-0.064-0.281-0.193c0-0.094,0.072-0.22,0.219-0.378s0.349-0.36,0.607-0.606c0.246-0.246,0.538-0.542,0.879-0.888
				c0.339-0.346,0.696-0.759,1.072-1.239c0.387-0.492,0.731-0.973,1.037-1.441c0.304-0.457,0.646-0.867,1.027-1.23
				s0.841-0.656,1.381-0.879c0.538-0.223,1.235-0.334,2.092-0.334c0.492,0,0.989,0.047,1.494,0.141
				c0.503,0.094,0.972,0.234,1.406,0.422c-0.035,0.105-0.053,0.246-0.053,0.422c0,0.293,0.049,0.557,0.148,0.791
				s0.223,0.439,0.369,0.615s0.299,0.316,0.457,0.422S59.186,399.091,59.304,399.138z M47.79,392.124
				c0.07,0,0.158,0.015,0.264,0.044s0.211,0.062,0.316,0.097c0.105,0.047,0.211,0.088,0.316,0.123s0.193,0.059,0.264,0.07
				c0.269,0.059,0.503,0.088,0.703,0.088c0.198,0,0.404-0.012,0.615-0.035c0.198-0.023,0.415-0.035,0.65-0.035
				c0.269,0,0.598,0.047,0.984,0.141s0.778,0.229,1.178,0.404c0.397,0.176,0.781,0.384,1.15,0.624s0.678,0.507,0.924,0.8
				c0.093,0.129,0.169,0.237,0.229,0.325c0.058,0.088,0.088,0.167,0.088,0.237c0,0.082-0.112,0.152-0.334,0.211
				c-0.224,0.059-0.663,0.088-1.318,0.088c-0.352,0-0.736-0.021-1.152-0.062s-0.834-0.114-1.256-0.22
				c-0.399-0.105-0.821-0.278-1.266-0.519c-0.446-0.24-0.859-0.501-1.24-0.782s-0.693-0.554-0.939-0.817s-0.369-0.472-0.369-0.624
				c0-0.059,0.02-0.1,0.061-0.123S47.742,392.124,47.79,392.124z M60.833,393.741c-0.105-0.047-0.264-0.07-0.475-0.07
				c-0.224,0-0.446,0.035-0.668,0.105c-0.224,0.07-0.429,0.161-0.615,0.272c-0.188,0.111-0.35,0.243-0.484,0.396
				s-0.226,0.316-0.271,0.492c-0.481-0.105-0.962-0.272-1.441-0.501c-0.481-0.229-0.924-0.495-1.328-0.8s-0.759-0.633-1.063-0.984
				c-0.306-0.352-0.522-0.697-0.65-1.037c-0.153-0.387-0.253-0.747-0.299-1.081c-0.048-0.334-0.07-0.677-0.07-1.028
				c0-0.246,0.005-0.504,0.018-0.773c0.011-0.27,0.018-0.557,0.018-0.861c0-0.586-0.024-1.119-0.07-1.6
				c-0.048-0.48-0.104-0.908-0.168-1.283s-0.12-0.697-0.166-0.967c-0.048-0.27-0.07-0.486-0.07-0.65
				c0-0.234,0.058-0.352,0.176-0.352c0.116,0,0.251,0.088,0.404,0.264c0.151,0.188,0.362,0.422,0.633,0.703
				c0.269,0.281,0.615,0.592,1.037,0.932s0.96,0.662,1.617,0.967c0.62,0.293,1.147,0.554,1.582,0.782
				c0.433,0.229,0.796,0.457,1.09,0.686c0.292,0.229,0.532,0.466,0.721,0.712c0.187,0.246,0.345,0.533,0.475,0.861
				c0.141,0.375,0.246,0.773,0.316,1.195s0.105,0.85,0.105,1.283c0,0.445-0.03,0.87-0.088,1.274
				C61.037,393.082,60.949,393.437,60.833,393.741z M56.245,409.632c0-0.141,0.046-0.334,0.141-0.58
				c0.081-0.234,0.141-0.428,0.176-0.58c0.022-0.129,0.043-0.252,0.061-0.369s0.027-0.24,0.027-0.369
				c0-0.188-0.007-0.375-0.018-0.563c-0.024-0.188-0.035-0.393-0.035-0.615c0-0.27,0.046-0.595,0.141-0.976
				c0.093-0.381,0.225-0.773,0.395-1.178s0.375-0.794,0.615-1.169s0.507-0.691,0.801-0.949c0.257-0.223,0.444-0.334,0.563-0.334
				c0.081,0,0.154,0.12,0.219,0.36s0.098,0.712,0.098,1.415c0,0.34-0.018,0.709-0.053,1.107s-0.105,0.797-0.211,1.195
				c-0.105,0.41-0.285,0.841-0.537,1.292s-0.518,0.861-0.799,1.23s-0.555,0.677-0.818,0.923s-0.46,0.369-0.588,0.369
				c-0.07,0-0.118-0.023-0.141-0.07C56.256,409.726,56.245,409.679,56.245,409.632z M62.151,395.64
				c0.093,0.129,0.158,0.267,0.193,0.413s0.053,0.29,0.053,0.431c0,0.199-0.039,0.393-0.115,0.58s-0.184,0.357-0.324,0.51
				s-0.309,0.272-0.502,0.36s-0.407,0.132-0.641,0.132c-0.2,0-0.394-0.041-0.58-0.123c-0.188-0.082-0.355-0.193-0.502-0.334
				s-0.264-0.308-0.352-0.501s-0.131-0.407-0.131-0.642c0-0.199,0.037-0.393,0.113-0.58s0.186-0.354,0.326-0.501
				s0.304-0.264,0.492-0.352c0.187-0.088,0.397-0.132,0.633-0.132c0.269,0,0.521,0.064,0.756,0.193
				C61.805,395.224,61.998,395.405,62.151,395.64z M63.101,398.065c0.492,0.141,0.995,0.369,1.512,0.686
				c0.515,0.316,0.989,0.688,1.424,1.116c0.433,0.428,0.787,0.908,1.063,1.441s0.414,1.093,0.414,1.679
				c0,0.234-0.03,0.536-0.088,0.905c-0.06,0.369-0.123,0.765-0.193,1.187c-0.083,0.434-0.153,0.873-0.211,1.318
				c-0.06,0.445-0.088,0.861-0.088,1.248c0,0.691,0.058,1.254,0.176,1.688c0.105,0.434,0.158,0.756,0.158,0.967
				c0,0.082-0.018,0.155-0.053,0.22s-0.088,0.097-0.158,0.097c-0.105,0-0.235-0.076-0.387-0.229
				c-0.153-0.152-0.352-0.357-0.598-0.615c-0.246-0.246-0.543-0.539-0.889-0.879s-0.753-0.697-1.221-1.072
				c-0.492-0.387-0.974-0.732-1.441-1.037c-0.47-0.293-0.889-0.627-1.258-1.002s-0.665-0.832-0.887-1.371
				c-0.224-0.539-0.334-1.23-0.334-2.074c0-0.504,0.046-1.011,0.141-1.521c0.093-0.51,0.239-0.987,0.439-1.433
				c0.105,0.035,0.251,0.053,0.439,0.053c0.281,0,0.541-0.05,0.781-0.149s0.449-0.22,0.625-0.36s0.316-0.29,0.422-0.448
				S63.065,398.183,63.101,398.065z M65.245,383.774c0,0.152-0.048,0.346-0.141,0.58c-0.105,0.246-0.176,0.445-0.211,0.598
				c-0.035,0.129-0.06,0.252-0.07,0.369c-0.013,0.117-0.018,0.234-0.018,0.352c0,0.211,0.011,0.416,0.035,0.615
				c0.022,0.211,0.035,0.434,0.035,0.668c0,0.27-0.048,0.598-0.141,0.984c-0.095,0.387-0.229,0.782-0.404,1.187
				s-0.385,0.788-0.625,1.151s-0.5,0.656-0.781,0.879c-0.246,0.211-0.439,0.316-0.58,0.316c-0.083,0-0.153-0.108-0.211-0.325
				c-0.06-0.217-0.088-0.653-0.088-1.31c0-0.363,0.02-0.753,0.061-1.169s0.115-0.829,0.221-1.239
				c0.105-0.422,0.283-0.861,0.535-1.318s0.52-0.87,0.801-1.239s0.556-0.674,0.826-0.914c0.269-0.24,0.475-0.36,0.615-0.36
				C65.197,383.599,65.245,383.657,65.245,383.774z M62.257,394.075c0.141-0.48,0.365-0.981,0.676-1.503s0.683-0.996,1.117-1.424
				c0.433-0.428,0.914-0.779,1.441-1.055s1.083-0.413,1.67-0.413c0.222,0,0.518,0.029,0.887,0.088s0.766,0.123,1.188,0.193
				c0.422,0.082,0.857,0.152,1.309,0.211s0.882,0.088,1.293,0.088c0.69,0,1.259-0.059,1.705-0.176
				c0.433-0.105,0.756-0.158,0.967-0.158c0.081,0,0.151,0.015,0.211,0.044c0.058,0.029,0.088,0.079,0.088,0.149
				c0,0.094-0.077,0.22-0.229,0.378c-0.153,0.158-0.352,0.36-0.598,0.606c-0.259,0.246-0.558,0.545-0.896,0.896
				c-0.341,0.352-0.698,0.762-1.072,1.23c-0.387,0.48-0.728,0.955-1.02,1.424c-0.306,0.469-0.646,0.888-1.02,1.257
				c-0.376,0.369-0.83,0.665-1.363,0.888s-1.228,0.334-2.082,0.334c-0.505,0-1.012-0.05-1.521-0.149s-0.987-0.249-1.432-0.448
				c0.022-0.059,0.04-0.123,0.053-0.193c0.011-0.07,0.018-0.152,0.018-0.246c0-0.27-0.051-0.519-0.15-0.747
				s-0.219-0.431-0.359-0.606s-0.294-0.322-0.457-0.439C62.514,394.187,62.373,394.11,62.257,394.075z M74.122,401.159
				c-0.07,0-0.158-0.015-0.264-0.044s-0.215-0.062-0.326-0.097s-0.219-0.07-0.324-0.105s-0.193-0.064-0.264-0.088
				c-0.141-0.023-0.271-0.044-0.387-0.062c-0.118-0.018-0.241-0.026-0.369-0.026c-0.2,0-0.394,0.006-0.58,0.018
				c-0.2,0.023-0.417,0.035-0.65,0.035c-0.271,0-0.596-0.047-0.977-0.141s-0.771-0.226-1.168-0.396
				c-0.399-0.17-0.783-0.375-1.152-0.615s-0.676-0.507-0.922-0.8c-0.095-0.117-0.168-0.217-0.221-0.299s-0.078-0.158-0.078-0.229
				v-0.035c0-0.094,0.116-0.167,0.352-0.22c0.233-0.053,0.679-0.079,1.336-0.079c0.339,0,0.714,0.018,1.125,0.053
				c0.409,0.035,0.819,0.105,1.23,0.211c0.409,0.105,0.837,0.281,1.283,0.527c0.444,0.246,0.854,0.513,1.23,0.8
				c0.374,0.287,0.686,0.563,0.932,0.826s0.369,0.466,0.369,0.606C74.298,401.106,74.238,401.159,74.122,401.159z M113.831,392.634
				c1.815,0,3.614,0.249,5.396,0.747c1.78,0.498,3.516,1.236,5.203,2.215s3.313,2.191,4.877,3.639s3.033,3.12,4.404,5.019
				l0.088-0.053c-0.399-1.148-0.733-2.268-1.002-3.357c-0.271-1.078-0.525-2.095-0.766-3.05s-0.486-1.828-0.738-2.619
				s-0.563-1.468-0.932-2.03s-0.816-1.002-1.344-1.318s-1.19-0.475-1.986-0.475c-0.281,0-0.622,0.029-1.02,0.088
				c-0.399,0.07-0.83,0.141-1.293,0.211s-0.943,0.138-1.441,0.202s-0.987,0.097-1.467,0.097c-0.329,0-0.604-0.041-0.826-0.123
				c-0.224-0.082-0.402-0.19-0.537-0.325s-0.231-0.284-0.289-0.448c-0.06-0.164-0.088-0.328-0.088-0.492
				c0-0.188,0.022-0.363,0.07-0.527c0.046-0.164,0.096-0.322,0.148-0.475s0.103-0.299,0.15-0.439c0.046-0.129,0.07-0.252,0.07-0.369
				c0-0.469-0.171-0.788-0.51-0.958c-0.341-0.17-0.903-0.255-1.688-0.255c-0.763,0-1.475,0.059-2.137,0.176
				s-1.307,0.267-1.934,0.448s-1.245,0.372-1.854,0.571c-0.622,0.211-1.266,0.407-1.934,0.589s-1.375,0.331-2.119,0.448
				s-1.555,0.176-2.434,0.176c-1.419,0-2.654-0.167-3.709-0.501s-1.961-0.771-2.717-1.31s-1.377-1.146-1.863-1.819
				s-0.873-1.345-1.16-2.013s-0.486-1.304-0.598-1.907s-0.166-1.104-0.166-1.503c0-0.281,0.02-0.504,0.061-0.668
				s0.103-0.246,0.186-0.246c0.046,0,0.093,0.041,0.141,0.123c0.046,0.082,0.099,0.188,0.158,0.316
				c0.058,0.141,0.131,0.29,0.219,0.448s0.19,0.313,0.309,0.466c0.457,0.586,1.109,1.14,1.959,1.661s1.948,0.979,3.297,1.371
				c1.347,0.393,2.971,0.703,4.869,0.932s4.124,0.343,6.68,0.343c2.894,0,5.419,0.211,7.576,0.633
				c2.155,0.422,3.99,1.022,5.502,1.802s2.727,1.734,3.646,2.865s1.603,2.411,2.049,3.841c0.292,0.949,0.585,1.98,0.879,3.094
				c0.281,1.113,0.598,2.285,0.949,3.516s0.758,2.505,1.221,3.823s1.017,2.646,1.662,3.981c0.269,0.457,0.515,0.894,0.738,1.31
				c0.222,0.416,0.415,0.8,0.58,1.151c0.163,0.352,0.289,0.662,0.377,0.932s0.133,0.48,0.133,0.633c0,0.023-0.027,0.064-0.08,0.123
				s-0.113,0.12-0.184,0.185s-0.145,0.123-0.221,0.176s-0.138,0.079-0.184,0.079c-0.083,0-0.153-0.021-0.211-0.062
				c-0.06-0.041-0.139-0.123-0.238-0.246s-0.231-0.296-0.395-0.519c-0.176-0.223-0.411-0.521-0.703-0.896
				c-0.481-0.609-1.006-1.166-1.574-1.67s-1.172-0.938-1.811-1.301s-1.309-0.647-2.012-0.853s-1.424-0.308-2.162-0.308
				c-1.079,0-2.122,0.117-3.129,0.352c-1.009,0.234-2.028,0.606-3.059,1.116c-1.032,0.51-2.096,1.16-3.191,1.951
				s-2.265,1.743-3.506,2.856c-0.035,0-0.074-0.038-0.115-0.114s-0.061-0.149-0.061-0.22v-0.053c0.679-0.891,1.517-1.761,2.514-2.61
				c0.995-0.85,2.07-1.608,3.225-2.276s2.344-1.204,3.568-1.608s2.405-0.606,3.543-0.606c1.195,0,2.296,0.141,3.305,0.422
				c1.007,0.281,1.927,0.721,2.76,1.318l0.018-0.035c-1.349-2.25-2.77-4.26-4.264-6.029s-3.105-3.264-4.834-4.482
				s-3.604-2.15-5.625-2.795s-4.233-0.967-6.635-0.967c-1.723,0-3.273,0.193-4.65,0.58s-2.566,0.902-3.568,1.547
				s-1.813,1.386-2.434,2.224c-0.622,0.838-1.044,1.708-1.266,2.61c-0.176,0.691-0.429,1.283-0.756,1.775
				c-0.329,0.492-0.657,0.955-0.984,1.389c-0.329,0.434-0.615,0.876-0.861,1.327s-0.369,0.981-0.369,1.591
				c0,0.211,0.014,0.396,0.043,0.554s0.059,0.296,0.088,0.413s0.063,0.223,0.098,0.316c0.022,0.094,0.035,0.188,0.035,0.281
				c0,0.023-0.021,0.053-0.063,0.088s-0.073,0.053-0.096,0.053c-0.165,0-0.358-0.12-0.58-0.36c-0.224-0.24-0.432-0.557-0.625-0.949
				s-0.357-0.835-0.492-1.327s-0.201-0.99-0.201-1.494c0-0.539,0.113-1.125,0.342-1.758s0.601-1.298,1.117-1.995
				c0.515-0.697,1.195-1.418,2.039-2.162s1.874-1.503,3.094-2.276l-0.053-0.088c-1.278,0.762-2.518,1.456-3.719,2.083
				s-2.373,1.163-3.516,1.608s-2.25,0.788-3.322,1.028s-2.117,0.36-3.137,0.36c-1.149,0-2.228-0.146-3.234-0.439
				c-1.009-0.293-1.938-0.706-2.787-1.239s-1.611-1.175-2.285-1.925s-1.245-1.576-1.713-2.479c-0.47-0.902-0.83-1.869-1.082-2.9
				s-0.377-2.098-0.377-3.199c0-0.457,0.04-0.902,0.123-1.336c0.081-0.434,0.178-0.817,0.289-1.151s0.226-0.604,0.344-0.809
				c0.116-0.205,0.211-0.308,0.281-0.308c0.058,0,0.113,0.026,0.166,0.079s0.08,0.126,0.08,0.22c0,0.059-0.024,0.188-0.07,0.387
				c-0.06,0.211-0.088,0.434-0.088,0.668c0,0.75,0.141,1.392,0.422,1.925s0.784,1.005,1.512,1.415
				c0.409,0.234,0.775,0.483,1.098,0.747s0.627,0.589,0.914,0.976s0.572,0.853,0.854,1.397s0.58,1.216,0.896,2.013
				s0.655,1.477,1.02,2.039c0.362,0.563,0.773,1.022,1.23,1.38s0.967,0.621,1.529,0.791s1.195,0.255,1.898,0.255
				c0.527,0,1.039-0.026,1.537-0.079s1.005-0.144,1.521-0.272c0.515-0.129,1.055-0.293,1.617-0.492s1.171-0.442,1.828-0.729
				c0.655-0.287,1.379-0.627,2.17-1.02s1.673-0.835,2.646-1.327c0.866-0.445,1.751-0.879,2.654-1.301
				c0.901-0.422,1.836-0.797,2.803-1.125s1.966-0.592,2.998-0.791C111.609,392.733,112.693,392.634,113.831,392.634z
				 M107.731,423.202c-0.2,0.41-0.475,0.826-0.826,1.248s-0.751,0.806-1.195,1.151c-0.446,0.346-0.912,0.63-1.398,0.853
				s-0.957,0.334-1.414,0.334c-0.435,0-0.924-0.079-1.469-0.237s-1.233-0.401-2.064-0.729c-0.668-0.258-1.27-0.422-1.803-0.492
				s-0.992-0.105-1.379-0.105c-0.2,0-0.382,0.006-0.545,0.018c-0.165,0-0.312,0-0.439,0c-0.141,0-0.259-0.012-0.352-0.035
				c-0.095-0.023-0.141-0.082-0.141-0.176c0-0.105,0.084-0.226,0.254-0.36s0.401-0.302,0.695-0.501
				c0.292-0.199,0.638-0.442,1.037-0.729c0.397-0.287,0.826-0.636,1.283-1.046c0.422-0.363,0.796-0.727,1.125-1.09
				c0.327-0.363,0.668-0.688,1.02-0.976s0.743-0.519,1.178-0.694c0.433-0.176,0.967-0.264,1.6-0.264
				c0.655,0,1.341,0.105,2.057,0.316c0.714,0.211,1.358,0.504,1.934,0.879c-0.118,0.199-0.176,0.469-0.176,0.809
				c0,0.223,0.035,0.434,0.105,0.633s0.158,0.381,0.264,0.545s0.216,0.305,0.334,0.422
				C107.531,423.091,107.637,423.167,107.731,423.202z M97.519,414.308c0.07,0,0.154,0.023,0.254,0.07s0.211,0.1,0.334,0.158
				s0.249,0.123,0.379,0.193c0.128,0.082,0.257,0.146,0.387,0.193c0.246,0.105,0.497,0.164,0.756,0.176
				c0.246,0.023,0.512,0.053,0.799,0.088s0.598,0.103,0.932,0.202s0.7,0.278,1.1,0.536c0.233,0.152,0.482,0.337,0.746,0.554
				s0.504,0.442,0.721,0.677s0.398,0.466,0.545,0.694s0.221,0.431,0.221,0.606c0,0.059-0.018,0.103-0.053,0.132
				s-0.153,0.044-0.352,0.044c-0.165,0-0.379-0.015-0.643-0.044s-0.557-0.073-0.879-0.132s-0.662-0.141-1.02-0.246
				s-0.711-0.24-1.063-0.404c-0.387-0.176-0.777-0.413-1.17-0.712s-0.746-0.612-1.063-0.94s-0.575-0.642-0.773-0.94
				c-0.2-0.299-0.299-0.53-0.299-0.694C97.378,414.378,97.424,414.308,97.519,414.308z M102.897,433.134
				c0-0.059,0.022-0.141,0.07-0.246c0.046-0.105,0.105-0.217,0.176-0.334c0.058-0.117,0.116-0.231,0.176-0.343
				c0.058-0.111,0.105-0.202,0.141-0.272c0.128-0.281,0.204-0.545,0.229-0.791c0.022-0.258,0.053-0.527,0.088-0.809
				s0.102-0.592,0.201-0.932s0.284-0.732,0.555-1.178c0.176-0.281,0.377-0.557,0.605-0.826s0.46-0.513,0.695-0.729
				c0.233-0.217,0.457-0.39,0.668-0.519s0.38-0.193,0.51-0.193c0.07,0,0.125,0.018,0.166,0.053s0.063,0.152,0.063,0.352
				c0,0.164-0.013,0.381-0.035,0.65c-0.024,0.27-0.068,0.565-0.133,0.888s-0.146,0.662-0.246,1.02s-0.226,0.712-0.377,1.063
				c-0.176,0.387-0.426,0.773-0.748,1.16s-0.653,0.738-0.992,1.055c-0.341,0.316-0.663,0.574-0.967,0.773
				c-0.306,0.199-0.517,0.299-0.633,0.299C102.968,433.274,102.897,433.228,102.897,433.134z M110.175,418.175
				c-0.2-0.129-0.505-0.193-0.914-0.193c-0.399,0-0.76,0.091-1.082,0.272s-0.548,0.401-0.676,0.659
				c-0.457-0.188-0.903-0.437-1.336-0.747c-0.435-0.311-0.824-0.65-1.17-1.02s-0.639-0.75-0.879-1.143s-0.395-0.776-0.465-1.151
				c-0.07-0.363-0.105-0.715-0.105-1.055c0-0.246,0.018-0.492,0.053-0.738s0.075-0.498,0.123-0.756
				c0.046-0.258,0.099-0.533,0.158-0.826c0.058-0.293,0.11-0.615,0.158-0.967c0.093-0.656,0.146-1.245,0.158-1.767
				c0.011-0.521,0.018-0.964,0.018-1.327c0-0.352,0.014-0.624,0.043-0.817s0.103-0.29,0.221-0.29c0.116,0,0.233,0.1,0.352,0.299
				c0.116,0.199,0.286,0.46,0.51,0.782c0.222,0.322,0.515,0.688,0.879,1.099c0.362,0.41,0.849,0.826,1.459,1.248
				c0.69,0.48,1.256,0.905,1.695,1.274s0.783,0.732,1.029,1.09s0.412,0.735,0.5,1.134s0.133,0.867,0.133,1.406
				c0,0.645-0.08,1.289-0.238,1.934S110.432,417.753,110.175,418.175z M111.669,422.798c0.397,0.199,0.809,0.475,1.23,0.826
				s0.809,0.75,1.16,1.195s0.638,0.914,0.861,1.406c0.222,0.492,0.334,0.973,0.334,1.441c0,0.445-0.083,0.938-0.246,1.477
				c-0.165,0.539-0.404,1.219-0.721,2.039c-0.271,0.703-0.438,1.327-0.502,1.872s-0.103,1.017-0.113,1.415
				c0,0.164,0.005,0.316,0.018,0.457c0,0.141,0,0.264,0,0.369c0,0.164-0.013,0.296-0.035,0.396c-0.024,0.1-0.083,0.149-0.176,0.149
				c-0.105,0-0.224-0.085-0.352-0.255c-0.13-0.17-0.288-0.401-0.475-0.694c-0.2-0.293-0.443-0.639-0.73-1.037
				s-0.641-0.826-1.063-1.283c-0.376-0.41-0.738-0.779-1.09-1.107c-0.364-0.328-0.686-0.671-0.967-1.028s-0.51-0.756-0.686-1.195
				s-0.264-0.976-0.264-1.608c0-0.656,0.099-1.339,0.299-2.048c0.198-0.709,0.485-1.345,0.861-1.907
				c0.198,0.117,0.462,0.176,0.791,0.176c0.222,0,0.439-0.035,0.65-0.105s0.397-0.158,0.563-0.264
				c0.163-0.105,0.301-0.22,0.412-0.343S111.621,422.903,111.669,422.798z M111.159,420.249c0.081,0.176,0.123,0.381,0.123,0.615
				c0,0.422-0.145,0.791-0.432,1.107s-0.665,0.475-1.133,0.475c-0.2,0-0.396-0.038-0.59-0.114s-0.366-0.185-0.518-0.325
				c-0.153-0.141-0.273-0.308-0.361-0.501s-0.131-0.407-0.131-0.642c0-0.188,0.04-0.375,0.123-0.563
				c0.081-0.188,0.193-0.357,0.334-0.51s0.31-0.272,0.51-0.36c0.198-0.088,0.422-0.132,0.668-0.132c0.304,0,0.582,0.082,0.834,0.246
				S111.029,419.944,111.159,420.249z M111.528,418.737c0.187-0.387,0.457-0.788,0.809-1.204s0.746-0.8,1.186-1.151
				s0.902-0.642,1.389-0.87s0.97-0.343,1.451-0.343c0.433,0,0.928,0.079,1.484,0.237s1.251,0.396,2.084,0.712
				c0.679,0.27,1.285,0.439,1.818,0.51s0.999,0.105,1.398,0.105c0.176,0,0.334,0,0.475,0c0.141-0.012,0.269-0.018,0.387-0.018
				c0.163,0,0.301,0.015,0.412,0.044s0.168,0.091,0.168,0.185c0,0.105-0.086,0.22-0.256,0.343s-0.401,0.284-0.693,0.483
				c-0.294,0.199-0.64,0.439-1.037,0.721c-0.399,0.281-0.833,0.633-1.301,1.055c-0.411,0.375-0.78,0.744-1.107,1.107
				c-0.329,0.363-0.668,0.686-1.02,0.967s-0.745,0.51-1.178,0.686c-0.435,0.176-0.967,0.264-1.6,0.264
				c-0.646,0-1.328-0.1-2.049-0.299s-1.368-0.486-1.941-0.861c0.046-0.105,0.084-0.234,0.113-0.387s0.045-0.311,0.045-0.475
				c0-0.234-0.039-0.451-0.115-0.65s-0.17-0.378-0.281-0.536s-0.226-0.293-0.342-0.404
				C111.709,418.846,111.609,418.772,111.528,418.737z M116.222,409.069c0,0.07-0.021,0.155-0.063,0.255s-0.091,0.202-0.148,0.308
				c-0.06,0.105-0.118,0.211-0.176,0.316c-0.06,0.105-0.101,0.199-0.123,0.281c-0.13,0.27-0.206,0.527-0.229,0.773
				c-0.024,0.258-0.053,0.527-0.088,0.809s-0.104,0.592-0.203,0.932s-0.284,0.738-0.553,1.195c-0.165,0.27-0.361,0.539-0.59,0.809
				s-0.463,0.51-0.703,0.721s-0.472,0.387-0.693,0.527c-0.224,0.141-0.404,0.211-0.545,0.211c-0.06,0-0.104-0.018-0.133-0.053
				s-0.043-0.152-0.043-0.352c0-0.164,0.011-0.381,0.035-0.65c0.022-0.27,0.063-0.568,0.123-0.896
				c0.058-0.328,0.137-0.671,0.236-1.028s0.231-0.706,0.396-1.046c0.163-0.352,0.397-0.721,0.703-1.107
				c0.304-0.387,0.623-0.741,0.957-1.063s0.65-0.589,0.949-0.8s0.524-0.316,0.678-0.316
				C116.151,408.894,116.222,408.952,116.222,409.069z M122.058,427.737c-0.07,0-0.156-0.021-0.256-0.062s-0.208-0.091-0.324-0.149
				c-0.118-0.059-0.224-0.117-0.316-0.176c-0.105-0.059-0.193-0.105-0.264-0.141c-0.271-0.117-0.527-0.188-0.773-0.211
				c-0.259-0.023-0.527-0.053-0.809-0.088s-0.596-0.1-0.941-0.193s-0.746-0.281-1.203-0.563c-0.271-0.152-0.537-0.346-0.801-0.58
				s-0.507-0.469-0.729-0.703c-0.224-0.234-0.402-0.46-0.537-0.677s-0.201-0.396-0.201-0.536c0-0.07,0.018-0.123,0.053-0.158
				s0.158-0.053,0.369-0.053c0.176,0,0.395,0.012,0.658,0.035s0.555,0.067,0.871,0.132s0.65,0.149,1.002,0.255
				s0.696,0.234,1.037,0.387c0.362,0.176,0.74,0.416,1.133,0.721s0.753,0.621,1.082,0.949c0.327,0.328,0.594,0.642,0.799,0.94
				s0.309,0.524,0.309,0.677C122.216,427.673,122.163,427.737,122.058,427.737z"/>
		</g>
	</g>
	<g>
		<g>
			<path fill="#9CDD24" d="M574.954,420.583c0.517-0.434,1.012-0.82,1.486-1.16s0.935-0.624,1.379-0.853
				c0.446-0.229,0.889-0.401,1.328-0.519s0.888-0.176,1.345-0.176c0.75,0,1.514,0.185,2.293,0.554s1.486,0.847,2.119,1.433
				s1.148,1.239,1.547,1.96s0.598,1.433,0.598,2.136c0,0.152-0.023,0.281-0.07,0.387s-0.117,0.158-0.211,0.158
				c-0.059,0-0.115-0.041-0.168-0.123s-0.113-0.182-0.184-0.299c-0.07-0.129-0.156-0.272-0.256-0.431s-0.225-0.313-0.377-0.466
				c-0.434-0.434-0.902-0.727-1.406-0.879s-1.043-0.229-1.617-0.229c-0.633,0-1.248-0.041-1.846-0.123s-1.113-0.211-1.548-0.387
				c-0.327-0.129-0.644-0.231-0.949-0.308c-0.304-0.076-0.626-0.114-0.967-0.114c-0.492,0-1.063,0.123-1.713,0.369
				s-1.374,0.627-2.172,1.143c-0.69,0.445-1.338,0.826-1.941,1.143s-1.219,0.577-1.846,0.782s-1.289,0.354-1.986,0.448
				s-1.486,0.141-2.365,0.141c-1.78,0-3.608-0.246-5.484-0.738c-1.874-0.492-3.816-1.239-5.826-2.241s-4.107-2.268-6.293-3.797
				s-4.479-3.331-6.883-5.405l-0.07,0.053c0.833,1.113,1.592,2.373,2.277,3.779s1.286,3.076,1.801,5.01
				c0.364,1.359,0.83,2.52,1.398,3.48s1.248,1.749,2.039,2.364s1.699,1.066,2.725,1.354s2.17,0.431,3.436,0.431
				c0.738,0,1.469-0.05,2.189-0.149s1.432-0.208,2.135-0.325c0.703-0.129,1.396-0.246,2.074-0.352
				c0.681-0.105,1.354-0.158,2.021-0.158c0.997,0,1.911,0.146,2.742,0.439c0.833,0.293,1.551,0.7,2.154,1.222
				s1.075,1.137,1.414,1.846c0.341,0.709,0.51,1.474,0.51,2.294c0,0.516-0.037,0.94-0.113,1.274s-0.155,0.501-0.238,0.501
				c-0.081,0-0.146-0.123-0.193-0.369c-0.046-0.246-0.163-0.533-0.352-0.861c-0.374-0.668-0.942-1.184-1.705-1.547
				c-0.761-0.363-1.78-0.545-3.059-0.545c-0.468,0-1.007,0.047-1.617,0.141c-0.608,0.094-1.253,0.199-1.934,0.316
				c-0.679,0.105-1.371,0.205-2.074,0.299s-1.376,0.141-2.021,0.141c-3.362,0-6.093-0.905-8.191-2.716
				c-2.097-1.811-3.551-4.474-4.359-7.989c-0.246-1.09-0.494-2.077-0.746-2.962s-0.53-1.705-0.836-2.461
				c-0.304-0.756-0.646-1.474-1.027-2.153s-0.823-1.354-1.328-2.021c-0.503-0.668-1.08-1.354-1.73-2.057s-1.398-1.465-2.242-2.285
				c-0.96-0.938-1.846-1.775-2.654-2.514c-0.796-0.727-1.481-1.356-2.057-1.89c-0.573-0.533-1.02-0.964-1.336-1.292
				s-0.475-0.557-0.475-0.686c0-0.059,0.033-0.135,0.098-0.229s0.126-0.141,0.184-0.141c0.035,0,0.088,0.009,0.158,0.026
				s0.186,0.064,0.344,0.141s0.369,0.188,0.633,0.334s0.612,0.354,1.045,0.624c0.914,0.563,1.855,1.072,2.822,1.529
				s1.939,0.847,2.918,1.169s1.957,0.568,2.936,0.738s1.937,0.255,2.873,0.255c0.962,0,1.853-0.082,2.672-0.246
				c0.821-0.164,1.65-0.431,2.488-0.8s1.726-0.853,2.662-1.45c0.938-0.598,2.004-1.324,3.199-2.18c0.2-0.141,0.399-0.261,0.598-0.36
				c0.2-0.1,0.376-0.149,0.527-0.149c0.07,0,0.127,0.021,0.168,0.062s0.061,0.085,0.061,0.132c0,0.035-0.008,0.076-0.025,0.123
				s-0.05,0.1-0.098,0.158c-0.046,0.059-0.116,0.135-0.211,0.229c-0.093,0.094-0.222,0.211-0.387,0.352
				c-1.125,0.926-2.176,1.726-3.154,2.399s-1.937,1.228-2.875,1.661c-0.937,0.434-1.883,0.756-2.838,0.967s-1.966,0.316-3.033,0.316
				c-0.761,0-1.529-0.05-2.303-0.149s-1.522-0.237-2.25-0.413c-0.726-0.176-1.417-0.384-2.074-0.624
				c-0.655-0.24-1.248-0.495-1.775-0.765l-0.105,0.123c2.368,2.063,4.568,3.92,6.602,5.572s3.949,3.117,5.748,4.395
				s3.506,2.373,5.123,3.287s3.199,1.667,4.746,2.259s3.083,1.025,4.605,1.301c1.524,0.275,3.089,0.413,4.693,0.413
				c0.703,0,1.354-0.062,1.951-0.185s1.143-0.29,1.635-0.501s0.936-0.46,1.328-0.747s0.735-0.595,1.027-0.923
				c0.446-0.504,0.789-1.022,1.029-1.556s0.425-1.078,0.553-1.635c0.13-0.557,0.229-1.11,0.299-1.661s0.153-1.096,0.246-1.635
				c0.095-0.539,0.229-1.061,0.404-1.564s0.435-0.984,0.773-1.441c0.329-0.434,0.555-0.858,0.678-1.274s0.184-0.812,0.184-1.187
				c0-0.352-0.049-0.662-0.148-0.932s-0.205-0.498-0.316-0.686s-0.221-0.34-0.326-0.457c-0.093-0.105-0.141-0.188-0.141-0.246
				s0.021-0.111,0.063-0.158s0.091-0.07,0.148-0.07c0.153,0,0.387,0.117,0.703,0.352s0.633,0.58,0.949,1.037
				s0.593,1.022,0.826,1.696c0.235,0.674,0.352,1.45,0.352,2.329c0,0.609-0.075,1.274-0.229,1.995
				c-0.151,0.721-0.38,1.45-0.686,2.188c-0.304,0.738-0.679,1.465-1.125,2.18c-0.444,0.715-0.967,1.371-1.564,1.969L574.954,420.583
				z M565.753,398.909c0.158-0.105,0.311-0.246,0.457-0.422s0.27-0.381,0.369-0.615s0.148-0.498,0.148-0.791
				c0-0.176-0.018-0.316-0.053-0.422c0.435-0.188,0.903-0.328,1.406-0.422c0.505-0.094,1.002-0.141,1.494-0.141
				c0.856,0,1.554,0.111,2.092,0.334c0.54,0.223,1,0.516,1.381,0.879s0.724,0.773,1.027,1.23c0.306,0.469,0.65,0.949,1.037,1.441
				c0.376,0.48,0.733,0.894,1.072,1.239c0.341,0.346,0.633,0.642,0.879,0.888c0.259,0.246,0.461,0.448,0.607,0.606
				s0.219,0.284,0.219,0.378c0,0.129-0.093,0.193-0.281,0.193c-0.211,0-0.532-0.053-0.967-0.158
				c-0.433-0.105-0.989-0.158-1.67-0.158c-0.269,0-0.55,0.015-0.844,0.044c-0.292,0.029-0.608,0.073-0.949,0.132
				c-0.644,0.129-1.203,0.229-1.678,0.299s-0.894,0.105-1.258,0.105c-0.598,0-1.16-0.141-1.688-0.422s-1.004-0.639-1.432-1.072
				s-0.794-0.908-1.1-1.424c-0.304-0.516-0.532-1.014-0.686-1.494C565.457,399.091,565.595,399.015,565.753,398.909z
				 M576.985,392.159c0.041,0.023,0.061,0.064,0.061,0.123c0,0.152-0.123,0.36-0.369,0.624s-0.559,0.536-0.939,0.817
				s-0.794,0.542-1.24,0.782c-0.444,0.24-0.866,0.413-1.266,0.519c-0.422,0.105-0.84,0.179-1.256,0.22s-0.801,0.062-1.152,0.062
				c-0.655,0-1.095-0.029-1.318-0.088c-0.222-0.059-0.334-0.129-0.334-0.211c0-0.07,0.03-0.149,0.088-0.237
				c0.06-0.088,0.136-0.196,0.229-0.325c0.246-0.293,0.555-0.56,0.924-0.8s0.753-0.448,1.15-0.624
				c0.399-0.176,0.791-0.311,1.178-0.404s0.716-0.141,0.984-0.141c0.235,0,0.452,0.012,0.65,0.035
				c0.211,0.023,0.417,0.035,0.615,0.035c0.2,0,0.435-0.029,0.703-0.088c0.07-0.012,0.158-0.035,0.264-0.07s0.211-0.076,0.316-0.123
				c0.105-0.035,0.211-0.067,0.316-0.097s0.193-0.044,0.264-0.044C576.9,392.124,576.944,392.136,576.985,392.159z M563.546,392.678
				c-0.058-0.404-0.088-0.829-0.088-1.274c0-0.434,0.035-0.861,0.105-1.283s0.176-0.82,0.316-1.195
				c0.13-0.328,0.288-0.615,0.475-0.861c0.188-0.246,0.429-0.483,0.721-0.712c0.294-0.229,0.657-0.457,1.09-0.686
				c0.435-0.229,0.962-0.489,1.582-0.782c0.657-0.305,1.195-0.627,1.617-0.967s0.769-0.65,1.037-0.932
				c0.271-0.281,0.481-0.516,0.633-0.703c0.153-0.176,0.288-0.264,0.404-0.264c0.118,0,0.176,0.117,0.176,0.352
				c0,0.164-0.022,0.381-0.07,0.65c-0.046,0.27-0.102,0.592-0.166,0.967s-0.12,0.803-0.168,1.283c-0.046,0.48-0.07,1.014-0.07,1.6
				c0,0.305,0.007,0.592,0.018,0.861c0.013,0.27,0.018,0.527,0.018,0.773c0,0.352-0.022,0.694-0.07,1.028
				c-0.046,0.334-0.146,0.694-0.299,1.081c-0.128,0.34-0.345,0.686-0.65,1.037c-0.304,0.352-0.658,0.68-1.063,0.984
				s-0.847,0.571-1.328,0.8c-0.479,0.229-0.96,0.396-1.441,0.501c-0.046-0.176-0.137-0.34-0.271-0.492s-0.296-0.284-0.484-0.396
				c-0.187-0.111-0.392-0.202-0.615-0.272c-0.222-0.07-0.444-0.105-0.668-0.105c-0.211,0-0.369,0.023-0.475,0.07
				C563.693,393.437,563.605,393.082,563.546,392.678z M568.362,409.772c-0.022,0.047-0.07,0.07-0.141,0.07
				c-0.128,0-0.324-0.123-0.588-0.369s-0.537-0.554-0.818-0.923s-0.547-0.779-0.799-1.23s-0.432-0.882-0.537-1.292
				c-0.105-0.398-0.176-0.797-0.211-1.195s-0.053-0.768-0.053-1.107c0-0.703,0.033-1.175,0.098-1.415s0.138-0.36,0.219-0.36
				c0.118,0,0.306,0.111,0.563,0.334c0.294,0.258,0.561,0.574,0.801,0.949s0.445,0.765,0.615,1.169s0.302,0.797,0.395,1.178
				c0.095,0.381,0.141,0.706,0.141,0.976c0,0.223-0.011,0.428-0.035,0.615c-0.011,0.188-0.018,0.375-0.018,0.563
				c0,0.129,0.01,0.252,0.027,0.369s0.038,0.24,0.061,0.369c0.035,0.152,0.095,0.346,0.176,0.58c0.095,0.246,0.141,0.439,0.141,0.58
				C568.397,409.679,568.387,409.726,568.362,409.772z M563.071,395.095c0.235-0.129,0.487-0.193,0.756-0.193
				c0.235,0,0.446,0.044,0.633,0.132c0.188,0.088,0.352,0.205,0.492,0.352s0.25,0.313,0.326,0.501s0.113,0.381,0.113,0.58
				c0,0.234-0.043,0.448-0.131,0.642s-0.205,0.36-0.352,0.501s-0.313,0.252-0.502,0.334c-0.187,0.082-0.38,0.123-0.58,0.123
				c-0.233,0-0.447-0.044-0.641-0.132s-0.361-0.208-0.502-0.36s-0.248-0.322-0.324-0.51s-0.115-0.381-0.115-0.58
				c0-0.141,0.018-0.284,0.053-0.431s0.101-0.284,0.193-0.413C562.645,395.405,562.838,395.224,563.071,395.095z M561.753,398.479
				c0.105,0.158,0.246,0.308,0.422,0.448s0.385,0.261,0.625,0.36s0.5,0.149,0.781,0.149c0.188,0,0.334-0.018,0.439-0.053
				c0.2,0.445,0.347,0.923,0.439,1.433c0.095,0.51,0.141,1.017,0.141,1.521c0,0.844-0.11,1.535-0.334,2.074
				c-0.222,0.539-0.518,0.996-0.887,1.371s-0.788,0.709-1.258,1.002c-0.468,0.305-0.949,0.65-1.441,1.037
				c-0.468,0.375-0.875,0.732-1.221,1.072s-0.643,0.633-0.889,0.879c-0.246,0.258-0.444,0.463-0.598,0.615
				c-0.151,0.152-0.281,0.229-0.387,0.229c-0.07,0-0.123-0.032-0.158-0.097s-0.053-0.138-0.053-0.22
				c0-0.211,0.053-0.533,0.158-0.967c0.118-0.434,0.176-0.996,0.176-1.688c0-0.387-0.028-0.803-0.088-1.248
				c-0.058-0.445-0.128-0.885-0.211-1.318c-0.07-0.422-0.134-0.817-0.193-1.187c-0.058-0.369-0.088-0.671-0.088-0.905
				c0-0.586,0.139-1.146,0.414-1.679s0.63-1.014,1.063-1.441c0.435-0.428,0.909-0.8,1.424-1.116c0.517-0.316,1.02-0.545,1.512-0.686
				C561.577,398.183,561.647,398.32,561.753,398.479z M559.538,383.599c0.141,0,0.347,0.12,0.615,0.36
				c0.271,0.24,0.545,0.545,0.826,0.914s0.549,0.782,0.801,1.239s0.43,0.896,0.535,1.318c0.105,0.41,0.18,0.823,0.221,1.239
				s0.061,0.806,0.061,1.169c0,0.656-0.028,1.093-0.088,1.31c-0.058,0.217-0.128,0.325-0.211,0.325c-0.141,0-0.334-0.105-0.58-0.316
				c-0.281-0.223-0.541-0.516-0.781-0.879s-0.449-0.747-0.625-1.151s-0.31-0.8-0.404-1.187c-0.093-0.387-0.141-0.715-0.141-0.984
				c0-0.234,0.013-0.457,0.035-0.668c0.024-0.199,0.035-0.404,0.035-0.615c0-0.117-0.005-0.234-0.018-0.352
				c-0.011-0.117-0.035-0.24-0.07-0.369c-0.035-0.152-0.105-0.352-0.211-0.598c-0.093-0.234-0.141-0.428-0.141-0.58
				C559.397,383.657,559.445,383.599,559.538,383.599z M561.964,394.304c-0.163,0.117-0.316,0.264-0.457,0.439
				s-0.26,0.378-0.359,0.606s-0.15,0.478-0.15,0.747c0,0.094,0.007,0.176,0.018,0.246c0.013,0.07,0.03,0.135,0.053,0.193
				c-0.444,0.199-0.922,0.349-1.432,0.448s-1.017,0.149-1.521,0.149c-0.854,0-1.549-0.111-2.082-0.334s-0.987-0.519-1.363-0.888
				c-0.374-0.369-0.714-0.788-1.02-1.257c-0.292-0.469-0.633-0.943-1.02-1.424c-0.374-0.469-0.731-0.879-1.072-1.23
				c-0.339-0.352-0.638-0.65-0.896-0.896c-0.246-0.246-0.444-0.448-0.598-0.606c-0.151-0.158-0.229-0.284-0.229-0.378
				c0-0.07,0.03-0.12,0.088-0.149c0.06-0.029,0.13-0.044,0.211-0.044c0.211,0,0.534,0.053,0.967,0.158
				c0.446,0.117,1.015,0.176,1.705,0.176c0.411,0,0.842-0.029,1.293-0.088s0.887-0.129,1.309-0.211
				c0.422-0.07,0.818-0.135,1.188-0.193s0.665-0.088,0.887-0.088c0.587,0,1.143,0.138,1.67,0.413s1.009,0.627,1.441,1.055
				c0.435,0.428,0.807,0.902,1.117,1.424s0.535,1.022,0.676,1.503C562.27,394.11,562.129,394.187,561.964,394.304z M550.345,401.001
				c0-0.141,0.123-0.343,0.369-0.606s0.558-0.539,0.932-0.826c0.376-0.287,0.786-0.554,1.23-0.8
				c0.446-0.246,0.874-0.422,1.283-0.527c0.411-0.105,0.821-0.176,1.23-0.211c0.411-0.035,0.786-0.053,1.125-0.053
				c0.657,0,1.103,0.026,1.336,0.079c0.235,0.053,0.352,0.126,0.352,0.22v0.035c0,0.07-0.025,0.146-0.078,0.229
				s-0.126,0.182-0.221,0.299c-0.246,0.293-0.553,0.56-0.922,0.8s-0.753,0.445-1.152,0.615c-0.397,0.17-0.787,0.302-1.168,0.396
				s-0.706,0.141-0.977,0.141c-0.233,0-0.45-0.012-0.65-0.035c-0.187-0.012-0.38-0.018-0.58-0.018c-0.128,0-0.251,0.009-0.369,0.026
				c-0.116,0.018-0.246,0.038-0.387,0.062c-0.07,0.023-0.158,0.053-0.264,0.088s-0.213,0.07-0.324,0.105s-0.221,0.067-0.326,0.097
				s-0.193,0.044-0.264,0.044C550.404,401.159,550.345,401.106,550.345,401.001z M514.063,392.933
				c1.032,0.199,2.031,0.463,2.998,0.791s1.901,0.703,2.803,1.125c0.903,0.422,1.788,0.855,2.654,1.301
				c0.974,0.492,1.855,0.935,2.646,1.327s1.515,0.732,2.17,1.02c0.657,0.287,1.266,0.53,1.828,0.729s1.103,0.363,1.617,0.492
				c0.517,0.129,1.023,0.22,1.521,0.272s1.01,0.079,1.537,0.079c0.703,0,1.336-0.085,1.898-0.255s1.072-0.434,1.529-0.791
				s0.868-0.817,1.23-1.38c0.364-0.563,0.703-1.242,1.02-2.039s0.615-1.468,0.896-2.013s0.566-1.011,0.854-1.397
				s0.592-0.712,0.914-0.976s0.688-0.513,1.098-0.747c0.728-0.41,1.23-0.882,1.512-1.415s0.422-1.175,0.422-1.925
				c0-0.234-0.028-0.457-0.088-0.668c-0.046-0.199-0.07-0.328-0.07-0.387c0-0.094,0.027-0.167,0.08-0.22s0.108-0.079,0.166-0.079
				c0.07,0,0.165,0.103,0.281,0.308c0.118,0.205,0.232,0.475,0.344,0.809s0.208,0.718,0.289,1.151
				c0.083,0.434,0.123,0.879,0.123,1.336c0,1.102-0.125,2.168-0.377,3.199s-0.612,1.998-1.082,2.9
				c-0.468,0.902-1.039,1.729-1.713,2.479s-1.436,1.392-2.285,1.925s-1.778,0.946-2.787,1.239c-1.007,0.293-2.085,0.439-3.234,0.439
				c-1.02,0-2.064-0.12-3.137-0.36s-2.18-0.583-3.322-1.028s-2.314-0.981-3.516-1.608s-2.44-1.321-3.719-2.083l-0.053,0.088
				c1.22,0.773,2.25,1.532,3.094,2.276s1.524,1.465,2.039,2.162c0.517,0.697,0.889,1.362,1.117,1.995s0.342,1.219,0.342,1.758
				c0,0.504-0.066,1.002-0.201,1.494s-0.299,0.935-0.492,1.327s-0.401,0.709-0.625,0.949c-0.222,0.24-0.415,0.36-0.58,0.36
				c-0.022,0-0.055-0.018-0.096-0.053s-0.063-0.064-0.063-0.088c0-0.094,0.013-0.188,0.035-0.281
				c0.035-0.094,0.068-0.199,0.098-0.316s0.059-0.255,0.088-0.413s0.043-0.343,0.043-0.554c0-0.609-0.123-1.14-0.369-1.591
				s-0.532-0.894-0.861-1.327c-0.327-0.434-0.655-0.896-0.984-1.389c-0.327-0.492-0.58-1.084-0.756-1.775
				c-0.222-0.902-0.644-1.772-1.266-2.61c-0.62-0.838-1.432-1.579-2.434-2.224s-2.191-1.16-3.568-1.547s-2.928-0.58-4.65-0.58
				c-2.401,0-4.613,0.322-6.635,0.967s-3.896,1.576-5.625,2.795s-3.34,2.713-4.834,4.482s-2.915,3.779-4.264,6.029l0.018,0.035
				c0.833-0.598,1.753-1.037,2.76-1.318c1.009-0.281,2.109-0.422,3.305-0.422c1.138,0,2.318,0.202,3.543,0.606
				s2.414,0.94,3.568,1.608s2.229,1.427,3.225,2.276c0.997,0.85,1.835,1.72,2.514,2.61v0.053c0,0.07-0.02,0.144-0.061,0.22
				s-0.08,0.114-0.115,0.114c-1.241-1.113-2.41-2.065-3.506-2.856s-2.159-1.441-3.191-1.951c-1.03-0.51-2.05-0.882-3.059-1.116
				c-1.007-0.234-2.05-0.352-3.129-0.352c-0.738,0-1.459,0.103-2.162,0.308s-1.373,0.489-2.012,0.853s-1.242,0.797-1.811,1.301
				s-1.093,1.061-1.574,1.67c-0.292,0.375-0.527,0.674-0.703,0.896c-0.163,0.223-0.295,0.396-0.395,0.519s-0.179,0.205-0.238,0.246
				c-0.058,0.041-0.128,0.062-0.211,0.062c-0.046,0-0.107-0.026-0.184-0.079s-0.15-0.111-0.221-0.176s-0.131-0.126-0.184-0.185
				s-0.08-0.1-0.08-0.123c0-0.152,0.045-0.363,0.133-0.633s0.214-0.58,0.377-0.932c0.165-0.352,0.358-0.735,0.58-1.151
				c0.224-0.416,0.47-0.853,0.738-1.31c0.646-1.336,1.199-2.663,1.662-3.981s0.869-2.593,1.221-3.823s0.668-2.402,0.949-3.516
				c0.294-1.113,0.587-2.145,0.879-3.094c0.446-1.43,1.129-2.71,2.049-3.841s2.135-2.086,3.646-2.865s3.347-1.38,5.502-1.802
				c2.157-0.422,4.683-0.633,7.576-0.633c2.556,0,4.781-0.114,6.68-0.343s3.522-0.539,4.869-0.932
				c1.349-0.393,2.447-0.85,3.297-1.371s1.502-1.075,1.959-1.661c0.118-0.152,0.221-0.308,0.309-0.466s0.161-0.308,0.219-0.448
				c0.06-0.129,0.112-0.234,0.158-0.316c0.048-0.082,0.095-0.123,0.141-0.123c0.083,0,0.145,0.082,0.186,0.246
				s0.061,0.387,0.061,0.668c0,0.398-0.055,0.899-0.166,1.503s-0.311,1.239-0.598,1.907s-0.674,1.339-1.16,2.013
				s-1.107,1.28-1.863,1.819s-1.662,0.976-2.717,1.31s-2.29,0.501-3.709,0.501c-0.879,0-1.689-0.059-2.434-0.176
				s-1.451-0.267-2.119-0.448s-1.312-0.378-1.934-0.589c-0.608-0.199-1.227-0.39-1.854-0.571s-1.271-0.331-1.934-0.448
				s-1.374-0.176-2.137-0.176c-0.784,0-1.347,0.085-1.688,0.255c-0.339,0.17-0.51,0.489-0.51,0.958c0,0.117,0.024,0.24,0.07,0.369
				c0.048,0.141,0.098,0.287,0.15,0.439s0.103,0.311,0.148,0.475c0.048,0.164,0.07,0.34,0.07,0.527c0,0.164-0.028,0.328-0.088,0.492
				c-0.058,0.164-0.154,0.313-0.289,0.448s-0.313,0.243-0.537,0.325c-0.222,0.082-0.497,0.123-0.826,0.123
				c-0.479,0-0.969-0.032-1.467-0.097s-0.979-0.132-1.441-0.202s-0.894-0.141-1.293-0.211c-0.397-0.059-0.738-0.088-1.02-0.088
				c-0.796,0-1.459,0.158-1.986,0.475s-0.975,0.756-1.344,1.318s-0.68,1.239-0.932,2.03s-0.498,1.664-0.738,2.619
				s-0.495,1.972-0.766,3.05c-0.269,1.09-0.603,2.209-1.002,3.357l0.088,0.053c1.371-1.898,2.84-3.571,4.404-5.019
				s3.189-2.66,4.877-3.639s3.423-1.717,5.203-2.215c1.782-0.498,3.581-0.747,5.396-0.747
				C511.949,392.634,513.033,392.733,514.063,392.933z M517.228,422.974c0.118-0.117,0.229-0.258,0.334-0.422
				s0.193-0.346,0.264-0.545s0.105-0.41,0.105-0.633c0-0.34-0.058-0.609-0.176-0.809c0.575-0.375,1.22-0.668,1.934-0.879
				c0.716-0.211,1.401-0.316,2.057-0.316c0.633,0,1.167,0.088,1.6,0.264c0.435,0.176,0.826,0.407,1.178,0.694
				s0.692,0.612,1.02,0.976c0.329,0.363,0.703,0.727,1.125,1.09c0.457,0.41,0.886,0.759,1.283,1.046
				c0.399,0.287,0.745,0.53,1.037,0.729c0.294,0.199,0.525,0.366,0.695,0.501s0.254,0.255,0.254,0.36
				c0,0.094-0.046,0.152-0.141,0.176c-0.093,0.023-0.211,0.035-0.352,0.035c-0.128,0-0.274,0-0.439,0
				c-0.163-0.012-0.345-0.018-0.545-0.018c-0.387,0-0.846,0.035-1.379,0.105s-1.135,0.234-1.803,0.492
				c-0.831,0.328-1.52,0.571-2.064,0.729s-1.034,0.237-1.469,0.237c-0.457,0-0.928-0.111-1.414-0.334s-0.952-0.507-1.398-0.853
				c-0.444-0.346-0.844-0.729-1.195-1.151s-0.626-0.838-0.826-1.248C517.006,423.167,517.111,423.091,517.228,422.974z
				 M527.265,414.519c0,0.164-0.099,0.396-0.299,0.694c-0.198,0.299-0.457,0.612-0.773,0.94s-0.67,0.642-1.063,0.94
				s-0.783,0.536-1.17,0.712c-0.352,0.164-0.705,0.299-1.063,0.404s-0.697,0.188-1.02,0.246s-0.615,0.103-0.879,0.132
				s-0.478,0.044-0.643,0.044c-0.198,0-0.316-0.015-0.352-0.044s-0.053-0.073-0.053-0.132c0-0.176,0.074-0.378,0.221-0.606
				s0.328-0.46,0.545-0.694s0.457-0.46,0.721-0.677s0.513-0.401,0.746-0.554c0.399-0.258,0.766-0.437,1.1-0.536
				s0.645-0.167,0.932-0.202s0.553-0.064,0.799-0.088c0.259-0.012,0.51-0.07,0.756-0.176c0.13-0.047,0.259-0.111,0.387-0.193
				c0.13-0.07,0.256-0.135,0.379-0.193s0.234-0.111,0.334-0.158s0.184-0.07,0.254-0.07
				C527.219,414.308,527.265,414.378,527.265,414.519z M521.534,433.274c-0.116,0-0.327-0.1-0.633-0.299
				c-0.304-0.199-0.626-0.457-0.967-0.773c-0.339-0.316-0.67-0.668-0.992-1.055s-0.572-0.773-0.748-1.16
				c-0.151-0.352-0.277-0.706-0.377-1.063s-0.182-0.697-0.246-1.02s-0.108-0.618-0.133-0.888c-0.022-0.27-0.035-0.486-0.035-0.65
				c0-0.199,0.021-0.316,0.063-0.352s0.096-0.053,0.166-0.053c0.13,0,0.299,0.064,0.51,0.193s0.435,0.302,0.668,0.519
				c0.235,0.217,0.467,0.46,0.695,0.729s0.43,0.545,0.605,0.826c0.271,0.445,0.455,0.838,0.555,1.178s0.166,0.65,0.201,0.932
				s0.065,0.551,0.088,0.809c0.024,0.246,0.101,0.51,0.229,0.791c0.035,0.07,0.083,0.161,0.141,0.272
				c0.06,0.111,0.118,0.226,0.176,0.343c0.07,0.117,0.13,0.229,0.176,0.334c0.048,0.105,0.07,0.188,0.07,0.246
				C521.745,433.228,521.675,433.274,521.534,433.274z M513.845,416.575c-0.158-0.645-0.238-1.289-0.238-1.934
				c0-0.539,0.045-1.008,0.133-1.406s0.254-0.776,0.5-1.134s0.59-0.721,1.029-1.09s1.005-0.794,1.695-1.274
				c0.61-0.422,1.097-0.838,1.459-1.248c0.364-0.41,0.657-0.776,0.879-1.099c0.224-0.322,0.394-0.583,0.51-0.782
				c0.118-0.199,0.235-0.299,0.352-0.299c0.118,0,0.191,0.097,0.221,0.29s0.043,0.466,0.043,0.817c0,0.363,0.007,0.806,0.018,1.327
				c0.013,0.521,0.065,1.11,0.158,1.767c0.048,0.352,0.101,0.674,0.158,0.967c0.06,0.293,0.112,0.568,0.158,0.826
				c0.048,0.258,0.088,0.51,0.123,0.756s0.053,0.492,0.053,0.738c0,0.34-0.035,0.691-0.105,1.055
				c-0.07,0.375-0.225,0.759-0.465,1.151s-0.533,0.773-0.879,1.143s-0.735,0.709-1.17,1.02c-0.433,0.311-0.879,0.56-1.336,0.747
				c-0.128-0.258-0.354-0.478-0.676-0.659s-0.683-0.272-1.082-0.272c-0.409,0-0.714,0.064-0.914,0.193
				C514.211,417.753,514.003,417.22,513.845,416.575z M513.212,423.141c0.111,0.123,0.249,0.237,0.412,0.343
				c0.165,0.105,0.352,0.193,0.563,0.264s0.429,0.105,0.65,0.105c0.329,0,0.593-0.059,0.791-0.176
				c0.376,0.563,0.663,1.198,0.861,1.907c0.2,0.709,0.299,1.392,0.299,2.048c0,0.633-0.088,1.169-0.264,1.608
				s-0.404,0.838-0.686,1.195s-0.603,0.7-0.967,1.028c-0.352,0.328-0.714,0.697-1.09,1.107c-0.422,0.457-0.775,0.885-1.063,1.283
				s-0.53,0.744-0.73,1.037c-0.187,0.293-0.345,0.524-0.475,0.694c-0.128,0.17-0.246,0.255-0.352,0.255
				c-0.093,0-0.151-0.05-0.176-0.149c-0.022-0.1-0.035-0.231-0.035-0.396c0-0.105,0-0.229,0-0.369
				c0.013-0.141,0.018-0.293,0.018-0.457c-0.011-0.398-0.049-0.87-0.113-1.415s-0.231-1.169-0.502-1.872
				c-0.316-0.82-0.556-1.5-0.721-2.039c-0.163-0.539-0.246-1.031-0.246-1.477c0-0.469,0.112-0.949,0.334-1.441
				c0.224-0.492,0.51-0.961,0.861-1.406s0.738-0.844,1.16-1.195s0.833-0.627,1.23-0.826
				C513.021,422.903,513.101,423.018,513.212,423.141z M514.056,419.546c0.252-0.164,0.53-0.246,0.834-0.246
				c0.246,0,0.47,0.044,0.668,0.132c0.2,0.088,0.369,0.208,0.51,0.36s0.253,0.322,0.334,0.51c0.083,0.188,0.123,0.375,0.123,0.563
				c0,0.234-0.043,0.448-0.131,0.642s-0.208,0.36-0.361,0.501c-0.151,0.141-0.324,0.249-0.518,0.325s-0.39,0.114-0.59,0.114
				c-0.468,0-0.846-0.158-1.133-0.475s-0.432-0.686-0.432-1.107c0-0.234,0.042-0.439,0.123-0.615
				C513.613,419.944,513.804,419.71,514.056,419.546z M512.815,418.957c-0.116,0.111-0.23,0.246-0.342,0.404
				s-0.205,0.337-0.281,0.536s-0.115,0.416-0.115,0.65c0,0.164,0.016,0.322,0.045,0.475s0.067,0.281,0.113,0.387
				c-0.573,0.375-1.221,0.662-1.941,0.861s-1.403,0.299-2.049,0.299c-0.633,0-1.165-0.088-1.6-0.264
				c-0.433-0.176-0.826-0.404-1.178-0.686s-0.69-0.604-1.02-0.967c-0.327-0.363-0.696-0.732-1.107-1.107
				c-0.468-0.422-0.901-0.773-1.301-1.055c-0.397-0.281-0.743-0.521-1.037-0.721c-0.292-0.199-0.523-0.36-0.693-0.483
				s-0.256-0.237-0.256-0.343c0-0.094,0.057-0.155,0.168-0.185s0.249-0.044,0.412-0.044c0.118,0,0.246,0.006,0.387,0.018
				c0.141,0,0.299,0,0.475,0c0.399,0,0.865-0.035,1.398-0.105s1.14-0.24,1.818-0.51c0.833-0.316,1.527-0.554,2.084-0.712
				s1.052-0.237,1.484-0.237c0.481,0,0.965,0.114,1.451,0.343s0.949,0.519,1.389,0.87s0.834,0.735,1.186,1.151
				s0.622,0.817,0.809,1.204C513.033,418.772,512.934,418.846,512.815,418.957z M508.632,408.894c0.153,0,0.379,0.105,0.678,0.316
				s0.615,0.478,0.949,0.8s0.653,0.677,0.957,1.063c0.306,0.387,0.54,0.756,0.703,1.107c0.165,0.34,0.297,0.688,0.396,1.046
				s0.179,0.7,0.236,1.028c0.06,0.328,0.101,0.627,0.123,0.896c0.024,0.27,0.035,0.486,0.035,0.65c0,0.199-0.014,0.316-0.043,0.352
				s-0.073,0.053-0.133,0.053c-0.141,0-0.321-0.07-0.545-0.211c-0.222-0.141-0.453-0.316-0.693-0.527s-0.475-0.451-0.703-0.721
				s-0.425-0.539-0.59-0.809c-0.269-0.457-0.453-0.855-0.553-1.195s-0.168-0.65-0.203-0.932s-0.063-0.551-0.088-0.809
				c-0.022-0.246-0.099-0.504-0.229-0.773c-0.022-0.082-0.063-0.176-0.123-0.281c-0.058-0.105-0.116-0.211-0.176-0.316
				c-0.058-0.105-0.107-0.208-0.148-0.308s-0.063-0.185-0.063-0.255C508.421,408.952,508.491,408.894,508.632,408.894z
				 M502.427,427.544c0-0.152,0.104-0.378,0.309-0.677s0.472-0.612,0.799-0.94c0.329-0.328,0.689-0.645,1.082-0.949
				s0.771-0.545,1.133-0.721c0.341-0.152,0.686-0.281,1.037-0.387s0.686-0.19,1.002-0.255s0.607-0.108,0.871-0.132
				s0.482-0.035,0.658-0.035c0.211,0,0.334,0.018,0.369,0.053s0.053,0.088,0.053,0.158c0,0.141-0.066,0.319-0.201,0.536
				s-0.313,0.442-0.537,0.677c-0.222,0.234-0.465,0.469-0.729,0.703s-0.53,0.428-0.801,0.58c-0.457,0.281-0.857,0.469-1.203,0.563
				s-0.66,0.158-0.941,0.193s-0.55,0.064-0.809,0.088c-0.246,0.023-0.503,0.094-0.773,0.211c-0.07,0.035-0.158,0.082-0.264,0.141
				c-0.093,0.059-0.198,0.117-0.316,0.176c-0.116,0.059-0.225,0.108-0.324,0.149s-0.186,0.062-0.256,0.062
				C502.479,427.737,502.427,427.673,502.427,427.544z"/>
		</g>
	</g>
</g>
</svg>
