<?xml version="1.0" encoding="UTF-8"?>
<svg xmlns="http://www.w3.org/2000/svg" xmlns:xlink="http://www.w3.org/1999/xlink" width="24pt" height="31pt" viewBox="0 0 24 31" version="1.1">
<g id="surface1">
<path style=" stroke:none;fill-rule:nonzero;fill:rgb(0%,0%,0%);fill-opacity:1;" d="M 23.335938 11.027344 C 23.332031 10.378906 22.855469 9.898438 22.210938 9.84375 C 22.054688 9.832031 21.894531 9.828125 21.742188 9.820312 C 21.648438 8.910156 21.484375 8.660156 21.019531 8.652344 C 20.546875 8.644531 20.359375 8.925781 20.269531 9.835938 C 19.332031 9.835938 18.417969 9.847656 17.507812 9.828125 C 17.390625 9.824219 17.246094 9.695312 17.171875 9.585938 C 16.632812 8.816406 16.101562 8.039062 15.582031 7.257812 C 15.429688 7.027344 15.253906 6.9375 14.976562 6.9375 C 13.1875 6.949219 11.398438 6.949219 9.609375 6.9375 C 9.3125 6.933594 9.128906 7.039062 8.972656 7.28125 C 8.46875 8.039062 7.941406 8.785156 7.441406 9.546875 C 7.292969 9.769531 7.132812 9.847656 6.871094 9.84375 C 5.476562 9.832031 4.085938 9.839844 2.691406 9.839844 C 1.667969 9.839844 1.21875 10.285156 1.21875 11.304688 C 1.214844 14.777344 1.214844 18.246094 1.214844 21.71875 C 1.214844 22.757812 1.664062 23.199219 2.714844 23.199219 C 7.152344 23.199219 11.59375 23.199219 16.03125 23.199219 C 18.035156 23.199219 20.042969 23.203125 22.050781 23.199219 C 22.8125 23.195312 23.335938 22.722656 23.335938 22.011719 C 23.34375 18.347656 23.34375 14.6875 23.335938 11.027344 Z M 21.839844 22.5 C 18.65625 22.5 15.476562 22.5 12.292969 22.5 C 9.125 22.5 5.957031 22.5 2.789062 22.5 C 2.03125 22.5 1.933594 22.40625 1.933594 21.660156 C 1.933594 18.214844 1.933594 14.769531 1.929688 11.328125 C 1.929688 10.667969 2.058594 10.539062 2.714844 10.539062 C 4.203125 10.539062 5.691406 10.53125 7.179688 10.546875 C 7.488281 10.546875 7.683594 10.449219 7.855469 10.191406 C 8.34375 9.441406 8.867188 8.707031 9.363281 7.957031 C 9.503906 7.742188 9.652344 7.644531 9.921875 7.648438 L 14.632812 7.648438 C 14.890625 7.648438 15.054688 7.71875 15.199219 7.941406 C 15.699219 8.703125 16.230469 9.449219 16.730469 10.210938 C 16.890625 10.457031 17.078125 10.546875 17.371094 10.542969 C 18.886719 10.53125 20.402344 10.539062 21.917969 10.539062 C 22.492188 10.539062 22.640625 10.6875 22.640625 11.269531 C 22.644531 14.742188 22.644531 18.214844 22.644531 21.683594 C 22.644531 22.375 22.523438 22.5 21.839844 22.5 Z M 21.839844 22.5 "/>
<path style=" stroke:none;fill-rule:nonzero;fill:rgb(0%,0%,0%);fill-opacity:1;" d="M 12.347656 11.757812 C 9.742188 11.730469 7.535156 13.832031 7.515625 16.363281 C 7.492188 19.113281 9.539062 21.238281 12.242188 21.269531 C 14.898438 21.300781 17.03125 19.195312 17.054688 16.527344 C 17.074219 13.925781 14.960938 11.785156 12.347656 11.757812 Z M 12.175781 20.574219 C 9.96875 20.535156 8.160156 18.65625 8.214844 16.460938 C 8.273438 14.203125 10.109375 12.421875 12.332031 12.460938 C 14.601562 12.503906 16.402344 14.351562 16.363281 16.597656 C 16.324219 18.835938 14.449219 20.617188 12.175781 20.574219 Z M 12.175781 20.574219 "/>
<path style=" stroke:none;fill-rule:nonzero;fill:rgb(0%,0%,0%);fill-opacity:1;" d="M 10.695312 10.535156 C 11.214844 10.542969 11.730469 10.535156 12.25 10.535156 C 12.785156 10.535156 13.316406 10.539062 13.847656 10.535156 C 14.292969 10.527344 14.472656 10.355469 14.480469 9.921875 C 14.488281 9.484375 14.488281 9.050781 14.484375 8.613281 C 14.476562 8.167969 14.308594 7.992188 13.863281 7.992188 C 12.8125 7.988281 11.761719 7.988281 10.710938 7.992188 C 10.253906 7.992188 10.074219 8.179688 10.066406 8.640625 C 10.058594 9.0625 10.058594 9.484375 10.070312 9.90625 C 10.078125 10.34375 10.261719 10.527344 10.695312 10.535156 Z M 10.796875 8.679688 C 11.667969 8.679688 12.480469 8.679688 13.296875 8.679688 C 13.433594 8.679688 13.566406 8.695312 13.738281 8.703125 C 13.738281 9.078125 13.738281 9.433594 13.738281 9.816406 C 12.761719 9.816406 11.785156 9.816406 10.796875 9.816406 C 10.796875 9.441406 10.796875 9.089844 10.796875 8.679688 Z M 10.796875 8.679688 "/>
<path style=" stroke:none;fill-rule:nonzero;fill:rgb(0%,0%,0%);fill-opacity:1;" d="M 12.292969 13.546875 C 10.644531 13.570312 9.304688 14.921875 9.304688 16.402344 C 9.304688 16.648438 9.355469 16.851562 9.644531 16.855469 C 9.902344 16.859375 9.976562 16.6875 10 16.449219 C 10.148438 15.132812 10.859375 14.40625 12.164062 14.246094 C 12.417969 14.214844 12.671875 14.167969 12.601562 13.859375 C 12.566406 13.707031 12.347656 13.597656 12.292969 13.546875 Z M 12.292969 13.546875 "/>
</g>
</svg>
