<svg xmlns="http://www.w3.org/2000/svg" width="32" height="31pt" viewBox="0 0 24 31"><path d="M23.336 11.027c-.004-.648-.48-1.129-1.125-1.183-.156-.012-.316-.016-.469-.024-.094-.91-.258-1.16-.722-1.168-.473-.007-.66.274-.75 1.184-.938 0-1.852.012-2.762-.008-.117-.004-.262-.133-.336-.242-.54-.77-1.07-1.547-1.59-2.328-.152-.23-.328-.32-.605-.32-1.79.011-3.579.011-5.368 0-.296-.004-.48.101-.636.343-.504.758-1.032 1.504-1.532 2.266-.148.223-.308.3-.57.297-1.394-.012-2.785-.004-4.18-.004-1.023 0-1.472.445-1.472 1.465-.004 3.472-.004 6.941-.004 10.414 0 1.039.45 1.48 1.5 1.48H16.03c2.004 0 4.012.004 6.02 0 .762-.004 1.285-.476 1.285-1.187.008-3.664.008-7.325 0-10.985zM21.84 22.5H2.789c-.758 0-.855-.094-.855-.84 0-3.445 0-6.89-.004-10.332 0-.66.129-.789.785-.789 1.488 0 2.976-.008 4.465.008.308 0 .504-.098.675-.356.489-.75 1.012-1.484 1.508-2.234.14-.215.29-.312.559-.309h4.71c.259 0 .423.07.567.293.5.762 1.031 1.508 1.531 2.27.16.246.348.336.641.332 1.516-.012 3.031-.004 4.547-.004.574 0 .723.149.723.73.004 3.473.004 6.946.004 10.415 0 .691-.122.816-.805.816zm0 0"/><path d="M12.348 11.758c-2.606-.028-4.813 2.074-4.832 4.605-.024 2.75 2.023 4.875 4.726 4.907 2.656.03 4.79-2.075 4.813-4.743.02-2.601-2.094-4.742-4.707-4.77zm-.172 8.816c-2.207-.039-4.016-1.918-3.961-4.113.058-2.258 1.894-4.04 4.117-4 2.27.043 4.07 1.89 4.031 4.137-.039 2.238-1.914 4.02-4.187 3.976zm-1.481-10.039c.52.008 1.035 0 1.555 0 .535 0 1.066.004 1.598 0 .445-.008.625-.18.632-.613a47.6 47.6 0 00.004-1.309c-.007-.445-.175-.62-.62-.62a423.91 423.91 0 00-3.153 0c-.457 0-.637.187-.645.648-.007.421-.007.843.004 1.265.008.438.192.621.625.63zm.102-1.855h2.5c.137 0 .27.015.441.023v1.113h-2.941V8.68zm0 0"/><path d="M12.293 13.547c-1.648.023-2.988 1.375-2.988 2.855 0 .246.05.45.34.453.257.004.332-.168.355-.406.148-1.316.86-2.043 2.164-2.203.254-.031.508-.078.438-.387-.036-.152-.254-.261-.309-.312zm0 0"/></svg>