<svg xmlns="http://www.w3.org/2000/svg" width="612" height="792"><path fill="none" d="M92.892 299.047h424.926v194.212H92.892V299.047z"/><path fill-rule="evenodd" clip-rule="evenodd" d="M299.015 389.605c-2.051 4.499-.842 11.727 3.018 14.015 3.014 1.784 6.316 3.124 9.579 4.438 8.511 3.424 17.07 6.729 25.32 9.965.098-.772.444-2.229.444-3.692-.001-4.322-.758-8.381-5.313-10.34-5.402-2.332-10.891-4.471-16.288-6.816-5.543-2.411-11.017-4.968-16.76-7.57z"/><path d="M510.122 266.796c.379 2.965-1.298 5.667-3.98 7.997-13.563 11.694-27.095 23.442-40.656 35.136-28.603 24.68-57.222 49.341-85.832 74.011l-4.46 3.846-17.207-19.955c-15.626-18.123-31.479-36.065-46.77-54.461-5.867-7.043-13.605-10.356-21.469-13.833-4.829-2.133-9.79-3.977-14.757-5.976 5.676-10.715 5.275-22.152 5.911-34.435l3.665 4.25 76.072 88.221c5.93 6.877 19.492 7.872 26.351 1.958 27.251-23.482 54.485-46.981 81.728-70.472l4.077-3.516c-3.573-1.562-6.569-3.192-9.765-4.095-1.112-.313-2.954.926-4.076 1.893a17259.56 17259.56 0 00-65.673 56.597c-5.703 4.949-12.117 4.5-16.673 1.098-1.181-.89-2.232-2.94-2.151-4.395.767-12.905 1.754-25.794 2.751-38.691a2208.79 2208.79 0 012.285-28.018c.628-7.109 1.122-14.245 2.173-21.306 1.523-10.202-4.653-22.05-14.502-25.007-3.476-1.042-8.347-.404-11.559 1.348-3.89 2.129-7.264 5.85-9.829 9.588-3.398 4.966-5.813 10.611-8.74 16.124 1.049-16.838 2.093-33.608 3.18-51.194 11.409 4.951 21.87 9.431 32.279 14.051 15.906 7.068 21.266 18.65 20.015 34.867-.879 11.539-2.258 23.033-3.264 34.554-.859 9.662 8.429 18.811 18.073 17.603 2.197-.273 4.482-1.735 6.241-3.235 13.759-11.688 27.399-23.531 41.08-35.327 4.578-3.948 10.146-4.057 15.678-1.385 9.457 4.551 19.02 8.946 28.833 12.618 3.065 1.16 7.077-.217 10.971-.459zM338.13 384.969c9.35 4.739 12.184 13.41 11.51 22.992-1.674 23.546-3.956 47.029-5.918 70.554-1.037 12.407-6.253 22.661-15.607 30.807-1.543 1.346-3.456 2.28-5.896 3.859 2.366-5.555 4.676-9.884 6.042-14.496 1.739-5.857 3.09-11.889 3.922-17.932.975-7.059 1.153-14.209 1.755-21.312.397-4.684 1.246-9.344 1.284-14.02.041-3.327-2.083-6.123-5.47-6.51-8.147-.91-16.358-1.304-24.551-1.936-5.034-.397-10.091-.712-15.109-1.331-5.128-.618-10.53-7.473-10.202-12.845 1.164-18.973 2.448-37.954 3.597-56.944.25-3.952.108-7.933.786-11.905 4.88 8.021 12.476 11.314 20.15 14.794 11.361 5.137 22.578 10.603 33.707 16.225zm-53.609 75.088c.364.274.729.532 1.093.807-1.712 2.827-2.847 6.287-5.206 8.384-15.763 13.974-31.527 27.965-47.831 41.292-7.915 6.459-10.071 14.6-10.639 23.898-.424 7.124-.797 14.252-1.434 21.353-.67 7.447-1.738 14.84-2.45 22.275-.804 8.454-8.032 14.4-16.65 13.849-11.559-.735-23.134-1.011-34.669-1.83-8.486-.602-16.94-1.628-25.38-2.73-4.161-.547-6.425-3.873-6.555-7.546-.225-6.549.434-13.144.826-19.715.195-3.333.569-6.661.918-10 .154-1.389.444-2.768.674-4.143.463-.034.919-.077 1.383-.111.403 1.593.771 3.199 1.2 4.785 1.5 5.465 1.508 11.818 8.434 14.004.667.221 1.334.552 2.022.594 17.833 1.225 35.668 2.398 53.499 3.657 2.939.201 4.334-.652 4.598-3.869.852-10.594 2.503-21.145 2.834-31.751.238-7.377-5.441-11.751-11.339-14.902-4.789-2.565-9.829-5.423-14.878-3.295.25-7.529.498-14.932.757-23.059 6.318 2.773 12.148 4.887 17.543 7.787 7.99 4.306 10.591 3.892 19.189-4.651-2.549-4.1-14.52-8.024-22.65-7.661.385-7.392.782-14.843 1.175-22.354 8.932 3.572 17.818 7.073 26.654 10.681 2.478 1.012 4.82 2.363 7.247 3.499 3.194 1.491 5.884 1.033 8.357-1.704 1.795-1.993 4.039-3.578 7.167-6.275-12.896-3.208-22.84-12.252-35.712-11.043.516-7.314 1.037-14.713 1.578-22.494 4.809 1.943 10.016 3.926 15.13 6.131 6.952 2.99 13.784 6.211 20.727 9.192 4.917 2.105 10.088 3.641 14.849 6.008 5.807 2.895 11.466 4.073 17.539.937z"/><path d="M193.211 441.87c6.256 1.539 9.26 5.723 9.638 12.966.057 1.191.037 2.386.051 3.121-6.409.866-12.389 1.714-18.372 2.483-3.431.446-6.287-1.703-6.093-5.13.33-5.389 1.187-10.739 1.81-16.047 4.621.915 8.84 1.585 12.966 2.607zm-29.741-7.732c7.832.784 9.743 6.229 10.802 12.582.235 1.324.341 2.664.453 3.569-6.132 1.058-11.785 1.988-17.42 3.015-5.201.939-7.212-.969-7.119-6.265.083-5.271-.279-10.54-.454-16.146 6.056 1.473 9.848 2.846 13.738 3.245zm10.083 27.959c1.859.607 4.267 1.998 4.857 3.604 1.458 3.959 1.994 8.251 2.689 11.437-5.634.787-10.86 1.365-16.008 2.274-7.717 1.358-9.819-.581-8.694-8.405.573-3.945 1.131-7.908 1.731-11.86.063-.388.43-.736.566-.966 5.289 1.355 10.156 2.389 14.859 3.916z"/><g fill="none" stroke="#FFF" stroke-miterlimit="10"><path d="M375.193 387.786l-17.207-19.955c-15.626-18.123-31.479-36.065-46.77-54.461-5.867-7.043-13.605-10.356-21.469-13.833-4.829-2.133-9.79-3.977-14.757-5.976 5.676-10.715 5.275-22.152 5.911-34.435l3.665 4.25 76.072 88.221c5.93 6.877 19.492 7.872 26.351 1.958 27.251-23.482 54.485-46.981 81.728-70.472l4.077-3.516c-3.573-1.562-6.569-3.192-9.765-4.095-1.112-.313-2.954.926-4.076 1.893a17259.56 17259.56 0 00-65.673 56.597c-5.703 4.949-12.117 4.5-16.673 1.098-1.181-.89-2.232-2.94-2.151-4.395.767-12.905 1.754-25.794 2.751-38.691a2208.79 2208.79 0 012.285-28.018c.628-7.109 1.122-14.245 2.173-21.306 1.523-10.202-4.653-22.05-14.502-25.007-3.476-1.042-8.347-.404-11.559 1.348-3.89 2.129-7.264 5.85-9.829 9.588-3.398 4.966-5.813 10.611-8.74 16.124 1.049-16.838 2.093-33.608 3.18-51.194 11.409 4.951 21.87 9.431 32.279 14.051 15.906 7.068 21.266 18.65 20.015 34.867-.879 11.539-2.258 23.033-3.264 34.554-.859 9.662 8.429 18.811 18.073 17.603 2.197-.273 4.482-1.735 6.241-3.235 13.759-11.688 27.399-23.531 41.08-35.327 4.578-3.948 10.146-4.057 15.678-1.385 9.457 4.551 19.02 8.946 28.833 12.618 3.065 1.157 7.077-.22 10.972-.461.379 2.965-1.298 5.667-3.98 7.997-13.563 11.694-27.095 23.442-40.656 35.136-28.603 24.68-57.222 49.341-85.832 74.011a3753.273 3753.273 0 01-4.461 3.848zM184.972 515.062c.25-7.529.498-14.932.757-23.059 6.318 2.773 12.148 4.887 17.543 7.787 7.99 4.306 10.591 3.892 19.189-4.651-2.549-4.1-14.52-8.024-22.65-7.661.385-7.392.782-14.843 1.175-22.354 8.932 3.572 17.818 7.073 26.654 10.681 2.478 1.012 4.82 2.363 7.247 3.499 3.194 1.491 5.884 1.033 8.357-1.704 1.795-1.993 4.039-3.578 7.167-6.275-12.896-3.208-22.84-12.252-35.712-11.043.516-7.314 1.037-14.713 1.578-22.494 4.809 1.943 10.016 3.926 15.13 6.131 6.952 2.99 13.784 6.211 20.727 9.192 4.917 2.105 10.088 3.641 14.849 6.008 5.806 2.896 11.465 4.075 17.538.938.364.274.729.532 1.093.807-1.712 2.827-2.847 6.287-5.206 8.384-15.763 13.974-31.527 27.965-47.831 41.292-7.915 6.459-10.071 14.6-10.639 23.898-.424 7.124-.797 14.252-1.434 21.353-.67 7.447-1.738 14.84-2.45 22.275-.804 8.454-8.032 14.4-16.65 13.849-11.559-.735-23.134-1.011-34.669-1.83-8.486-.602-16.94-1.628-25.38-2.73-4.161-.547-6.425-3.873-6.555-7.546-.225-6.549.434-13.144.826-19.715.195-3.333.569-6.661.918-10 .154-1.389.444-2.768.674-4.143.463-.034.919-.077 1.383-.111.403 1.593.771 3.199 1.2 4.785 1.5 5.465 1.508 11.818 8.434 14.004.667.221 1.334.552 2.022.594 17.833 1.225 35.668 2.398 53.499 3.657 2.939.201 4.334-.652 4.598-3.869.852-10.594 2.503-21.145 2.834-31.751.238-7.377-5.441-11.751-11.339-14.902-4.787-2.567-9.827-5.424-14.877-3.296zm137.247-1.881c2.366-5.555 4.676-9.884 6.042-14.496 1.739-5.857 3.09-11.889 3.922-17.932.975-7.059 1.153-14.209 1.755-21.312.397-4.684 1.246-9.344 1.284-14.02.041-3.327-2.083-6.123-5.47-6.51-8.147-.91-16.358-1.304-24.551-1.936-5.034-.397-10.091-.712-15.109-1.331-5.128-.618-10.53-7.473-10.202-12.845 1.164-18.973 2.448-37.954 3.597-56.944.25-3.952.108-7.933.786-11.905 4.88 8.021 12.476 11.314 20.15 14.794 11.361 5.135 22.578 10.601 33.707 16.223 9.35 4.739 12.184 13.41 11.51 22.992-1.674 23.546-3.956 47.029-5.918 70.554-1.037 12.407-6.253 22.661-15.607 30.807-1.544 1.347-3.457 2.282-5.896 3.861zm-147.494-62.892c-6.132 1.058-11.785 1.988-17.42 3.015-5.201.939-7.212-.969-7.119-6.265.083-5.271-.279-10.54-.454-16.146 6.056 1.473 9.848 2.846 13.738 3.244 7.832.784 9.743 6.229 10.802 12.582.235 1.325.341 2.665.453 3.57zm-16.03 7.891c5.288 1.356 10.155 2.391 14.858 3.917 1.859.607 4.267 1.998 4.857 3.604 1.458 3.959 1.994 8.251 2.689 11.437-5.634.787-10.86 1.365-16.008 2.274-7.717 1.358-9.819-.581-8.694-8.405.573-3.945 1.131-7.908 1.731-11.86.063-.389.431-.738.567-.967z"/><path d="M202.9 457.957c-6.409.866-12.389 1.714-18.372 2.483-3.431.446-6.287-1.703-6.093-5.13.33-5.389 1.187-10.739 1.81-16.047 4.62.914 8.84 1.584 12.965 2.606 6.256 1.539 9.26 5.723 9.638 12.966.058 1.192.038 2.387.052 3.122z"/></g><path fill="#F9F9FA" d="M332.062 403.988c4.559 1.968 5.318 6.021 5.314 10.35.003 1.46-.345 2.92-.444 3.689-8.248-3.239-16.807-6.545-25.323-9.967-3.267-1.318-6.566-2.655-9.576-4.448-3.862-2.284-5.069-9.512-3.012-14.005 5.742 2.602 11.214 5.15 16.749 7.566 5.411 2.348 10.896 4.486 16.292 6.815z"/></svg>