<svg xmlns="http://www.w3.org/2000/svg" width="349pt" height="128" viewBox="0 0 349 96"><g fill-rule="evenodd"><path d="M238.7 2.29c-1.243 1.26-2.329 2.358-2.407 2.437-1.531 1.511-2.398 2.402-2.652 2.726-.176.219-1.055 1.16-1.957 2.086-.899.93-1.633 1.746-1.633 1.82 0 .075-.067.133-.149.133-.175 0-2.906 2.707-2.906 2.883 0 .066-.164.21-.363.316-.985.528-.059 1.38.945.871.16-.078.422-.21.578-.289a1.52 1.52 0 01.582-.144c.16 0 .293-.066.293-.149 0-.078.094-.144.211-.144.117 0 .52-.164.895-.363.375-.2.77-.364.879-.364.109 0 .195-.066.195-.144 0-.082.2-.149.437-.149.243 0 .438-.062.438-.144 0-.078.195-.145.434-.145.242 0 .437-.066.437-.144 0-.082.195-.145.438-.145.238 0 .433-.066.433-.148 0-.078.227-.145.5-.145.277 0 .543-.066.594-.144.121-.2 4.871-.2 4.871 0 0 .078.195.144.434.144.242 0 .437.067.437.145 0 .082.133.148.293.148.16 0 .29.063.29.145 0 .078.097.144.218.144.117 0 .219.067.219.145 0 .082.066.144.148.144.234 0 .953.797 1.176 1.297.11.246.25.45.308.45.063 0 .11.128.11.285 0 .152.066.32.148.37.078.052.145.216.145.372s.066.281.144.281c.082 0 .145.262.145.582 0 .32.066.582.144.582.09 0 .149.68.149 1.746 0 1.067-.059 1.746-.149 1.746-.078 0-.144.196-.144.438 0 .238-.063.433-.145.433-.078 0-.144.133-.144.293 0 .16-.067.29-.145.29-.082 0-.148.105-.148.23a.736.736 0 01-.18.422 15.24 15.24 0 00-.617.73c-.242.293-.91 1.02-1.492 1.614-.578.59-1.055 1.125-1.055 1.187 0 .063-.176.242-.39.402-.622.461-2.954 2.809-2.954 2.973 0 .086-.09.152-.195.152-.11 0-1.055.836-2.098 1.856a468.23 468.23 0 01-2.75 2.664 45.214 45.214 0 00-1.379 1.383 77.524 77.524 0 01-1.816 1.816 72.546 72.546 0 00-1.504 1.492c-.121.137-.855.864-1.637 1.618-.78.757-1.418 1.425-1.418 1.492 0 .066-.175.25-.39.41-.621.46-2.953 2.805-2.953 2.973 0 .082-.063.152-.137.152-.125 0-2.68 2.492-3.219 3.14a12.52 12.52 0 01-.8.801c-.712.653-1.372 1.399-1.372 1.551 0 .063-.129.211-.289.324-.16.117-.293.36-.293.543 0 .18-.062.332-.144.332-.082 0-.145.407-.145.934 0 .516.067.976.145 1.027.082.051.144.219.144.375 0 .153.067.281.149.281.078 0 .144.165.144.364 0 .199.067.363.145.363.078 0 .144.086.144.191 0 .282.95 1.262 1.22 1.262.132 0 .237.067.237.149 0 .078.098.144.215.144.121 0 .219.063.219.145 0 .082.16.144.355.144.196 0 .395.067.446.145.05.082.277.148.508.148.23 0 .46.063.511.145.059.093 6.645.144 19.285.144 20.106 0 19.614-.011 19.614.57 0 .086.05.157.11.157.062 0 .226.261.362.582.141.32.317.582.399.582.078 0 .144.16.144.355 0 .196.067.395.149.446.078.05.144.218.144.37 0 .157.063.286.145.286.078 0 .144.098.144.219 0 .191-2.691.214-23.34.214-15.46 0-23.34-.046-23.34-.144 0-.078-.32-.145-.718-.145-.395 0-.754-.058-.797-.129-.043-.066-.453-.308-.914-.535-.465-.226-.969-.53-1.121-.672-.156-.148-.356-.265-.442-.265-.085 0-.253-.13-.367-.29-.117-.16-.265-.292-.332-.292-.207 0-.832-.703-.832-.938 0-.125-.066-.226-.144-.226-.082 0-.149-.098-.149-.215 0-.121-.062-.219-.144-.219-.078 0-.145-.133-.145-.293 0-.16-.066-.289-.144-.289-.082 0-.149-.133-.149-.293 0-.16-.062-.289-.144-.289-.078 0-.145-.191-.145-.43 0-.234-.066-.468-.144-.515-.098-.059-.145-8.918-.145-26.106 0-27.199.012-26.476-.5-26.476-.285 0-1.973 1.543-1.973 1.804 0 .141-3.921 4.012-4.062 4.012-.07 0-.477.328-.902.727-.43.398-.848.726-.93.726-.082 0-.246.133-.36.293-.117.16-.328.293-.468.293s-.258.063-.258.145c0 .078-.133.144-.293.144-.16 0-.29.051-.293.11 0 .129-.703.472-.973.472-.101 0-.187.067-.187.145 0 .082-.137.148-.3.148-.349 0-.716.32-.716.621 0 .246.895 2.047 1.051 2.118.063.027.11.171.11.328 0 .152.066.277.148.277.078 0 .144.129.144.29 0 .163.094.292.215.292.137 0 .219.137.219.363 0 .2.066.364.148.364.079 0 .145.132.145.289 0 .164.066.293.144.293.083 0 .145.132.145.289 0 .16.066.293.148.293.079 0 .145.129.145.293 0 .156.062.289.144.289.083 0 .145.129.145.289 0 .16.066.293.145.293.082 0 .148.125.148.281 0 .156.063.324.145.371.078.05.144.219.144.375 0 .152.066.281.145.281.082 0 .148.133.148.29 0 .16.063.292.145.292.078 0 .144.121.144.27 0 .348.418 1.183.594 1.183.074 0 .133.196.133.43 0 .235.066.469.144.516.082.05.149.285.149.52 0 .234.062.425.144.425.078 0 .145.227.145.5 0 .277.066.543.144.594.082.047.145.406.145.797 0 .39.066.754.148.8.094.06.145 7.395.145 21.54v21.445h37.074c24.559 0 37.101-.05 37.16-.149.05-.078.219-.144.375-.144.152 0 .281-.066.281-.145 0-.082.067-.144.149-.144.242 0 1.16-.902 1.16-1.14 0-.259-.844-1.044-1.117-1.044-.106 0-.192-.066-.192-.144 0-.082-.117-.145-.261-.145-.141 0-.352-.133-.465-.293-.117-.16-.297-.289-.403-.289-.265 0-1.199-.96-1.199-1.234 0-.121-.066-.223-.144-.223-.082 0-.145-.066-.145-.152 0-.082-.23-.508-.512-.95-.277-.437-.507-.859-.507-.937a.143.143 0 00-.145-.14c-.082 0-.144-.133-.144-.294 0-.16-.067-.289-.149-.289-.078 0-.144-.132-.144-.293 0-.16-.067-.289-.145-.289-.082 0-.144-.129-.144-.28 0-.157-.067-.325-.145-.376-.082-.047-.148-.215-.148-.37 0-.157-.067-.282-.145-.282-.078 0-.144-.133-.144-.293 0-.16-.067-.29-.145-.29-.082 0-.148-.132-.148-.292 0-.16-.063-.29-.145-.29-.078 0-.145-.132-.145-.292 0-.16-.066-.29-.144-.29-.082 0-.145-.12-.145-.273a.677.677 0 00-.218-.453.666.666 0 01-.22-.445c0-.149-.065-.305-.144-.356-.082-.05-.148-.218-.148-.37 0-.157-.066-.286-.145-.286-.078 0-.144-.129-.144-.289 0-.16-.067-.293-.145-.293-.082 0-.148-.129-.148-.289 0-.16-.063-.293-.145-.293-.078 0-.144-.195-.144-.434 0-.242-.067-.437-.145-.437-.082 0-.148-.164-.148-.363 0-.2-.063-.364-.145-.364-.078 0-.144-.132-.144-.293 0-.16-.067-.289-.145-.289-.082 0-.148-.132-.148-.289 0-.164-.063-.293-.145-.293-.078 0-.144-.113-.144-.254-.004-.316-1.926-2.218-2.242-2.218-.125 0-.23-.067-.23-.145 0-.082-.294-.144-.653-.144-.36 0-.656-.067-.656-.149 0-.094-4.266-.144-12.504-.144-8.243 0-12.508-.051-12.508-.145 0-.082-.196-.144-.434-.144-.242 0-.437-.067-.437-.149 0-.078-.098-.144-.215-.144-.344 0-2.106-1.91-2.11-2.29 0-.101-.07-.183-.148-.183-.078 0-.144-.125-.144-.281a.827.827 0 00-.22-.5c-.245-.242-.327-3.934-.09-4.078.071-.043.31-.454.532-.91.543-1.11 1.211-1.864 3.469-3.903.441-.398.805-.809.809-.91.003-.098.097-.18.207-.18.113 0 1.191-.968 2.402-2.148 1.207-1.18 2.617-2.54 3.133-3.016.515-.48.941-.926.945-.988.012-.137 1.273-1.414 1.402-1.414.168 0 1.078-1.067 1.078-1.266 0-.101.067-.187.145-.187.082 0 .148-.082.148-.188 0-.101.13-.281.29-.394.16-.117.292-.328.292-.47 0-.14.051-.257.118-.257.062 0 .207-.23.316-.512.11-.277.254-.507.32-.507.063 0 .118-.157.118-.348 0-.191.097-.387.218-.434a.36.36 0 00.22-.304c0-.125.054-.34.124-.48.254-.497.453-1.302.453-1.798 0-.277.07-.574.156-.66.262-.262-.015-4.453-.312-4.77-.074-.074-.133-.257-.133-.41 0-.238-.496-1.46-.883-2.175a1.233 1.233 0 01-.136-.473c0-.121-.063-.219-.145-.219-.078 0-.144-.16-.144-.355 0-.195-.067-.399-.145-.445-.082-.051-.144-.22-.144-.376 0-.152-.067-.28-.149-.28-.078 0-.144-.13-.144-.29 0-.16-.067-.293-.145-.293-.082 0-.145-.164-.145-.363 0-.2-.066-.363-.148-.363-.078 0-.144-.13-.144-.29 0-.16-.067-.292-.145-.292-.082 0-.145-.133-.145-.29 0-.16-.066-.292-.144-.292-.082 0-.149-.094-.149-.215 0-.293-.464-1.239-.609-1.239-.062 0-.117-.128-.117-.28 0-.157-.066-.325-.145-.376-.082-.05-.144-.215-.144-.37 0-.157-.067-.282-.149-.282-.078 0-.144-.133-.144-.293 0-.16-.067-.29-.145-.29-.078 0-.144-.132-.144-.292 0-.16-.067-.29-.149-.29-.078 0-.144-.132-.144-.292 0-.16-.067-.29-.145-.29-.078 0-.144-.128-.144-.28 0-.157-.067-.325-.149-.375-.078-.047-.144-.215-.144-.372 0-.156-.063-.28-.145-.28-.078 0-.144-.134-.144-.294 0-.16-.067-.289-.145-.289-.082 0-.148-.133-.148-.293 0-.16-.063-.289-.145-.289-.078 0-.144-.133-.144-.293 0-.16-.059-.289-.13-.289-.073 0-.171-.164-.222-.363-.05-.2-.152-.363-.234-.363-.078 0-.14-.133-.14-.293 0-.16-.067-.29-.145-.29-.082 0-.149-.097-.149-.218 0-.157-.16-.219-.578-.219-.559 0-.672.094-2.84 2.29M116.625 22.87c0 .172-.367.66-1.02 1.367-.16.172-.289.352-.289.403 0 .047-.261.355-.582.687-.32.328-.582.656-.582.73 0 .075-.148.294-.328.481-.18.191-.59.648-.906 1.02-.32.37-.73.832-.91 1.023-.18.191-.328.45-.328.566 0 .122-.067.258-.145.305-.207.129-.18 1.324.035 1.703.235.41.79.989.946.989.062 0 .21.132.328.292.113.16.324.29.469.29.14 0 .257.066.257.144 0 .082.102.149.227.149.121 0 .363.128.535.289.172.16.398.293.504.293.102 0 .187.058.187.132 0 .075.145.184.317.239.176.054.45.222.61.37.16.153.378.274.484.274.105 0 .191.067.191.145 0 .082.102.148.223.148.125 0 .367.13.535.29.172.16.398.292.504.292.105 0 .191.067.191.145 0 .078.129.144.293.144.156 0 .29.067.29.145 0 .082.097.148.218.148.117 0 .219.063.219.145 0 .078.261.144.582.144.484 0 .578-.047.578-.289 0-.16.066-.293.148-.293.078 0 .145-.129.145-.289 0-.16.066-.293.144-.293.082 0 .145-.129.145-.289 0-.16.066-.293.148-.293.078 0 .145-.129.145-.289 0-.16.062-.293.144-.293.082 0 .145-.097.145-.219 0-.117.066-.214.144-.214.082 0 .149-.133.149-.293 0-.16.062-.29.144-.29.079 0 .145-.124.145-.277 0-.152.098-.312.219-.36.304-.116.308-2.097.004-2.5-.118-.155-.215-.398-.22-.538 0-.137-.07-.254-.148-.254-.082 0-.144-.117-.144-.258 0-.14-.133-.352-.293-.469-.16-.113-.29-.277-.29-.36 0-.081-.19-.37-.425-.644-.23-.273-.512-.668-.617-.87-.188-.364-.39-.626-1.102-1.415-.18-.195-.328-.426-.328-.504 0-.082-.133-.285-.289-.457-.164-.172-.293-.398-.293-.504 0-.105-.066-.191-.144-.191-.082 0-.145-.07-.145-.156 0-.278-.406-.57-.793-.57-.203 0-.371.081-.371.18m-5.594 11.675c-.457.437-.894.797-.972.797-.239 0-3.47 3.316-3.47 3.558 0 .125-.054.227-.12.227-.274 0-.461 1.09-.278 1.605.2.543 1.293 1.739 1.598 1.739.106 0 .285.132.402.289.114.16.325.293.47.293.14 0 .257.066.257.148 0 .082.227.258.508.39.281.134.508.298.508.36 0 .067.117.121.261.121.14 0 .352.13.465.29.117.16.297.292.403.292.105 0 .332.13.503.29.172.16.399.288.504.288.106 0 .192.067.192.149 0 .078.097.144.218.144.122 0 .22.067.22.145 0 .082.112.144.257.144.14 0 .352.133.469.293.16.223.375.29.902.29.598 0 .695-.04.695-.29 0-.16.067-.293.149-.293.078 0 .144-.129.144-.289 0-.16.067-.293.145-.293a.149.149 0 00.144-.152c0-.086.165-.371.364-.633.199-.261.363-.55.363-.644 0-.094.066-.168.148-.168.079 0 .145-.13.145-.282 0-.156.066-.324.145-.375.078-.046.144-.25.144-.445s.066-.355.148-.355c.079 0 .145-.387.145-.871 0-.485-.066-.871-.144-.871-.083 0-.149-.165-.149-.36 0-.52-.469-1.332-1.27-2.187-.183-.192-.328-.422-.328-.508 0-.086-.132-.301-.293-.473-.16-.172-.289-.394-.289-.5 0-.105-.066-.191-.144-.191-.082 0-.149-.086-.149-.188 0-.101-.129-.281-.289-.394-.16-.117-.293-.282-.293-.367 0-.09-.117-.29-.265-.446a6.01 6.01 0 01-.524-.683c-.441-.672-1.043-.551-2.039.406m12.137.07c-.441.473-.883.86-.98.867-.286.012-3.297 3.078-3.575 3.633-.504 1.012.227 3.063 1.086 3.063.114 0 .301.133.414.293.117.16.305.289.414.289.114 0 .313.117.442.258.242.265 1.402 1.054 1.547 1.054.046 0 .222.13.394.29.172.16.399.292.504.292.106 0 .191.063.191.145 0 .078.098.144.22.144.116 0 .214.067.214.145 0 .082.098.144.219.144.12 0 .219.067.219.149 0 .078.132.144.289.144.16 0 .293.067.293.145 0 .082.097.144.218.144s.22.067.22.149c0 .078.128.144.288.144.16 0 .293.067.293.145 0 .082.164.144.367.144.39 0 1.375-.855 1.375-1.199 0-.105.133-.285.293-.398.16-.117.29-.328.29-.469 0-.145.058-.258.124-.258.176 0 .602-1.164.602-1.636 0-.211.078-.56.176-.77.132-.293.132-.441 0-.66-.098-.153-.176-.496-.176-.766 0-.523-.371-1.406-.59-1.406-.074 0-.137-.117-.137-.258 0-.144-.129-.355-.289-.469-.16-.113-.293-.312-.293-.437s-.129-.32-.289-.434c-.16-.117-.293-.297-.293-.398 0-.102-.062-.184-.144-.184-.078 0-.145-.09-.145-.195 0-.11-.289-.52-.644-.91-.356-.395-.86-.957-1.13-1.254-.695-.774-1.034-.719-2.007.32m56.566 1.02c-.199.234-.437.43-.53.43-.09.003-.368.234-.614.515s-.488.508-.535.508c-.13 0-3.645 3.61-4.106 4.219a8.06 8.06 0 01-.883.945c-.27.242-.597.559-.726.707-.133.148-2.563 2.61-5.403 5.465-2.84 2.86-5.332 5.418-5.542 5.695-.211.274-.782.899-1.274 1.395-.488.492-.89.996-.89 1.125s-.067.23-.145.23c-.078 0-.145.2-.145.438 0 .242-.066.437-.144.437-.18 0-.2 3.238-.024 3.602.067.136.278.578.47.98.296.625 1.769 2.27 3.71 4.145.863.832 7.094 7.21 8.137 8.328.617.664 1.008 2.437.535 2.437-.059 0-.273.262-.469.582-.199.317-.41.578-.472.578-.059 0-.114.082-.114.184 0 .098-.238.379-.523.617-.723.606-2.527 2.367-2.527 2.473 0 .105-.98 1.09-1.086 1.09-.149 0-2.258 2.175-2.258 2.328 0 .078-.098.148-.215.148-.23 0-.8.489-2.402 2.07-.547.54-1.036.985-1.079.985-.093 0-.445.281-1.218.98-.29.258-.582.473-.657.473-.07 0-.312.195-.539.434-.222.242-.468.437-.546.437-.075 0-.38.23-.68.512-.297.277-.617.508-.715.508-.094 0-.27.129-.383.289-.117.16-.312.293-.437.293s-.32.129-.438.289c-.113.16-.324.293-.469.293-.14 0-.257.062-.257.144 0 .082-.13.145-.29.145-.16 0-.292.066-.292.144 0 .082-.098.149-.215.149-.121 0-.219.066-.219.144 0 .078-.133.145-.293.145-.16 0-.289.066-.289.144 0 .082-.106.149-.234.149-.262 0-1.7.734-1.778.906-.027.063-.207.11-.402.11-.191 0-.348.066-.348.148 0 .078-.105.144-.23.144-.324 0-.645.36-.645.73v.317l4.281-.05c3.176-.04 4.333-.098 4.465-.235a.808.808 0 01.489-.18c.168 0 .367-.05.441-.117.078-.062.402-.203.723-.312a6.59 6.59 0 001.125-.54c.297-.187.61-.34.695-.34.086 0 .293-.132.465-.292.172-.16.398-.29.504-.29.105 0 .191-.066.191-.148 0-.078.098-.144.219-.144s.426-.195.676-.438c.25-.238.511-.433.578-.433.195 0 1.582-1.203 1.582-1.371 0-.114.976-1.102 1.086-1.102.105 0 1.965-1.863 1.965-1.965 0-.129 1.293-1.383 1.425-1.383.067 0 .844-.703 1.73-1.562.884-.86 1.993-1.934 2.462-2.387a63.552 63.552 0 001.535-1.527 63.517 63.517 0 011.773-1.723c.602-.558 1.098-1.07 1.102-1.133.008-.136.684-.828.805-.828.144 0 2.257-2.175 2.257-2.328 0-.078.086-.148.192-.148.23 0 6.207-6.004 6.207-6.235 0-.09.066-.164.144-.164.082 0 .145-.105.145-.238 0-.129.121-.344.27-.473.359-.316 1.039-1.558 1.039-1.902 0-.152.058-.316.128-.36.32-.195.602-4.066.32-4.347-.085-.086-.155-.402-.155-.7 0-.3-.067-.585-.149-.636-.078-.047-.144-.215-.144-.371s-.063-.281-.145-.281c-.078 0-.144-.11-.144-.242 0-.329-.465-1.36-.61-1.36-.066 0-.117-.16-.117-.355 0-.196-.066-.395-.149-.446-.078-.047-.144-.214-.144-.37 0-.157-.063-.282-.145-.282-.078 0-.144-.129-.144-.281 0-.156-.066-.324-.145-.375-.082-.047-.148-.242-.148-.434 0-.191-.063-.387-.145-.437-.078-.051-.144-.22-.144-.371 0-.157-.067-.286-.145-.286-.082 0-.148-.125-.148-.28 0-.157-.063-.325-.145-.372-.078-.05-.144-.25-.144-.445 0-.196-.067-.356-.145-.356-.082 0-.144-.097-.144-.215 0-.117-.121-.425-.27-.69a4.496 4.496 0 01-.363-.876c-.059-.219-.164-.398-.246-.398-.074 0-.14-.133-.14-.293 0-.16-.067-.29-.145-.29-.082 0-.145-.101-.145-.222s-.058-.332-.129-.473a9.274 9.274 0 01-.308-.687 12.135 12.135 0 00-.309-.692 1.266 1.266 0 01-.129-.468c0-.125-.062-.223-.144-.223-.082 0-.145-.133-.145-.29 0-.16-.066-.292-.144-.292-.082 0-.149-.125-.149-.281 0-.157-.062-.325-.144-.371-.078-.051-.145-.22-.145-.375 0-.157-.066-.282-.144-.282-.082 0-.149-.078-.149-.168 0-.273-.48-1.285-.61-1.285-.062 0-.116-.133-.116-.293 0-.16-.067-.289-.145-.289-.078 0-.144-.164-.144-.363 0-.203-.067-.367-.145-.367-.082 0-.148-.196-.148-.434 0-.242-.063-.437-.145-.437-.078 0-.145-.16-.145-.356 0-.195-.066-.394-.144-.445-.082-.047-.145-.281-.145-.516 0-.234-.062-.43-.136-.43-.254 0-.41-2.882-.227-4.18l.11-.765-.422.004c-.278.004-.54.149-.782.434m-44.453 7.89c-.332.34-1.054 1.055-1.597 1.586-.547.535-1.22 1.207-1.5 1.496-.282.29-1.082 1.082-1.782 1.762-1.433 1.399-1.617 1.875-.87 2.258.566.293 2.363 2.16 2.363 2.457 0 .082.062.152.144.152.078 0 .145.13.145.29 0 .16.066.292.144.292.082 0 .145.13.145.29 0 .16.066.288.148.288.078 0 .145.133.145.293 0 .16.066.29.144.29.082 0 .145.132.145.292 0 .16.066.29.148.29.078 0 .145.132.145.292 0 .16.066.29.144.29.082 0 .145.164.145.363 0 .199.066.363.144.363.082 0 .149.102.149.223 0 .238.695 1.691.867 1.816.055.04.191.285.305.543.113.262.257.473.316.473.062 0 .11.133.11.293 0 .16.066.289.144.289.082 0 .148.133.148.293 0 .16.067.289.145.289.078 0 .144.125.144.281 0 .152.051.3.114.324.187.082.777 1.172.687 1.262-.047.047-.215.008-.367-.09-.34-.21-1.887-.238-1.887-.031 0 .082-.414.144-.945.144-.535 0-.945-.062-.945-.144 0-.078-.094-.145-.207-.145-.254 0-.957-.687-1.235-1.214-.113-.211-.262-.387-.328-.387s-.121-.13-.121-.29c0-.16-.066-.292-.145-.292-.082 0-.144-.13-.144-.29 0-.16-.066-.292-.149-.292-.078 0-.144-.13-.144-.29 0-.16-.066-.292-.145-.292-.082 0-.144-.16-.144-.364 0-.199-.066-.363-.149-.363-.078 0-.144-.129-.144-.289 0-.16-.063-.293-.145-.293-.082 0-.144-.129-.144-.289 0-.16-.067-.293-.145-.293-.082 0-.148-.094-.148-.21 0-.298-.465-1.243-.61-1.243-.062 0-.117-.129-.117-.293 0-.156-.066-.289-.144-.289-.082 0-.145-.164-.145-.363 0-.2-.066-.364-.144-.364-.082 0-.149-.132-.149-.293 0-.16-.066-.289-.144-.289-.078 0-.145-.132-.145-.289 0-.164-.066-.293-.144-.293-.082 0-.149-.132-.149-.289 0-.16-.062-.293-.144-.293-.078 0-.145-.09-.145-.203 0-.113-.195-.578-.437-1.031-.239-.457-.434-.922-.434-1.035 0-.114-.055-.203-.117-.203-.063 0-.238-.293-.387-.657-.148-.359-.324-.652-.39-.652-.07 0-.125-.133-.125-.293 0-.156-.067-.289-.145-.289-.082 0-.148-.129-.148-.293 0-.156-.063-.289-.145-.289-.078 0-.144-.133-.144-.29 0-.378-.973-.429-1.118-.062-.046.13-1.52 1.672-3.265 3.426-3.121 3.14-3.508 3.645-2.938 3.864.418.16 2.23 1.808 2.23 2.027 0 .074.134.23.294.344.156.117.289.296.289.402 0 .105.133.332.289.504.16.172.293.398.293.504 0 .105.066.191.144.191.082 0 .145.098.145.219s.058.336.129.473c.07.14.195.418.273.617.266.683.54 1.234.867 1.777.184.3.332.578.332.621 0 .04-1.097.07-2.437.07l-2.434-.003-.875-1.75a195.52 195.52 0 00-1.015-2.036c-.078-.152-.192-.28-.254-.28-.059 0-.11-.13-.11-.29 0-.16-.066-.293-.144-.293-.082 0-.149-.129-.149-.289 0-.16-.066-.293-.144-.293-.078 0-.145-.129-.145-.289 0-.16-.066-.293-.144-.293-.082 0-.149-.129-.149-.289 0-.16-.062-.293-.144-.293-.078 0-.145-.16-.145-.363 0-.2-.066-.364-.144-.364-.082 0-.149-.128-.149-.289 0-.16-.062-.293-.144-.293-.078 0-.145-.128-.145-.289 0-.16-.066-.293-.144-.293-.082 0-.149-.128-.149-.289 0-.16-.062-.289-.144-.289-.078 0-.145-.133-.145-.293 0-.16-.097-.289-.218-.289-.137 0-.22-.14-.22-.367 0-.2-.062-.363-.144-.363-.078 0-.144-.13-.144-.29 0-.558-.871-.386-1.496.298-.297.32-.54.652-.54.73 0 .16-.656.863-.8.863-.094 0-1.063.996-2.91 2.989a47.108 47.108 0 01-1.489 1.558c-.543.508-.207 1.27.559 1.27.312 0 1.879 1.508 1.879 1.808 0 .125.055.23.125.23s.207.212.305.474c.265.699.46 1.167.601 1.453.074.136.129.351.129.472s.063.336.133.477c.176.332.594 1.758.594 2.012 0 .113.066.203.148.203.086 0 .145.53.145 1.308s-.06 1.309-.145 1.309c-.082 0-.148.074-.148.16 0 .785-3.207 4.32-7.18 7.914-.442.399-.805.774-.809.828-.011.145-.726.844-.863.844-.063 0-.602.457-1.191 1.016-1.61 1.515-.754 2.101-9.149-6.25-4.02-4-7.336-7.274-7.37-7.274-.08 0-1.255-1.219-1.83-1.89-.218-.258-.401-.56-.401-.672 0-.11-.063-.203-.145-.203-.078 0-.144-.196-.144-.434 0-.242-.067-.438-.145-.438-.082 0-.145-.257-.145-.574 0-.316.063-.613.145-.664.078-.047.145-.281.145-.515 0-.235.066-.43.144-.43.082 0 .145-.13.145-.29 0-.16.05-.292.109-.292.144 0 .621-.84.621-1.09 0-.105.047-.215.11-.242.152-.07 1.054-1.867 1.054-2.106 0-.11.063-.199.145-.199.21 0 .168-.754-.059-1.055-.289-.379-.82-.296-1.457.227-.922.762-6.484 6.332-6.484 6.496 0 .082-.07.152-.153.152-.187 0-2.316 2.153-2.316 2.34 0 .114-.227.426-.656.91-.543.61-.657.989-.657 2.204 0 1.328.106 1.605.91 2.457.22.234.403.48.403.55 0 .07.21.348.469.618.261.265.734.8 1.054 1.187.735.883 3.035 3.164 3.711 3.676.278.21.899.8 1.38 1.305.48.507 1.12 1.16 1.425 1.457.305.293 1.559 1.515 2.793 2.714 2.785 2.711 4.148 4 4.238 4 .04 0 .735.672 1.551 1.493.813.824 1.66 1.585 1.883 1.699.219.11.398.258.398.324s.16.121.356.121c.195 0 .394.067.445.145.047.082.246.144.434.144.191 0 .386.067.437.145.05.082.703.148 1.465.148.816 0 1.371-.058 1.371-.148 0-.078.227-.145.5-.145s.54-.062.59-.144c.05-.079.219-.145.371-.145.156 0 .285-.066.285-.144 0-.082.098-.149.215-.149.121 0 .219-.062.219-.144 0-.079.101-.145.226-.145.22 0 .938-.621.938-.809 0-.12 1.058-1.074 1.199-1.078.18-.007 2.438-2.097 2.438-2.257 0-.153.402-.512.57-.512.086 0 .156-.067.156-.145 0-.078.063-.144.145-.144.234 0 2.472-2.04 2.472-2.258 0-.113.387-.508.5-.508.149 0 2.844-2.754 2.844-2.906 0-.082.07-.149.156-.149.082 0 .77-.636 1.524-1.418.754-.777 1.484-1.535 1.629-1.68.695-.714 1.851-1.698 1.992-1.698.09 0 .258-.133.37-.293.118-.16.298-.29.403-.29.106 0 .27-.066.367-.148.497-.418 1.313-.871 1.563-.871.156 0 .285-.066.285-.145 0-.082.195-.144.438-.144.238 0 .437-.066.437-.148 0-.079.324-.145.727-.145.398 0 .726-.066.726-.145 0-.093 1.043-.144 2.836-.144s2.836.05 2.836.144c0 .094 2.445.145 7.05.145 4.606 0 7.056-.05 7.056-.145 0-.093 1.668-.144 4.714-.144 2.989 0 4.75-.055 4.809-.149.05-.078.281-.144.516-.144.238 0 .43-.055.43-.117 0-.067.331-.211.734-.32.406-.114.77-.254.808-.32.043-.063.2-.114.356-.114.226 0 .281-.102.281-.508 0-.598-.371-1.094-.816-1.094-.36 0-1.442-.527-1.864-.91-.156-.14-.34-.254-.41-.254-.168 0-.398-.242-.832-.87-.195-.282-.398-.544-.453-.583-.172-.129-1.148-2.05-1.148-2.266 0-.113-.067-.207-.149-.207-.078 0-.144-.132-.144-.293 0-.16-.067-.289-.145-.289-.078 0-.144-.164-.144-.363 0-.2-.067-.363-.149-.363-.078 0-.144-.133-.144-.293 0-.16-.063-.29-.145-.29-.078 0-.144-.132-.144-.292 0-.16-.067-.29-.145-.29-.082 0-.148-.132-.148-.292 0-.16-.063-.29-.145-.29-.078 0-.145-.077-.145-.167 0-.094-.164-.383-.363-.645-.199-.261-.363-.547-.363-.633 0-.086-.066-.156-.145-.156-.082 0-.148-.129-.148-.289 0-.16-.063-.293-.145-.293-.078 0-.144-.129-.144-.289 0-.16-.067-.293-.145-.293-.082 0-.148-.129-.148-.289 0-.16-.063-.293-.145-.293-.078 0-.144-.098-.144-.219 0-.12-.059-.332-.13-.472a7.75 7.75 0 01-.269-.617 15.6 15.6 0 00-.453-.997c-.172-.343-.312-.722-.312-.836 0-.109-.063-.203-.145-.203-.082 0-.144-.132-.144-.289 0-.16-.059-.293-.13-.293-.073 0-.171-.164-.222-.363-.05-.2-.156-.363-.234-.363-.078 0-.14-.133-.14-.293 0-.16-.067-.29-.15-.29-.077 0-.144-.16-.144-.355 0-.195-.062-.394-.144-.445-.082-.05-.145-.219-.145-.371 0-.156-.066-.281-.144-.281-.082 0-.149-.133-.149-.293 0-.16-.062-.29-.144-.29-.078 0-.145-.093-.145-.203 0-.183-.297-.785-1.973-3.98-.304-.578-.605-1.055-.671-1.055-.067 0-.118-.129-.118-.289 0-.16-.066-.293-.148-.293-.078 0-.145-.156-.145-.347 0-.329-.242-.528-.629-.524-.093 0-.445.281-.78.617m40.433 9.164c.37.739.676 1.426.676 1.528 0 .101.066.18.144.18.082 0 .145.132.145.292 0 .16.066.29.148.29.078 0 .145.132.145.292 0 .16.066.29.144.29.082 0 .145.132.145.292 0 .16.066.29.144.29.082 0 .149.128.149.285 0 .152.066.32.144.37.078.048.145.216.145.372s.066.281.144.281c.082 0 .149.133.149.293 0 .16.062.29.144.29.078 0 .145.132.145.292 0 .16.066.29.144.29.082 0 .145.132.145.292 0 .16.058.29.133.29.07 0 .172.163.218.362.051.2.157.364.235.364.078 0 .144.09.144.199 0 .238.899 2.035 1.055 2.105.059.028.11.168.11.32 0 .15.062.31.144.36.078.047.144.215.144.371 0 .157.067.282.145.282.082 0 .148.132.148.292 0 .16.063.29.145.29.078 0 .144.16.144.355 0 .195.067.395.145.445.082.051.145.375.145.727 0 .351-.063.68-.145.726-.078.051-.145.25-.145.446 0 .195-.066.355-.144.355-.082 0-.145.106-.145.23 0 .126-.265.481-.582.79-.32.308-.582.629-.582.715 0 .332-.41.136-.582-.278-.101-.242-.238-.437-.308-.437s-.13-.133-.13-.293c0-.16-.066-.29-.144-.29-.082 0-.148-.097-.148-.218s-.063-.219-.145-.219c-.078 0-.144-.129-.144-.289 0-.16-.067-.293-.145-.293-.082 0-.144-.129-.144-.289 0-.16-.067-.293-.149-.293-.078 0-.144-.164-.144-.363 0-.2-.067-.363-.145-.363-.078 0-.144-.13-.144-.29 0-.16-.067-.292-.149-.292-.078 0-.144-.13-.144-.29 0-.16-.063-.292-.145-.292-.078 0-.144-.13-.144-.29 0-.16-.067-.292-.145-.292-.082 0-.148-.13-.148-.29 0-.16-.063-.293-.145-.293-.078 0-.144-.09-.144-.199 0-.11-.098-.281-.22-.383a.66.66 0 01-.218-.453c0-.148-.062-.273-.144-.273-.082 0-.145-.129-.145-.29 0-.16-.066-.292-.144-.292-.083 0-.149-.13-.149-.29 0-.16-.062-.292-.144-.292-.079 0-.145-.13-.145-.29 0-.16-.066-.292-.144-.292-.083 0-.149-.13-.149-.29 0-.16-.062-.292-.144-.292-.079 0-.145-.13-.145-.29 0-.16-.055-.292-.117-.292-.067 0-.211-.227-.32-.508-.11-.281-.25-.508-.317-.508-.066 0-.117-.101-.117-.219 0-.12-.125-.5-.281-.836-.61-1.359-.637-1.613-.282-2.648.18-.523.38-.953.442-.953.066 0 .12-.098.12-.223 0-.203 1.122-1.488 1.321-1.512.051-.003.395.594.766 1.336" fill="#fcfcfc"/><path d="M36.598 47.805c-.157.156-.114 1.941.047 1.941.082 0 .144.262.144.582 0 .32.066.582.145.582.082 0 .148.149.148.332 0 .18.129.426.29.54.16.116.292.292.292.394 0 .293 1.332 1.644 1.625 1.644.145 0 .266.063.266.145 0 .078.129.144.289.144.16 0 .293.067.293.145 0 .082.148.144.332.144.183 0 .398.063.472.133.079.074.465.168.868.215.398.047 1.043.125 1.43.176.44.058.765.031.866-.07.086-.09.57-.16 1.075-.16.515 0 .918-.067.918-.145 0-.082.222-.149.5-.149.273 0 .539-.062.59-.144.05-.078.277-.145.507-.145.23 0 .461-.066.512-.144.047-.082.281-.145.516-.145.234 0 .43-.058.43-.125 0-.164 2.21-.347 2.695-.226.277.07.347.156.27.332-.395.875-.071 2.054.566 2.054.12 0 .25.083.285.18.074.223 1.535.195 1.761-.031.083-.082.79-.149 1.567-.149h1.418l.515.532c.286.293.516.617.516.726 0 .11.066.196.149.196.078 0 .144.164.144.363 0 .203.066.363.145.363.082 0 .144.262.144.582 0 .32.067.582.149.582.078 0 .144.258.144.574 0 .317.066.614.145.664.156.094.207.653.058.653-.047 0-.27-.195-.496-.434-.223-.242-.445-.437-.496-.437-.05 0-.312-.215-.582-.473-.914-.89-1.547-1.418-1.695-1.418-.078 0-.285-.133-.457-.293-.172-.16-.43-.289-.575-.289-.148 0-.265-.05-.265-.11-.004-.132-.707-.472-.973-.472-.105 0-.191-.066-.191-.144 0-.083-.13-.149-.29-.149-.16 0-.292-.062-.292-.144 0-.079-.192-.145-.426-.145-.234 0-.469-.066-.52-.145-.046-.082-.273-.148-.504-.148-.226 0-.44-.074-.468-.164-.18-.531-5.867-.54-6.043-.012-.035.098-.313.176-.63.176-.312 0-.57.066-.57.148 0 .079-.195.145-.437.145-.238 0-.434.066-.434.145 0 .082-.132.144-.292.144-.16 0-.29.066-.29.149 0 .078-.164.144-.363.144-.2 0-.363.066-.363.145 0 .082-.09.144-.195.144-.11 0-.84.328-1.625.73-.786.399-1.516.727-1.622.727-.109 0-.195.059-.195.133 0 .074-.195.176-.437.23-.239.051-.434.157-.434.23 0 .071-.133.134-.293.134-.16 0-.289.066-.289.144 0 .082-.195.145-.437.145-.239 0-.438.066-.438.148 0 .078-.262.145-.582.145-.316 0-.578.066-.578.144 0 .082-.438.145-1.02.145-.582 0-1.02-.063-1.02-.145 0-.078-.163-.144-.366-.144-.664 0-1.293-.817-2.168-2.801-.133-.3-.301-.547-.38-.547-.073 0-.136-.129-.136-.289 0-.16-.066-.293-.145-.293-.082 0-.148-.125-.148-.277 0-.278-1.21-1.614-1.465-1.614-.523 0-1.152-1.054-1.152-1.941 0-.863-.11-1.113-.5-1.113-.426 0-.809.433-.809.922 0 .214-.07.386-.152.386-.3 0-.059 3.59.297 4.438.066.16.21.504.316.765.106.258.242.473.301.473.063 0 .113.082.113.18 0 .101.164.336.364.523.199.192.363.438.363.547 0 .113.062.203.144.203.078 0 .145.074.145.164 0 .172.55.711.726.711.055 0 .293.16.524.364.23.199.539.363.676.363.14 0 .258.062.258.144 0 .082.195.145.433.145.242 0 .438.066.438.144 0 .082.226.149.507.149.282 0 .508.062.508.144 0 .086.582.145 1.446.145.808 0 1.488-.063 1.539-.145.046-.082.246-.144.441-.144.2 0 .355.062.355.144 0 .078-.097.145-.222.145a.357.357 0 00-.305.219c-.047.12-.207.218-.36.218-.152 0-.277.067-.277.145 0 .082-.129.144-.289.144-.16 0-.289.067-.289.149 0 .078-.133.144-.293.144-.16 0-.289.067-.289.145 0 .078-.133.145-.293.145-.16 0-.289.066-.289.148 0 .078-.164.144-.363.144-.2 0-.363.067-.363.145 0 .078-.2.145-.438.145s-.437.066-.437.148c0 .078-.192.144-.426.144-.235 0-.469.063-.52.145-.05.086-.941.145-2.18.145-1.238 0-2.128-.059-2.179-.145-.05-.082-.246-.144-.438-.144-.19 0-.386-.067-.437-.145-.05-.082-.215-.148-.371-.148s-.281-.067-.281-.145c0-.078-.133-.145-.293-.145-.16 0-.29-.066-.29-.144 0-.082-.117-.148-.261-.148-.14 0-.352-.13-.465-.29-.117-.16-.305-.293-.418-.293-.11 0-.309-.117-.437-.261-.133-.149-.45-.39-.711-.543-.258-.153-.473-.328-.473-.39 0-.169 1.566-.138 1.676.03.265.434 1.09.157 1.09-.367 0-.55-.786-1.523-1.23-1.523-.126 0-.227-.063-.227-.145 0-.078-.125-.144-.278-.144-.152 0-.3-.07-.332-.157-.027-.085-.328-.19-.664-.234-.34-.047-.613-.113-.613-.148 0-.102.402-.48.512-.48.136 0 1.085-1.044 1.085-1.188 0-.125.407-.602 1.5-1.746.532-.563.688-.829.653-1.121l-.043-.383-2.145-.04c-1.265-.023-2.144-.097-2.144-.18 0-.206-1.711-.179-1.778.024a.17.17 0 01-.218.11c-.117-.04-.106-.219.031-.617.11-.313.215-1.16.238-1.895l.043-1.328-.554-.047c-.56-.043-1.11.262-1.11.621 0 .09-.129.258-.289.371-.16.117-.293.328-.293.469 0 .145-.062.258-.144.258-.079 0-.149.18-.149.402-.008.473-.426 1.09-.535.793a1.128 1.128 0 00-.281-.367c-.117-.094-.371-.32-.563-.5-.191-.18-.449-.328-.574-.328-.121 0-.223-.063-.223-.145 0-.078-.132-.144-.293-.144-.16 0-.289-.067-.289-.145 0-.082-.132-.148-.293-.148-.16 0-.289-.063-.289-.145 0-.078-.097-.144-.218-.144-.122 0-.22-.067-.22-.145 0-.082-.097-.144-.218-.144-.117 0-.219-.067-.219-.149 0-.078-.07-.144-.156-.144-.09 0-.344-.196-.57-.438-.453-.484-.649-.531-.953-.226-.235.234-.286 1.246-.063 1.246.09 0 .145.8.145 2.11 0 1.308.054 2.108.144 2.108.082 0 .145.137.145.305 0 .242-.055.281-.254.188-.14-.063-.778-.141-1.418-.172-.637-.032-1.242-.121-1.344-.203-.367-.309-.91-.008-.91.504 0 .71 1.215 1.851 1.969 1.851.117 0 .215.066.215.145 0 .082.19.144.425.144.625 0 .649.195.078.668-.277.234-.503.512-.503.621 0 .11-.165.328-.364.485-.203.156-.363.347-.363.43 0 .077-.395.527-.875 1-.48.468-.871.921-.871 1.007 0 .086-.07.152-.156.152s-.133.18-.11.403l.047.398 1.887.043c1.039.02 1.953.102 2.031.18.2.203 1.922.176 2.258-.035.156-.098.332-.121.398-.051.063.066.036.152-.066.187-.125.043-.184.442-.184 1.29 0 .718-.058 1.222-.144 1.222-.078 0-.145.328-.145.727v.73h.485c.472 0 1.261-.637 1.261-1.02 0-.077.063-.144.145-.144.078 0 .144-.098.144-.219 0-.12.067-.218.145-.218.082 0 .145-.13.145-.29 0-.16.066-.292.148-.292.078 0 .148-.309.156-.692.008-.379.047-.597.094-.484.11.281 1.309 1.469 1.48 1.469.075 0 .329.18.563.398.516.488 1.875 1.64 2.234 1.895.426.308.852-.055.852-.73 0-.302-.067-.548-.145-.548-.082 0-.144-.433-.144-1.008 0-.554.062-1.05.144-1.101.078-.047.145-.512.145-1.028 0-1.105-.043-1.082.71-.351.329.32.66.582.74.582.073 0 .288.144.472.324.183.18.511.422.73.535.223.114.403.262.403.328 0 .067.128.122.289.122.16 0 .293.062.293.144 0 .078.125.145.28.145.157 0 .325.066.372.144.05.082.21.149.36.149.144 0 .304.097.347.218.047.118.203.215.352.215.144 0 .328.059.402.133.324.3 3.527.547 4.281.324a8.537 8.537 0 011.063-.222l.554-.07-.43.39c-.73.668-1.035.902-1.187.902a.14.14 0 00-.14.145c0 .078-.07.144-.153.144-.082 0-.375.215-.652.473-.278.262-.73.687-1.012.945-.277.262-.57.473-.652.473-.082 0-.153.066-.153.144 0 .082-.082.149-.18.149-.1 0-.41.195-.69.433-.282.243-.579.438-.66.438-.083 0-.243.133-.36.293-.114.156-.324.289-.465.289-.145 0-.262.055-.262.121 0 .07-.226.246-.508.398-.28.153-.507.325-.507.387 0 .063-.086.114-.192.114-.105 0-.332.128-.504.289-.172.16-.41.293-.535.293-.125 0-.223.062-.223.144 0 .078-.132.145-.293.145-.16 0-.289.066-.289.144 0 .082-.128.149-.285.149-.152 0-.32.062-.37.144-.052.078-.216.145-.372.145s-.281.054-.281.12c0 .063-.332.208-.738.321-.407.11-.77.25-.81.316-.038.063-.26.118-.487.118-.235 0-.457.054-.5.125-.043.07-.418.16-.836.199-.422.039-.785.148-.817.238-.07.203-3.52.23-3.52.027 0-.074-.148-.175-.327-.226-.88-.246-2.29-1.41-2.29-1.89 0-.122-.066-.22-.148-.22-.078 0-.144-.199-.144-.437s-.067-.437-.145-.437c-.082 0-.144-.383-.144-.864 0-.476-.067-.906-.149-.953-.078-.05-.144-.312-.144-.582 0-.27-.067-.531-.145-.582-.082-.05-.144-.219-.144-.379 0-.156-.098-.324-.22-.367-.12-.047-.218-.211-.218-.36 0-.152-.066-.277-.144-.277-.083 0-.145-.129-.145-.289 0-.16-.066-.293-.148-.293-.079 0-.145-.195-.145-.437 0-.239.066-.434.145-.434.082 0 .148-.098.148-.219 0-.12.062-.218.144-.218.079 0 .145-.262.145-.582 0-.559-.02-.582-.473-.582-.48 0-1.273.53-1.273.855 0 .09-.066.164-.145.164-.078 0-.144.129-.144.29 0 .16-.067.292-.145.292-.082 0-.148.125-.148.281 0 .157-.063.325-.145.371-.082.055-.144.778-.144 1.684 0 .965.058 1.59.144 1.59.082 0 .145.195.145.437 0 .239.066.438.148.438.078 0 .145.203.145.45 0 .378-.043.433-.254.335-.813-.367-3.09-.07-3.09.406 0 .063-.098.118-.219.118-.234 0-.52.21-1.433 1.078l-.602.566-.05 1.434c-.032.847.007 1.43.09 1.43.206 0 .906-.739.906-.958 0-.101.128-.23.289-.277.16-.05.289-.156.289-.23 0-.075.492-.137 1.093-.137.63 0 1.09-.059 1.09-.145 0-.078.258-.144.574-.144.313 0 .614-.067.66-.145.051-.082.512-.144 1.028-.144.527 0 .937.062.937.144 0 .078.149.145.329.145.28 0 .527.152 1.375.87a.732.732 0 00.398.15c.125 0 .227.062.227.144 0 .078.129.144.289.144.16 0 .289.067.289.145 0 .082.129.144.285.144.152 0 .32.067.371.149.05.078.277.144.508.144.23 0 .46.067.511.145.051.086.965.148 2.25.148 1.29 0 2.204-.062 2.258-.148.047-.078.38-.145.735-.145s.644-.066.644-.144c0-.082.196-.149.43-.149.234 0 .469-.062.516-.144.05-.078.246-.145.437-.145s.387-.066.434-.144c.05-.082.218-.145.375-.145.156 0 .28-.066.28-.148 0-.078.126-.145.282-.145a.807.807 0 00.496-.219c.121-.117.324-.218.45-.218.124 0 .226-.051.226-.117 0-.067.23-.207.512-.317.277-.11.508-.254.508-.32 0-.063.128-.117.289-.117.16 0 .293-.067.293-.145 0-.082.128-.144.289-.144.16 0 .293-.059.293-.125 0-.067.293-.274.652-.457.36-.188.656-.391.656-.454 0-.058.121-.148.274-.195.363-.117.886-.582.886-.789 0-.09.102-.164.22-.164.202 0 .542-.23 1.042-.707.113-.11.254-.152.313-.09.054.059.02.14-.082.176-.098.035-.18.223-.18.414 0 .195-.067.352-.149.352-.078 0-.144.117-.148.253-.004.141-.102.383-.219.54-.117.152-.215.43-.215.609 0 .18-.062.367-.144.418-.078.047-.145.246-.145.433 0 .192-.066.387-.144.438-.082.05-.149.281-.149.52 0 .234-.062.425-.144.425-.078 0-.145.133-.145.293 0 .16-.066.29-.144.29-.082 0-.145.1-.145.226 0 .293-1.441 1.738-1.863 1.875-.176.055-.32.16-.32.234 0 .074-.196.137-.434.137-.242 0-.437.066-.437.144 0 .09-.704.149-1.82.149-1.114 0-1.817-.059-1.817-.149 0-.082-.406-.144-.934-.144-.617 0-.953-.063-.992-.18-.043-.129-.46-.183-1.418-.183-.957 0-1.375.054-1.418.183-.031.098-.285.18-.559.18-.269 0-.496.066-.496.144 0 .082-.101.149-.226.149-.375 0-1.953 1.71-1.953 2.117 0 .195-.067.356-.145.356-.281 0-.176 1.957.125 2.304.426.492 1.035.317 1.035-.3 0-.141.059-.262.13-.262.07 0 .16-.114.195-.254.222-.852 2.015-1.07 5.058-.617 1.758.261 3.36.332 3.535.156.086-.086.39-.156.676-.16.578 0 1.527-.297 1.785-.555a.69.69 0 01.43-.168c.144 0 .262-.066.262-.144 0-.082.097-.149.218-.149.122 0 .22-.062.22-.144 0-.079.097-.145.218-.145.117 0 .215-.066.215-.144 0-.082.07-.149.156-.149.195 0 .863-.668.863-.863a.15.15 0 01.145-.153c.082 0 .144-.097.144-.218s.067-.219.149-.219c.078 0 .144-.098.144-.219 0-.12.067-.219.145-.219.082 0 .144-.128.144-.289 0-.16.059-.293.125-.293.067 0 .239-.277.38-.617.14-.34.312-.73.386-.87a1.65 1.65 0 00.129-.618c0-.2.066-.367.144-.367.082 0 .149-.258.149-.57 0-.317.062-.614.144-.665.079-.05.145-.312.145-.582 0-.27.066-.53.144-.582.082-.05.149-.246.149-.437 0-.188.062-.387.144-.434.079-.05.145-.285.145-.52 0-.234.066-.425.145-.425.082 0 .144-.133.144-.293 0-.16.066-.29.148-.29.079 0 .145-.085.145-.19 0-.106.129-.333.29-.504.16-.172.292-.368.292-.438 0-.066.375-.531.836-1.031.805-.875 1.512-1.582 4.773-4.774 1.582-1.546 1.754-1.879 1.188-2.273-.274-.195-.285-.23-.07-.238.136-.004.25-.07.25-.153 0-.082.132-.144.296-.144.16 0 .418-.082.575-.176.156-.098.332-.121.398-.055.063.07.031.153-.066.188a.311.311 0 00-.184.273c0 .114-.066.203-.144.203-.079 0-.145.16-.145.356 0 .195-.066.398-.148.445-.078.051-.145.676-.145 1.39 0 .77.059 1.302.145 1.302.082 0 .148.101.148.222 0 .117.082.364.18.543.605 1.082 1.566 1.239 1.566.254 0-.32-.066-.582-.148-.582-.078 0-.145-.164-.145-.363 0-.2.067-.363.145-.363.082 0 .148-.102.148-.227 0-.121.063-.305.145-.398.703-.832.898-1.102 1.054-1.45.098-.218.227-.398.29-.398.058 0 .109-.2.109-.438s.066-.437.144-.437c.082 0 .145-.152.145-.336 0-.184.133-.477.293-.648.16-.172.289-.399.289-.504 0-.106.133-.286.293-.403.16-.113.289-.293.289-.394 0-.102.133-.188.293-.188.16 0 .289-.066.289-.144 0-.082.098-.145.219-.145.12 0 .218-.066.218-.148 0-.078.13-.145.29-.145.16 0 .292-.062.292-.144 0-.082.13-.145.29-.145.16 0 .293-.066.293-.144 0-.082.195-.149.433-.149.242 0 .438-.055.438-.129 0-.41 5.445-.414 5.882 0 .075.07.387.13.692.13.3 0 .55.066.55.148 0 .078.13.144.294.144.156 0 .289.063.289.145 0 .082.132.144.293.144.261 0 .82.242 1.015.438.04.039.301.199.582.351.278.157.614.403.746.547.13.145.301.266.387.266.086 0 .617.457 1.184 1.02.566.558 1.093 1.015 1.175 1.015.079 0 .141.098.141.219 0 .12.066.218.149.218.078 0 .144.098.144.22 0 .116.066.218.145.218.082 0 .144.062.144.144 0 .082.2.352.438.606.242.25.437.539.437.64 0 .102.082.211.18.25.101.036.133.118.07.184-.058.067-.187.04-.281-.055-.227-.226-3.473-.23-4.176-.007-1.105.355-2.191.867-2.191 1.035 0 .058-.133.11-.293.11-.16 0-.29.066-.29.144 0 .082-.117.148-.257.148-.145 0-.356.129-.469.29-.117.16-.328.292-.469.292-.14 0-.257.067-.257.145 0 .078-.07.144-.157.144-.086 0-.472.328-.863.727-.945.972-1.258.699-.582-.508.453-.805.277-1.383-.422-1.383-.5 0-2.027 1.418-2.422 2.25-.261.555-.5.676-.5.254 0-.273-1.058-1.34-1.328-1.34-.086 0-.34-.195-.562-.437-.223-.239-.512-.434-.641-.434s-.23-.082-.23-.183c-.004-.098-.2-.41-.438-.692-.242-.277-.477-.625-.523-.77-.063-.203-.207-.253-.618-.218l-.53.043-.044 1.375c-.023.758-.105 1.453-.183 1.547-.082.093-.153.836-.164 1.644-.008.809-.07 1.473-.141 1.473-.067 0-.125-.067-.125-.149 0-.078-.227-.144-.508-.144s-.508-.067-.508-.145c0-.078-.328-.144-.726-.144-.403 0-.727-.067-.727-.149 0-.078-.262-.144-.582-.144-1.184 0-.078 2.254 1.32 2.695.153.051.278.149.278.223 0 .074.133.137.293.137.156 0 .289.066.289.144 0 .082-.133.149-.29.149-.16 0-.292.062-.292.144 0 .078-.098.145-.219.145s-.781.554-1.465 1.238c-.687.68-1.34 1.234-1.453 1.234-.113 0-.207.067-.207.145 0 .082-.082.148-.184.148-.273 0-.57.559-.468.88.078.241.226.284 1.09.284.55 0 1.039.063 1.09.145.046.078.312.144.59.144.273 0 .5.067.5.145 0 .082.163.148.362.148.2 0 .364.063.364.145 0 .086.508.144 1.23.144h1.23l-.359.711c-.222.45-.355.961-.355 1.383 0 .367-.067.668-.145.668-.082 0-.148.102-.148.223 0 .12-.078.347-.18.508-.21.343-.015.77.399.847.336.067.945-.261.945-.508 0-.109.086-.195.191-.195.243 0 1.41-1.254 1.41-1.516 0-.382.41-.363.66.032.137.218.598.73 1.028 1.14.43.41.781.805.781.88 0 .07.133.222.293.335.16.117.29.278.29.36.003.3.699.949 1.019.949.539 0 .719-.403.722-1.633.004-.621.063-1.129.137-1.129.07 0 .242-.375.375-.836.137-.46.305-.988.38-1.172.187-.472.163-1.246-.044-1.453-.137-.137-.11-.176.113-.176.16 0 .383.13.5.293.121.164.375.29.602.29.219 0 .437.066.488.144.047.082.407.144.793.144.5 0 .727.067.79.23.195.513 1.027.2 1.077-.405.047-.535-.968-1.86-1.421-1.86a.148.148 0 01-.149-.144c0-.082-.133-.145-.293-.145-.16 0-.289-.066-.289-.148 0-.078-.09-.145-.203-.145-.11 0-.387-.097-.617-.219l-.418-.214h.472c.262 0 .477-.067.477-.149 0-.078.098-.144.223-.144s.511-.278.859-.618c1.105-1.078 1.75-1.632 2.156-1.843.219-.114.395-.293.395-.399 0-.11.101-.195.226-.195.164 0 .215-.113.184-.398-.043-.383-.09-.403-.918-.446-.48-.023-.934-.105-1.012-.183-.074-.075-.32-.137-.547-.137-.226 0-.539-.066-.699-.145-.156-.082-.418-.21-.578-.293-.156-.078-.48-.144-.715-.144-.644 0-.668-.23-.078-.762.293-.262.676-.61.848-.773a3.09 3.09 0 01.785-.508c.258-.117.469-.258.469-.32 0-.059.086-.11.191-.11.106 0 .332-.129.504-.289.172-.16.406-.293.527-.293.117 0 .254-.066.305-.144.05-.078.25-.145.445-.145.196 0 .356-.058.356-.129 0-.277 3.281-.574 3.535-.32a.66.66 0 00.406.156c.27 0 1.34.528 1.778.875.632.504 1.406 1.297 1.406 1.442 0 .086.062.156.144.156.078 0 .145.097.145.219 0 .12.066.218.144.218.082 0 .149.098.149.22 0 .288.96.296 1.246.01.234-.237.285-1.394.062-1.394-.082 0-.148-.129-.148-.289 0-.16-.063-.293-.145-.293-.078 0-.144-.129-.144-.289 0-.16-.067-.293-.145-.293-.082 0-.144-.129-.144-.289 0-.16-.067-.293-.149-.293-.078 0-.144-.129-.144-.289 0-.16-.067-.293-.145-.293-.082 0-.144-.125-.144-.281 0-.156-.067-.324-.149-.371-.078-.051-.144-.246-.144-.438 0-.191-.067-.386-.145-.437-.082-.047-.144-.215-.144-.371 0-.157-.067-.282-.145-.282-.082 0-.148-.195-.148-.43 0-.234-.067-.468-.145-.515-.078-.05-.144-.238-.144-.418s-.098-.453-.215-.61a1.363 1.363 0 01-.219-.683c0-.219-.07-.398-.148-.398-.082 0-.145-.262-.145-.582 0-.32-.066-.582-.144-.582-.082 0-.149-.258-.149-.575 0-.316-.066-.613-.144-.664-.078-.046-.145-.28-.145-.515s-.066-.43-.144-.43c-.082 0-.149-.195-.149-.433 0-.243-.066-.438-.144-.438-.078 0-.145-.133-.145-.293 0-.156-.066-.289-.144-.289-.082 0-.149-.117-.149-.262 0-.242-.875-1.34-1.066-1.34-.047 0-.344-.261-.66-.578-.317-.32-.68-.582-.805-.582-.129 0-.23-.05-.23-.11 0-.148-.844-.62-1.102-.62-.113 0-.207-.063-.207-.145 0-.078-.195-.144-.438-.144-.238 0-.433-.067-.433-.145 0-.082-.262-.148-.582-.148-.32 0-.582-.059-.582-.133 0-.2-1.485-.316-4.942-.39-1.718-.04-3.191-.133-3.265-.208-.078-.078-.684-.14-1.348-.14-.707 0-1.207-.059-1.207-.145 0-.082-.328-.144-.727-.144-.398 0-.726-.067-.726-.149 0-.078-.23-.144-.512-.144-.277 0-.508-.067-.508-.145 0-.082-.16-.144-.355-.144-.195 0-.395-.067-.445-.149-.047-.078-.18-.144-.29-.144-.113 0-.359-.149-.546-.328a5.903 5.903 0 00-.66-.54c-.176-.117-.32-.332-.32-.472 0-.145-.06-.262-.13-.262s-.16-.129-.203-.289c-.074-.29-.793-.426-1.023-.195m274.793.297c-.106.418-.84 1.234-1.258 1.39-.137.055-.25.164-.25.25 0 .082-.13.149-.293.149-.156 0-.29.066-.29.144 0 .082-.16.149-.355.149-.195 0-.394.062-.445.144-.047.078-.313.145-.59.145-.273 0-.5.066-.5.144 0 .082-.289.149-.644.149-.356 0-.688.062-.735.144-.05.078-.64.145-1.312.145-.668 0-1.258.066-1.309.144-.055.09-1.281.145-3.2.145-1.913 0-3.14.058-3.194.148-.051.078-.446.145-.875.145-.43 0-.825.066-.871.144-.051.082-.313.145-.582.145-.27 0-.532.066-.583.148-.05.078-.218.145-.375.145-.261 0-.574.125-1.152.46a3.06 3.06 0 01-.473.216c-.14.046-.253.144-.253.214s-.09.13-.2.13c-.113 0-.472.261-.8.581-.332.317-.641.578-.692.578-.156 0-.781.79-.781.985 0 .097-.067.18-.145.18-.082 0-.144.097-.144.218s-.067.219-.149.219c-.078 0-.144.16-.144.355 0 .196-.067.395-.145.446-.078.047-.144.246-.144.433 0 .192-.067.391-.149.438-.078.05-.144.277-.144.512 0 .23-.067.457-.145.507-.078.051-.144.348-.144.664 0 .313-.067.57-.149.57-.078 0-.144.227-.144.5 0 .278-.063.544-.145.595-.078.046-.144.242-.144.433 0 .188-.11.559-.242.824-.45.899-.485.993-.485 1.278 0 .156-.066.324-.148.37-.078.052-.145.25-.145.446 0 .195-.062.356-.144.356-.078 0-.145.164-.145.363 0 .203-.066.363-.144.363-.082 0-.149.086-.149.192 0 .265-.34.972-.472.972-.06 0-.11.133-.11.293 0 .16-.062.29-.144.29-.079 0-.145.132-.145.292 0 .16-.066.29-.144.29-.082 0-.145.16-.145.355 0 .195-.066.394-.148.445-.215.137-.176.938.062 1.176.527.527 1.809-.117 1.832-.918 0-.063.238-.309.527-.55.286-.24.676-.583.864-.763.183-.18.437-.328.562-.328.125 0 .227-.066.227-.144 0-.078.129-.145.289-.145.16 0 .293-.066.293-.148 0-.078.156-.145.351-.145.196 0 .399-.066.446-.144.05-.078.605-.145 1.238-.145.629 0 1.188.067 1.234.145.051.078.313.144.582.144.27 0 .532.067.582.145.051.082.25.148.446.148.195 0 .355.067.355.145 0 .078.13.144.29.144.16 0 .292.067.292.149 0 .078.102.144.223.144.125 0 .363.13.535.29.172.16.399.292.504.292.105 0 .191.063.191.145 0 .078.067.144.149.144.086 0 .297.133.476.293 1.723 1.563 1.739 1.598.88 1.598-.27 0-.489.066-.489.144 0 .082-.195.149-.434.149-.242 0-.437.062-.437.144 0 .079-.258.145-.57.145-.317 0-.618.066-.664.144-.051.082-.48.149-.957.149-1.493 0-1.2.719.882 2.183.282.196.715.551.97.793 1.058 1.008 1.382 1.239 1.733 1.239.332 0 .348.027.153.219-.117.12-.387.218-.59.218-.207 0-.375.051-.375.11 0 .062-.184.191-.406.293-.496.218-1.485 1.101-1.485 1.328 0 .086-.07.16-.152.16-.09 0-.137.23-.11.547.051.617.887.91 1.169.41.09-.16.343-.23.847-.23.395 0 .719-.063.719-.145 0-.078.195-.145.437-.145.239 0 .434-.05.438-.109 0-.14.754-.492.848-.398.039.039 0 .222-.086.41-.172.375-.008 1.336.343 2.011.11.211.2.489.2.618s.066.23.148.23c.078 0 .145.266.145.582 0 .32.066.582.144.582.082 0 .145.414.145.945 0 .942.004.946.41.946.394 0 1.047-.543 1.047-.871 0-.082.062-.145.144-.145a.147.147 0 00.145-.144c0-.168.394-.672.785-1.004.656-.559 1.394-1.375 1.394-1.547 0-.203.36-.39.497-.254.046.047.086.176.086.285 0 .195.921 1.207 1.097 1.207.137 0 .504.402.504.547 0 .242.695.512 1.078.414.473-.117.508-.715.086-1.469-.172-.3-.293-.785-.293-1.168 0-.355-.066-.648-.144-.648-.082 0-.145-.106-.145-.23 0-.126-.11-.34-.246-.473-.23-.23-.164-.246 1.02-.285.69-.024 1.261-.106 1.261-.184 0-.074.16-.137.356-.137.195 0 .394-.066.445-.148.047-.078.27-.145.488-.145.22 0 .461-.062.535-.136.079-.079.598-.16 1.157-.184 1.133-.047 1.457-.426.824-.96-.16-.138-.43-.36-.594-.5-.168-.142-.402-.255-.523-.255-.117 0-.215-.062-.215-.14 0-.168-1.602-1.75-1.774-1.75-.062 0-.117-.067-.117-.149 0-.078-.133-.144-.293-.144-.16 0-.289-.067-.289-.145 0-.082-.133-.144-.293-.144-.156 0-.289-.067-.289-.149 0-.078.133-.144.29-.144.16 0 .292-.067.292-.145 0-.082.094-.144.215-.144.442 0 1.938-1.641 1.988-2.184.051-.504.043-.508-.566-.555-.367-.023-.621.02-.621.11 0 .086-.285.156-.645.156-.355 0-.687.066-.734.144-.05.079-.277.145-.512.145-.23 0-.457.066-.508.144a.329.329 0 01-.253.149c-.122 0-.118-.05.007-.176.211-.21.235-1.57.028-1.57-.078 0-.145-.38-.145-.844 0-.465-.062-.906-.137-.984-.078-.075-.16-.66-.183-1.301-.059-1.61-.88-1.684-1.676-.152-.266.511-.543.808-.754.808-.086 0-.156.067-.156.145 0 .078-.086.144-.188.144-.101 0-.28.133-.394.293-.117.16-.277.29-.36.29-.378 0-1.386 1.214-1.386 1.667 0 .125-.067.223-.145.223-.082 0-.144-.164-.144-.363 0-.2-.067-.364-.149-.364-.078 0-.144-.101-.144-.226 0-.266-1.473-1.809-1.723-1.809-.094 0-.168-.066-.168-.148 0-.078-.18-.145-.402-.145-.418 0-.88.492-.613.656.078.051.144.25.144.446 0 .195.066.355.145.355.078 0 .144.262.144.582 0 .739.024.742-1.027-.293-.489-.48-.98-.87-1.094-.87-.113 0-.203-.067-.203-.15 0-.077-.102-.144-.219-.144-.121 0-.219-.066-.219-.144 0-.078-.129-.145-.293-.145-.156 0-.289-.058-.289-.129 0-.191-2.03-1.18-2.422-1.18-.187 0-.34-.066-.34-.148 0-.215-3.968-.191-4.187.027-.094.094-.215.13-.27.075-.054-.055.044-.22.215-.371.172-.149.317-.348.317-.442 0-.097.144-.32.324-.504.184-.183.461-.515.621-.742.395-.562 2.242-2.406 2.41-2.406.075 0 .34-.192.586-.43.25-.238.578-.473.727-.52.152-.046.273-.148.273-.222 0-.074.133-.137.293-.137.16 0 .29-.066.29-.144 0-.082.132-.145.292-.145.16 0 .29-.066.29-.148 0-.078.132-.145.292-.145.16 0 .29-.062.29-.144 0-.082.16-.145.355-.145.195 0 .394-.066.445-.144.047-.082.27-.149.488-.149.22 0 .461-.058.536-.129.437-.414 5.882-.41 5.882 0 0 .074.196.13.438.13.238 0 .433.066.433.148 0 .078.165.144.364.144.203 0 .367.047.367.11 0 .113.691.472.91.472.14 0 .543.367.543.5 0 .047.195.29.434.54.242.253.437.546.437.652 0 .109.05.199.113.199s.2.308.305.691c.285 1.035.477 1.38 1.508 2.738.535.711.773 1.805.39 1.805-.085 0-.132.18-.109.403.078.671 1.43.578 1.43-.102 0-.082.066-.156.144-.156.079 0 .145-.149.145-.332 0-.184.07-.407.156-.493.09-.085.156-.742.156-1.515 0-.836-.058-1.38-.156-1.41-.086-.032-.156-.184-.156-.34 0-.156-.133-.43-.3-.606-.278-.297-.282-.324-.04-.375.14-.027.281.024.313.11.027.09.21.164.402.164.195 0 .355.062.355.144 0 .082.211.153.47.164.312.008.374.04.183.086-1.23.305-.473 1.61 2.176 3.75.757.61 2.984 2.817 2.984 2.953 0 .063.246.38.547.7.3.324.64.761.754.976.113.215.257.39.324.39.066 0 .121.13.121.29 0 .16.066.293.145.293.082 0 .148.129.148.289 0 .16.062.293.144.293.079 0 .145.125.145.281 0 .156.066.32.145.371.082.051.144.282.144.52 0 .234.067.426.149.426.078 0 .144.226.144.5 0 .277.066.543.145.59.082.05.144.351.144.663 0 .317.067.575.149.575.078 0 .144.226.144.5 0 .277.067.543.145.59.082.05.144.218.144.378 0 .157.098.325.219.372.121.043.219.191.219.328 0 .312.328 1.027.472 1.03.059 0 .11.118.11.259 0 .144.129.355.293.469.156.117.289.28.289.37 0 .192.758.938.957.938.078 0 .234.133.351.293.114.16.36.29.54.29.183 0 .331.066.331.148 0 .078.125.144.278.144.152 0 .312.098.36.219.046.117.21.219.37.219.156 0 .324.062.375.144.051.078.367.145.707.145.34 0 .688.07.774.156.18.18 2.03.101 3.61-.156 3.444-.563 5.308-.137 5.308 1.218 0 .348.644.579.996.36.34-.211.48-2.473.164-2.668-.078-.051-.145-.203-.145-.336-.004-.137-.168-.402-.367-.59-.195-.187-.36-.43-.36-.531 0-.106-.195-.278-.437-.387-.238-.105-.433-.242-.433-.3 0-.063-.133-.11-.293-.11-.16 0-.29-.067-.29-.149 0-.078-.226-.144-.495-.144-.274 0-.528-.082-.56-.18-.042-.129-.46-.183-1.417-.183-.957 0-1.375.054-1.418.183-.04.117-.36.18-.91.18-.469 0-.895.066-.945.144-.051.086-.848.149-1.899.149-1.11 0-1.809-.059-1.809-.149 0-.078-.195-.144-.437-.144-.238 0-.434-.063-.434-.137 0-.074-.144-.18-.324-.238-.39-.125-1.86-1.621-1.86-1.898 0-.11-.062-.2-.144-.2-.078 0-.144-.16-.144-.355 0-.195-.067-.395-.145-.445-.082-.047-.144-.247-.144-.434 0-.192-.067-.387-.149-.438-.078-.05-.144-.277-.144-.507 0-.23-.067-.461-.145-.512-.082-.047-.144-.25-.144-.45 0-.195-.102-.398-.22-.44-.124-.052-.218-.266-.218-.505 0-.234-.066-.422-.144-.422-.082 0-.149-.097-.149-.218 0-.313.336-.27.582.074.117.156.29.289.387.289.094 0 .363.18.594.398.632.61.96.844 1.468 1.067.254.113.461.254.461.316 0 .059.118.11.258.11s.352.132.469.293c.113.156.324.289.469.289.14 0 .257.066.257.144 0 .082.133.149.293.149.157 0 .29.062.29.144 0 .078.132.145.289.145.16 0 .293.066.293.144 0 .082.164.145.363.145.226 0 .363.086.363.219 0 .12.129.218.29.218.163 0 .292.067.292.145 0 .082.125.148.281.148.157 0 .325.063.375.145.047.078.243.144.434.144s.387.067.437.145c.047.082.278.144.508.144.23 0 .461.067.508.149.05.078.379.144.73.144.348 0 .676.067.727.145.05.086.969.148 2.262.148 1.351 0 2.172-.058 2.172-.148 0-.078.191-.145.425-.145.239 0 .47-.066.52-.144.05-.082.215-.149.363-.149.29 0 1.348-.558 1.43-.757.027-.063.145-.114.258-.114.117 0 .25-.097.297-.219.047-.117.207-.218.36-.218.147 0 .272-.063.272-.145 0-.078.13-.144.286-.144.152 0 .32-.067.37-.145.048-.082.473-.144.946-.144.469 0 .895.062.945.144.047.078.348.145.66.145.317 0 .575.066.575.144 0 .082.441.145 1.027.145.625 0 1.106.074 1.219.183.105.102.328.278.5.395.168.117.308.308.308.422 0 .199.399.59.618.597.058 0 .109-.617.109-1.379V74.18l-.7-.727c-.386-.398-.777-.726-.874-.726-.094 0-.172-.067-.172-.145 0-.082-.129-.144-.29-.144-.16 0-.292-.067-.292-.145 0-.43-2.594-.828-2.836-.438-.156.254-.508.157-.508-.144 0-.164.067-.293.145-.293.082 0 .148-.191.148-.426 0-.238.063-.469.145-.52.082-.05.144-.824.144-1.827 0-1.06-.055-1.735-.144-1.735-.082 0-.145-.086-.145-.191 0-.266-.344-.973-.473-.973-.062 0-.109-.07-.109-.152 0-.785-1.633-1.16-1.719-.395-.027.219.024.403.11.403s.152.125.152.28c0 .157.066.325.148.372.079.05.145.348.145.664 0 .316-.066.574-.145.574-.082 0-.148.106-.148.235 0 .132-.113.343-.254.472-.379.352-.762 1.274-.762 1.832 0 .274-.066.54-.144.586-.082.051-.149.48-.149.957s-.062.864-.144.864c-.078 0-.145.171-.145.382s-.113.489-.254.618c-.14.132-.324.363-.41.519a1.34 1.34 0 01-.43.434 3.018 3.018 0 00-.48.343c-.113.106-.394.227-.62.274-.231.043-.493.172-.583.281-.25.3-3.41.285-3.715-.016-.12-.12-.472-.218-.781-.218-.309 0-.602-.067-.652-.145-.047-.082-.235-.148-.41-.148-.348-.004-1.34-.32-1.5-.48-.055-.055-.254-.098-.442-.098-.187 0-.34-.067-.34-.149 0-.078-.125-.144-.281-.144-.156 0-.32-.067-.371-.145-.05-.082-.219-.144-.371-.144-.156 0-.285-.067-.285-.149 0-.078-.13-.144-.29-.144-.16 0-.292-.067-.292-.145 0-.082-.114-.144-.258-.144-.14 0-.352-.133-.469-.293-.113-.16-.324-.29-.469-.29-.14 0-.258-.054-.258-.124 0-.067-.226-.247-.507-.395-.282-.152-.508-.32-.508-.379 0-.055-.125-.14-.274-.187-.152-.047-.46-.25-.691-.446-.23-.199-.484-.36-.566-.36-.082 0-.247-.132-.36-.292-.117-.16-.293-.29-.398-.29-.102 0-.184-.066-.184-.148 0-.078-.101-.144-.223-.144-.125 0-.445-.211-.718-.473a50.06 50.06 0 00-1.168-1.054 90.85 90.85 0 01-.871-.762c-.11-.102-.27-.184-.356-.184-.086 0-.156-.066-.156-.144a.149.149 0 00-.152-.145c-.082 0-.305-.156-.493-.344l-.34-.34.747.07c.414.036.86.126.992.196.758.39 4.469-.133 4.937-.699.09-.106.317-.191.508-.191.192 0 .348-.067.348-.149 0-.078.129-.144.289-.144.16 0 .289-.067.289-.145 0-.082.102-.144.219-.144.12 0 .218-.067.218-.149 0-.078.09-.144.196-.144.11 0 .402-.196.656-.434.25-.242.54-.441.637-.445.101-.004.476-.297.84-.653l.652-.644.047.761c.023.418.105.825.18.899.183.184.175 2.656-.008 2.77-.215.136-.172.394.136.796.368.477.73.293 2.172-1.12.594-.583 1.137-1.055 1.207-1.055.07 0 .438-.313.817-.692l.683-.687.047.398c.028.219.106.399.184.399.074 0 .137.128.137.289 0 .16.062.293.144.293.078 0 .145.113.145.257 0 .473 1.148 1.633 1.617 1.633h.418v-1.375c0-.758-.067-1.414-.145-1.465-.082-.047-.144-.308-.144-.574 0-.27-.082-.52-.184-.555-.101-.035-.133-.117-.078-.175.059-.063.3-.035.535.066.281.113.75.145 1.352.082a66.72 66.72 0 012.843-.168l1.93-.07v-.418c0-.313-.219-.633-.875-1.3-.48-.49-.871-.935-.871-.997 0-.059-.148-.281-.328-.496-.18-.211-.457-.567-.617-.79-.368-.503-.817-.929-.98-.929-.071 0-.087-.066-.04-.144.05-.082.285-.149.52-.149.234 0 .425-.062.425-.144 0-.078.165-.145.364-.145.203 0 .363-.066.363-.144 0-.082.086-.149.191-.149.106 0 .43-.219.727-.492.852-.777.676-2.117-.207-1.566-.148.093-.758.167-1.352.167-.597 0-1.125.067-1.175.145-.114.188-.653.195-.653.012 0-.078.063-.18.145-.227.086-.054.144-.926.144-2.117 0-1.258.055-2.031.145-2.031.207 0 .183-1.36-.027-1.57-.293-.294-.551-.2-1.137.41-.305.32-.63.582-.715.582-.086 0-.156.062-.156.144 0 .078-.13.145-.29.145-.16 0-.292.047-.292.11 0 .128-.707.472-.973.472-.105 0-.191.066-.191.144 0 .082-.09.145-.204.145-.113 0-.507.297-.878.656-.762.742-.805.762-.805.371 0-.152-.067-.32-.149-.371-.078-.05-.144-.25-.144-.445 0-.196-.066-.356-.145-.356-.082 0-.144-.097-.144-.218 0-.118-.067-.22-.149-.22-.078 0-.144-.077-.144-.179 0-.465-.684-.98-1.293-.98h-.602l.075 1.37c.043.758.14 1.548.222 1.755.203.539.18.8-.074.8-.121 0-.219-.066-.219-.144 0-.082-.386-.145-.87-.145-.481 0-.876.063-.876.14 0 .083-.879.157-2.144.18-2.551.047-2.696.165-1.567 1.274.364.356.66.7.66.762 0 .125.332.55.836 1.074.18.184.325.41.325.496 0 .203.668.871.867.871.086 0 .152.059.152.13 0 .07.149.175.328.233.258.086.156.133-.469.223-.437.067-.82.192-.847.277-.031.086-.18.157-.332.157-.153 0-.278.066-.278.144 0 .082-.086.145-.191.145-.453 0-1.266.972-1.266 1.511 0 .528 1.032.852 1.192.372.031-.09.394-.133.902-.11l.852.047-.707.5c-.39.277-.743.54-.782.582a3.026 3.026 0 01-.472.29c-.223.112-.403.257-.403.323 0 .067-.128.121-.289.121-.16 0-.293.051-.293.11 0 .062-.21.2-.472.305-1 .41-1.207.496-1.45.62-.355.18-4.289.165-4.402-.015-.05-.082-.316-.144-.59-.144-.277 0-.5-.067-.5-.145 0-.082-.199-.148-.437-.148s-.438-.067-.438-.145c0-.078-.125-.145-.28-.145-.157 0-.321-.066-.372-.144-.05-.082-.219-.148-.375-.148-.152 0-.281-.067-.281-.145 0-.078-.13-.145-.29-.145-.16 0-.292-.066-.292-.144 0-.082-.13-.149-.29-.149-.16 0-.288-.062-.288-.144 0-.078-.098-.145-.215-.145-.114 0-.375-.164-.574-.363l-.364-.363h.422c.23 0 .461.062.512.144.047.082.7.145 1.453.145.754 0 1.402-.063 1.453-.145.05-.082.348-.144.664-.144.317 0 .574-.067.574-.149 0-.078.125-.144.282-.144.156 0 .32-.063.37-.145.051-.082.22-.144.372-.144.156 0 .285-.055.285-.121 0-.067.18-.215.398-.328.477-.246 1.344-1.082 1.344-1.293a.15.15 0 01.149-.149c.078 0 .144-.133.144-.293 0-.16.086-.289.195-.289.106 0 .344-.312.524-.691.183-.38.39-.805.46-.946.071-.136.13-.449.13-.687 0-.242.066-.441.144-.441.09 0 .145-.727.145-1.891 0-1.164-.055-1.89-.145-1.89-.078 0-.144-.137-.144-.301 0-.41-.34-.72-.79-.72-.367 0-.374.024-.374 1.012 0 1-.38 1.754-.88 1.754-.073 0-.14.055-.14.121 0 .067-.18.211-.398.329-.559.285-.965.71-1.207 1.261-.114.258-.258.47-.317.47-.062 0-.113.132-.113.292 0 .16-.05.29-.117.29-.063 0-.235.28-.375.62-.567 1.344-.696 1.563-1.242 2.137-.313.324-.7.59-.864.59-.16 0-.332.066-.382.144-.051.078-.508.145-1.02.145-.508 0-.965-.067-1.016-.145-.05-.078-.312-.144-.582-.144-.27 0-.53-.067-.582-.145-.047-.082-.281-.148-.515-.148-.235 0-.43-.063-.43-.145 0-.078-.125-.144-.277-.144-.153 0-.301-.051-.329-.114-.062-.148-3.93-2.07-4.16-2.07-.097 0-.18-.062-.18-.144 0-.079-.156-.145-.35-.145-.196 0-.4-.066-.446-.144-.051-.083-.219-.149-.375-.149-.153 0-.281-.062-.281-.144 0-.079-.196-.145-.434-.145-.242 0-.438-.066-.438-.145 0-.082-.222-.148-.496-.148-.273 0-.523-.078-.558-.176-.176-.527-5.57-.527-6.094-.004-.102.102-.36.18-.578.18-.219 0-.442.066-.488.148-.051.079-.286.145-.52.145-.234 0-.426.066-.426.145 0 .082-.133.144-.293.144-.16 0-.289.066-.289.149 0 .078-.133.144-.293.144-.16 0-.289.066-.289.145 0 .082-.133.144-.293.144-.16 0-.289.067-.289.149 0 .078-.133.144-.293.144-.16 0-.289.066-.289.145 0 .082-.098.144-.219.144-.12 0-.218.067-.218.149 0 .078-.082.144-.188.144-.183 0-.652.395-2.469 2.07-.664.614-.918.774-.957.602a.485.485 0 01.11-.39c.09-.087.16-.372.16-.63 0-.261.066-.511.144-.562.082-.05.149-.316.149-.59 0-.277.062-.5.144-.5.079 0 .145-.2.145-.437 0-.239.062-.438.137-.438.074 0 .175-.125.222-.277.051-.156.305-.516.567-.801l.476-.52h1.469c.84 0 1.488.063 1.516.145.074.215 1.613.25 1.683.031.035-.097.192-.176.352-.176.629 0 1.027-1.507.531-2.003-.094-.098-.121-.223-.059-.286.168-.164 2.872-.074 3.047.102.082.082.332.152.551.152.219 0 .438.063.488.145.047.078.282.144.516.144.234 0 .43.067.43.145 0 .082.226.144.508.144.277 0 .507.067.507.149 0 .078.403.144.918.144.504 0 .989.07 1.075.16.105.102.421.126.867.067.386-.05 1.062-.129 1.504-.172.441-.043.863-.14.937-.215a.693.693 0 01.399-.133c.144 0 .261-.062.261-.144 0-.078.094-.145.207-.145.258 0 1.395-.601 1.395-.738 0-.055.262-.371.582-.7.32-.327.582-.698.582-.816 0-.12.066-.218.144-.218.079 0 .145-.133.145-.293 0-.16.066-.29.148-.29.079 0 .145-.222.145-.495 0-.274.066-.524.152-.551.207-.07.34-1.137.223-1.781-.133-.696-1.027-.793-1.195-.125M12.434 57.89c.05.082-.07.144-.282.144-.207 0-.375-.062-.375-.144 0-.078.13-.145.286-.145.152 0 .32.066.37.145m324.86 0c.055.086-.098.144-.363.144-.266 0-.414-.058-.364-.144.051-.078.215-.145.364-.145.152 0 .316.066.363.145m-319.5 1.629c.086.136.102.3.031.363-.066.066-.152.035-.187-.063-.035-.101-.14-.187-.235-.187-.093-.004-.3-.106-.46-.23-.278-.212-.27-.22.203-.176.27.027.562.156.648.293m314.434-.102c-.122.121-.325.219-.45.219s-.226.066-.226.144c0 .082-.098.145-.219.145s-.219-.082-.219-.188c0-.328.332-.539.84-.539.434 0 .465.024.274.219m-317.477.637c.043.07-.086.16-.281.199-.242.047-.364.004-.364-.129 0-.219.52-.273.645-.07m320.145.02c0 .077-.168.144-.372.144-.21 0-.336-.063-.285-.145.051-.082.219-.148.375-.148.157 0 .282.066.282.148M19.34 61.238c0 .078.129.145.281.145.156 0 .324.062.375.144.129.207-.562.18-.773-.027-.211-.215-.227-.41-.028-.41.078 0 .145.066.145.148m310.61.145c0 .226-.095.289-.434.289-.243 0-.438-.063-.438-.145 0-.082.125-.144.281-.144.157 0 .325-.067.375-.145.137-.226.215-.175.215.145M49.586 70.035c0 .121-.106.219-.234.219-.196 0-.204-.04-.055-.219.098-.12.207-.219.234-.219.032 0 .055.098.055.22m-2.473 1.6c0 .122-.062.22-.144.22-.078 0-.145-.098-.145-.22 0-.12.067-.218.145-.218.082 0 .144.098.144.219M43.48 72.87c0 .082-.097.149-.218.149s-.219-.067-.219-.149c0-.078.098-.144.219-.144.12 0 .218.066.218.144m262.696 0c.05.082-.063.149-.254.149-.188 0-.422.074-.516.171-.094.094-.21.133-.261.082-.047-.046.097-.187.328-.312.492-.266.586-.277.703-.09m-5.215 2.567c-.25.23-.453.324-.508.234-.055-.086-.258-.184-.457-.219-.215-.039-.082-.078.324-.086.383-.012.692-.086.692-.168 0-.078.082-.144.18-.144.101 0-.005.172-.231.382m-254.754.012c-.215.031-.61.035-.871 0-.262-.031-.082-.058.398-.058.48 0 .692.023.473.058m2.871 0c-.16.04-.371.137-.469.219-.12.098-.25.07-.41-.09-.215-.21-.176-.23.469-.215.387.008.57.047.41.086m254.664 0a3.83 3.83 0 01-.87 0c-.263-.031-.087-.058.394-.058.48 0 .695.023.476.058" fill="#9cdc1c"/></g></svg>